<svg xmlns="http://www.w3.org/2000/svg" viewBox="0 0 160.51 142.9"><defs><style>.cls-1{fill:#d3d3d3;stroke:#df2e0a;stroke-miterlimit:10;}</style></defs><title>extropy_logo</title><g id="Layer_2" data-name="Layer 2"><g id="Layer_5" data-name="Layer 5"><path class="cls-1" d="M72.24,77.38,3.51,128.93c-6.24,4.68-2,14.67,5.68,13.35l.19,0c33.86-5.93,54.41-36.5,64.18-55.69a7.51,7.51,0,0,1,13.39,0c9.77,19.19,30.32,49.76,64.18,55.69l.19,0c7.69,1.32,11.92-8.67,5.68-13.35L88.27,77.38a7.51,7.51,0,0,1,0-12L156.71,14A7.52,7.52,0,0,0,152.2.5H121.67a7.51,7.51,0,0,0-5.87,2.82L86.12,40.41a7.51,7.51,0,0,1-11.73,0L44.71,3.32A7.51,7.51,0,0,0,38.84.5H8.31A7.52,7.52,0,0,0,3.8,14L72.24,65.36A7.51,7.51,0,0,1,72.24,77.38Z"/></g></g></svg>