<svg xmlns="http://www.w3.org/2000/svg" viewBox="0 0 222.32 244.63"><defs><style>.cls-1{fill:#d3d3d3;stroke:#0019ff;stroke-linejoin:round;}</style></defs><title>Asset 18</title><g id="Layer_2" data-name="Layer 2"><g id="Layer_5" data-name="Layer 5"><path class="cls-1" d="M192,155.22C179.52,114.6,152.49,88,125.89,88.38c-5.51.08-13.59,1.38-23.13,7.26v0c-17.24,11.52-38.71,12.73-55,3-15.49-9.28-20.41-25-21.59-29.21,59.86,19,75.49,22.38,76,20.88C103.23,87.57,50,75.2,16.78,29A156.83,156.83,0,0,1,.5.5L30.38,89.4C42.8,130,69.83,156.68,96.43,156.25c5.51-.08,13.59-1.38,23.13-7.26v0c17.24-11.52,38.7-12.73,55-3,15.5,9.28,20.42,25,21.59,29.2-59.85-19-75.49-22.37-76-20.87-1,2.76,52.25,15.13,85.45,61.29a156.55,156.55,0,0,1,16.28,28.54Z"/></g></g></svg>