<svg xmlns="http://www.w3.org/2000/svg" viewBox="0 0 193.32 371.54"><defs><style>.cls-1{fill:#d3d3d3;stroke:#ba402b;stroke-miterlimit:10;}</style></defs><title>sleep</title><g id="Layer_2" data-name="Layer 2"><g id="Layer_5" data-name="Layer 5"><path class="cls-1" d="M160,21.38c-1.73-1.6-3.47-3.13-5.24-4.55A73.74,73.74,0,0,0,143,8.93a35.37,35.37,0,0,0-10.51-3.86,18.89,18.89,0,0,0-4.9-3.2A14.85,14.85,0,0,0,121.24.5q-8,0-11.63,5.09a15.54,15.54,0,0,0-1,1.73,17.28,17.28,0,0,0-1-1.73Q103.86.51,95.9.5a19.16,19.16,0,0,0-6,1,18,18,0,0,0-4.25,2.29L83.11,5.39a38.28,38.28,0,0,0-9,3.54,73.74,73.74,0,0,0-11.82,7.9c-.78.62-1.55,1.28-2.31,1.94a29.06,29.06,0,0,0-13.31-.51c-7.64,1.33-8.38,7.13-12.77,7.59-6.95.72-9-4.46-15.8-4.28S3.87,27.33,1.39,34.46c-3.95,11.38,6.3,21.72,9.31,24.75,3.6,3.64,7.67,7.73,12.53,7.46a4.58,4.58,0,0,0,1.42,3.24,4.93,4.93,0,0,0,3.53,1.37,3.86,3.86,0,0,0,2.6-.94c0,.75-.06,1.51-.06,2.26q0,10.07,5.16,16a14.87,14.87,0,0,0,1.76,1.7c-4.23,1.29-8.57,3-11.67,7.24-4.91,6.77-4.79,17.43-.38,23.46s9.41,2.84,14.15,8.44a12,12,0,0,1,.93,1.26,15.58,15.58,0,0,0-4.79,3.71q-5.16,5.94-5.16,16a49.43,49.43,0,0,0,2.68,16,74.61,74.61,0,0,0,7.11,15.15,90.46,90.46,0,0,0,10.13,13.52,102.29,102.29,0,0,0,11.69,11.1q2.22,1.78,4.42,3.34l2.09,19.59C56.68,239.68,46.21,248.28,49.28,258c1,3.27,5.22,11.85,12.78,19.17,2.77,2.69,5.11,4.34,6.66,5.91-.16,1.11-.33,2.22-.51,3.31a77.73,77.73,0,0,1-1.73,7.67c-3.64,2.92-8.23,5.34-7.91,8.68a5.84,5.84,0,0,0,2,3.47,18.28,18.28,0,0,1-4.82,4,17.41,17.41,0,0,1-8.68,2,9.91,9.91,0,0,1-6.54-2.28c-1.82-1.53-2.74-3.86-2.74-7a16.29,16.29,0,0,1,.72-5.23,20,20,0,0,1,2.16-4.31,11.77,11.77,0,0,0-7,2.09,7.2,7.2,0,0,0-2.94,6.27A10.49,10.49,0,0,0,35,310.42q4.3,3.33,11.23,3.33a26.24,26.24,0,0,0,13.65-3.53,27.21,27.21,0,0,0,3.1-2.15,27.74,27.74,0,0,0,14.21,3.65l2.34,23.14,8.22-12.79L81,367.45l17.77-43.73,6-19.12c7.21,18.15,5.44,29.28,9.77,30.24,4.54,1,13.1-9.79,13.69-21,.54-10.29-5.84-18.23-12.3-26.26a57,57,0,0,0-4.36-4.9l11.61-37.32-13.7,35.41c-.88-.74-1.66-1.33-2.51-2l16.49-52.67c.42.22.82.46,1.2.71a31.66,31.66,0,0,1,6,6.94c1.19,2.13,2.15,4.33,3.08,6.25a20,20,0,0,1-.31,2.12,7.89,7.89,0,0,1-1.9,3.79,2.35,2.35,0,0,0-1.24-1,4.17,4.17,0,0,0-1.5-.33,3.91,3.91,0,0,0-3.13,1.37,4.94,4.94,0,0,0-1.18,3.34,4.64,4.64,0,0,0,1.5,3.59,6.52,6.52,0,0,0,4.51,1.37,6.39,6.39,0,0,0,5.48-3,10.9,10.9,0,0,0,.93-1.63c-.07-.33-.13-.66-.21-1a49.43,49.43,0,0,0-2-6.85,7.79,7.79,0,0,0,3.31,3.64,13.22,13.22,0,0,1-1.08,4.2,75.33,75.33,0,0,1,1.62,13.9,97.43,97.43,0,0,0,2.29,20.9,52.29,52.29,0,0,0,6.14,15.74,29,29,0,0,0,9.92,10,26.24,26.24,0,0,0,13.65,3.53q6.93,0,11.24-3.33a10.49,10.49,0,0,0,4.31-8.69,7.2,7.2,0,0,0-2.94-6.27,11.77,11.77,0,0,0-7-2.09,19.89,19.89,0,0,1,2.15,4.31,16.29,16.29,0,0,1,.72,5.23q0,4.69-2.74,7a9.9,9.9,0,0,1-6.53,2.28,17.45,17.45,0,0,1-8.69-2,18.45,18.45,0,0,1-6.07-5.55,30,30,0,0,1-4-8.23,73.71,73.71,0,0,1-2.42-10q-.91-5.29-1.37-10.91t-.85-11.1a72.44,72.44,0,0,0-3.76-19.72c5.35-3.71,10.33-15.91,9-27.32a34.15,34.15,0,0,0-1.73-7.42q2.47-1.71,5-3.74a101.47,101.47,0,0,0,11.69-11.1,90.46,90.46,0,0,0,10.13-13.52,75.19,75.19,0,0,0,7.12-15.15,49.69,49.69,0,0,0,2.67-16q0-10.07-5.16-16t-15.47-5.95a28.8,28.8,0,0,0-12,2.81,62.83,62.83,0,0,0-10.61,6.24l6.37-17.18,1.75-13c.74-.9,1.52-1.82,2.37-2.77,5.24-5.92,8.45-8.3,8.77-10.23a25.56,25.56,0,0,0,3.37.23q10.32,0,15.47-5.94t5.16-16c0-.53,0-1,0-1.58a4.14,4.14,0,0,0,1.48.26,5,5,0,0,0,3.53-1.37,4.62,4.62,0,0,0,1.43-3.46,5,5,0,0,0-1-3.14,7.2,7.2,0,0,0-2.48-2.09,13.22,13.22,0,0,0-3.27-1.17c-.47-.11-.94-.19-1.39-.25-.29-1.07-.6-2.14-1-3.2a75.19,75.19,0,0,0-7.12-15.15,90.46,90.46,0,0,0-10.13-13.52c-1.81-2-3.66-3.9-5.53-5.68m3.58,10.38a92.46,92.46,0,0,1,9.79,20.31,71.47,71.47,0,0,1,2.14,7.59,26.9,26.9,0,0,0-7.29,3.3,59.77,59.77,0,0,0-12.47,10.91c-.43.48-.85,1-1.28,1.49l-.16.2-.21.24a114.93,114.93,0,0,0-7.21,9.54A59.5,59.5,0,0,1,143,82.59l-.57-.49L159.8,26Q162.27,29.15,164.54,32.63ZM42.8,52.94c.74-2.17,1.56-4.29,2.45-6.38.75,2.84,1.69,8.26,3.44,18.51-.61-.43-1.22-.84-1.84-1.24a27.11,27.11,0,0,0-6.26-3A72.48,72.48,0,0,1,42.8,52.94Zm75.3,14.57a47.5,47.5,0,0,0,5.62-1.83,82.44,82.44,0,0,0,7.9,9.66,82,82,0,0,0,6.76,6.42l-3.85,10.72-.35,1a85.67,85.67,0,0,0-13.76,5.13l-1.19.57q-.81-5.84-1.51-11.57a104.91,104.91,0,0,1-.79-12.94,69.06,69.06,0,0,1,.36-7Zm-.64-1.39c0-.2,0-.39.07-.59A33.41,33.41,0,0,0,122,63.06c.31.44.61.89.91,1.31A25.71,25.71,0,0,1,117.46,66.12ZM142,84.68c1.54,1.16,3.12,2.23,4.71,3.23-.41.63-.83,1.27-1.24,1.92-.29.45-.56.91-.85,1.37-1.72.26-3.51.59-5.34,1l2.41-7.77ZM79,207c-.25-.52-.49-1.06-.72-1.6a46.2,46.2,0,0,1-2.35-7.19,32.63,32.63,0,0,1-.91-7.7q0-14.06,7.8-23.19Zm19.73,11.09a5.72,5.72,0,0,1-2.23-2.19,7.88,7.88,0,0,0,1.38-1.56,11.26,11.26,0,0,0,1.63-4c.09-.48.17-1,.23-1.45,1.4-1.47,3.16-3.19,5.15-5.27v0Zm-25-117.73a4.53,4.53,0,0,1,.61-1.62q2.89,5,5.63,10.16,3.21,6.09,6.17,12.16-1.52,2.23-3.36,4.76C79.33,117.09,73.1,104.81,73.73,100.36Zm6.5,6.32q-2.37-4.59-5-9.13c2.74-3,8.69-5.66,13.94-8.58a24.37,24.37,0,0,0,0,8l-2,22.45c-.13.19-.25.4-.38.6Q83.82,113.64,80.23,106.68Zm14.69,6.66a106.62,106.62,0,0,0-.78,12.93c0,1.56,0,3.11.06,4.63s.07,3.12.07,4.77H94c-1.13-2.37-2.41-5.13-3.84-8.25l.44-10.9q1.74-2.89,3.6-6.19c.48-.86,1-1.74,1.43-2.6Q95.27,110.54,94.92,113.34Zm-4.83,16c2.3,5,4.4,9.61,6.27,13.86.17.87.41,1.89.72,3.07a14.1,14.1,0,0,0,1.37,3.39,10.27,10.27,0,0,0,2.28,2.81,4.67,4.67,0,0,0,2.32,1.1c-.22.43-.42.86-.61,1.29a23,23,0,0,0-3.41.59,46.87,46.87,0,0,0-5.62,1.83c-1.22-1.78-2.64-3.63-4.23-5.53Zm9.66,27.48c.64-.12,1.32-.22,2-.31v0c-.52.2-1,.4-1.55.62a32.28,32.28,0,0,0-5.1,2.75c-.3-.44-.61-.89-.91-1.31A25.88,25.88,0,0,1,99.75,156.87Zm.72,1.77.71-.3a39.47,39.47,0,0,0-1.41,9.06c-1.28-2.24-2.56-4.33-3.84-6.25A36.41,36.41,0,0,1,100.47,158.64Zm-9.75-45,.46-11.24c.15.24.31.48.47.7a10.73,10.73,0,0,0,3.43,3Q92.92,110,90.72,113.68ZM83.4,127.43c1.15-1.6,2.29-3.24,3.44-5a.61.61,0,0,0,0,.12l-2.17,24.26c-.71-.75-1.44-1.48-2.18-2.19A80.86,80.86,0,0,0,85,134.13C85.18,132.81,84.51,130.39,83.4,127.43Zm7,31.47c-.54.32-1,.65-1.56,1l.13-3.29C89.5,157.38,90,158.15,90.41,158.9Zm-1.77,6.21.13-3.26c.78-.57,1.58-1.12,2.42-1.65.38.62.75,1.24,1.12,1.86a23.18,23.18,0,0,0-1.9,1.8l.78.92c.59-.54,1.2-1,1.82-1.53a96.25,96.25,0,0,1,5.51,11.32L90,207.32a77.47,77.47,0,0,1-5.64,7ZM108,80.64q-3-6.21-5.83-12.57a33.61,33.61,0,0,0,4,.22,21.31,21.31,0,0,0,2.36-.14,21,21,0,0,0,2.35.14c1,0,2-.05,2.88-.12C111.9,72.38,110,76.53,108,80.64ZM69,191.39l-1.38-22.16c-.09-.31-.21-2-.37-4.67,5-1.91,10.49-6.5,14.36-17.14.68.72,1.35,1.45,2,2.2l.77.91L84,154.77l-.93,9.7a32.75,32.75,0,0,0-5.73,7.42,35.26,35.26,0,0,0-4.44,17.57,40,40,0,0,0,.52,6.21,38.5,38.5,0,0,0,1.7,6.72,48.32,48.32,0,0,0,3,6.86c.2.38.43.75.64,1.13v4.25a42.64,42.64,0,0,1-8.25-4.72Zm37.14,28.84h-.52l-.87-.14a11.24,11.24,0,0,0,1.42-1.16c.72-.08,1.44-.13,2.16-.18-.63,0-1.25-.06-1.88-.08a11,11,0,0,0,1.06-1.27,15.27,15.27,0,0,0,1-1.73,13.9,13.9,0,0,0,1,1.73,10.86,10.86,0,0,0,1.06,1.26c-.78,0-1.56.05-2.33.09.89.06,1.79.14,2.68.24a10.81,10.81,0,0,0,1.63,1.3c-.7,0-1.4-.07-2.13-.07s-1.47,0-2.18.06c.8.05,1.57.13,2.33.24a35.85,35.85,0,0,1-3.62-.13c.43-.05.85-.08,1.29-.11Q107.26,220.23,106.15,220.23Zm35.46-23.85c-3.7-3.94-7.43-6-9.25-5.19-3.68,1.66,2.88,13.82-3.49,22.08a13.74,13.74,0,0,1-2.17,2.21l2.06-6.57-2.85,7.19-.31.22a9.69,9.69,0,0,1-1.95-.6,7.3,7.3,0,0,1-3.07-2.42,9.22,9.22,0,0,1-1.43-3.46,21.41,21.41,0,0,1-.4-4.18h-1.56a24,24,0,0,0,.45,4.64,11.1,11.1,0,0,0,1.64,4,8.24,8.24,0,0,0,3.26,2.81,7.47,7.47,0,0,0,1,.41,24,24,0,0,1-5,1.89c-.85-.19-1.72-.36-2.62-.49a9,9,0,0,1-2.28-3.31,18.26,18.26,0,0,1-1.18-5c-.17-1.83-.26-3.57-.26-5.22,0-1.12,0-2.24.08-3.36L118,193l13.55-28.51q10.57,9.7,10.58,26.07A32.85,32.85,0,0,1,141.61,196.38Zm-14-32.15c.05-.5.09-1,.11-1.51s0-.87,0-1.32l.88.64Zm.11-4.71c0-.67-.07-1.35-.12-2.05a65.37,65.37,0,0,1,5.92-7.85c.62-.7,1.25-1.39,1.89-2.08l-6.09,13C128.79,160.21,128.26,159.86,127.71,159.52Zm10.6-18.21a80.42,80.42,0,0,0-6.69,6.36c-1.71,1.82-3.26,3.6-4.65,5.32a33.71,33.71,0,0,0-1-3.9l2.55-8.35a29.7,29.7,0,0,0,7.59-8.65c.51.66,1,1.32,1.53,1.95.88,1.09,1.75,2.11,2.63,3.12ZM146.36,91c.49-.79,1-1.57,1.49-2.34,1.07.64,2.16,1.24,3.26,1.81l0,.11C149.6,90.61,148,90.75,146.36,91Zm5.29-2.4c-.9-.52-1.8-1-2.69-1.62,1.7-2.54,3.44-4.9,5.2-7.13ZM134.69,7a43.34,43.34,0,0,1,16,9.34,73.79,73.79,0,0,1,8.12,8.43L139.26,79.31a78.42,78.42,0,0,1-5.75-5.93,60.8,60.8,0,0,1-6.79-9.27,34.25,34.25,0,0,0,17.5-30.56,40,40,0,0,0-.52-6.21,37.94,37.94,0,0,0-1.7-6.73,48.72,48.72,0,0,0-3-6.85,31.28,31.28,0,0,0-4.57-6.47Zm-22.21,5.36a18.26,18.26,0,0,1,1.18-5,9,9,0,0,1,2.81-3.79,7.3,7.3,0,0,1,5.16-1.5,18.64,18.64,0,0,1,4.23.87,14,14,0,0,1,3.87,1.87H127.9a12.1,12.1,0,0,0-5.36,1,8.32,8.32,0,0,0-3.26,2.81,11.22,11.22,0,0,0-1.64,4.05,24,24,0,0,0-.45,4.64h1.56a21.41,21.41,0,0,1,.4-4.18,9.15,9.15,0,0,1,1.43-3.46,7.3,7.3,0,0,1,3.07-2.42,12.59,12.59,0,0,1,5.16-.91h1.57a5.11,5.11,0,0,1,1.57.26,33.9,33.9,0,0,1,3.65,4.77,39.81,39.81,0,0,1,3.27,6.2,46.43,46.43,0,0,1,2.35,7.18,32.77,32.77,0,0,1,.91,7.71q0,20.25-16.19,30.3c-.38-.61-.75-1.23-1.12-1.85a23.18,23.18,0,0,0,1.9-1.8l-.78-.92c-.59.54-1.2,1-1.81,1.53A97,97,0,0,1,116,41.12a76.4,76.4,0,0,1-3.73-23.51C112.22,16,112.31,14.21,112.48,12.39Zm-3.91,23q1.26,4.13,2.94,8.2a101.4,101.4,0,0,0,5.42,11.24c1.42,2.54,2.85,4.87,4.27,7a36.1,36.1,0,0,1-3.43,2c.21-1.38.45-2.76.73-4.16h-.91L115.22,65a24.94,24.94,0,0,1-6.65,1.62,24.85,24.85,0,0,1-8-2.2c-.12-.26-.23-.53-.35-.79a17.74,17.74,0,0,0-1.41-6.35q.7-1.19,1.41-2.43a105.09,105.09,0,0,0,5.42-11.24C106.75,40.88,107.72,38.15,108.57,35.4ZM93.13,52.8c-5.25-1-11.71,1.65-13.27-2.74C69.19,20,103,38.52,97.81,22c-3.31-7.87-10.4,1.32-11.93-15.48a4.28,4.28,0,0,1,.87-.09h1.57a12.59,12.59,0,0,1,5.16.91,7.3,7.3,0,0,1,3.07,2.42A9.16,9.16,0,0,1,98,13.17a21.43,21.43,0,0,1,.39,4.18H100a24,24,0,0,0-.46-4.64,11.38,11.38,0,0,0-1.63-4.05,8.42,8.42,0,0,0-3.27-2.81,12.07,12.07,0,0,0-5.36-1H87.41a11.12,11.12,0,0,1,3.46-2,15.32,15.32,0,0,1,4.63-.72,8.08,8.08,0,0,1,5.16,1.5,8.93,8.93,0,0,1,2.81,3.79,18.26,18.26,0,0,1,1.18,5c.17,1.82.26,3.57.26,5.22a76.68,76.68,0,0,1-3.72,23.51A99.6,99.6,0,0,1,96.06,54a8.14,8.14,0,0,0-2.86-1.14M77.46,22.3a9.69,9.69,0,0,1-1,.51,44.89,44.89,0,0,1,1.82-5.2,39.81,39.81,0,0,1,3.27-6.2c.4-.62.81-1.2,1.21-1.76C82.05,15.38,80.54,20.21,77.46,22.3Zm-11-5.93A43.34,43.34,0,0,1,82.44,7l.26.26a31.66,31.66,0,0,0-4.57,6.47,48.72,48.72,0,0,0-3,6.85c-.33.94-.6,1.87-.85,2.8-3.54.42-6.77-1.87-11.39-3.67C64,18.57,65.22,17.44,66.44,16.37ZM42.54,86.58a18.83,18.83,0,0,1-2.61-5.82,24.4,24.4,0,0,1-.85-6.33,63.25,63.25,0,0,1,1.19-12,24.23,24.23,0,0,1,7,3.31c.57.38,1.13.78,1.69,1.19.14.82.29,1.66.44,2.54,1.73,10.14,1.93,11.21,1.15,13.07C49.3,85.6,46.87,87.18,44,88.32A13.23,13.23,0,0,1,42.54,86.58ZM52.6,190.38a92,92,0,0,1-9.8-20.31,66.36,66.36,0,0,1-3.72-21.49,24.53,24.53,0,0,1,.85-6.34,18.78,18.78,0,0,1,2.61-5.81c.06-.08.13-.16.19-.25a25.77,25.77,0,0,1,.28,3.31c-.07.12-.14.24-.2.36a9.54,9.54,0,0,0-1,4.31,7.94,7.94,0,0,0,1.26,4.42,19.46,19.46,0,0,0,3.62,10.29c1.78,2.47,5.73,6.77,8.5,6.75a48.65,48.65,0,0,0,6.86.12l4.37,40.9A77.78,77.78,0,0,1,52.6,190.38Zm18.1,21.73c1.15.71,2.3,1.37,3.45,2a46.75,46.75,0,0,0,4.62,2.15v3.87c-2.27,2.21-4.6,4.32-6.9,6.35ZM82.4,325.92l.36-14.85.79-.2a23.93,23.93,0,0,0,5.8-2.48Zm19.75-27.07L96,313.65,101.18,297C101.5,297.57,101.81,298.16,102.15,298.85Zm.41-23.82c-.79-.77-1.86-1.86-2.93-3l-.1-.12c-.89-1.68-1.89-3.31-2.91-4.92-1.94-4.8-2.67-10.86-4.37-17a5.48,5.48,0,0,0,0-.57,5,5,0,0,0-1.12-3.26L98,230.27c7.37-5.1,17.11-7.44,23.92-4.8l.25.11ZM143,140.42l.14-.11q1.83,1.92,3.66,3.59a42,42,0,0,0,9,6.47,18.81,18.81,0,0,0,8.62,2.28,10.24,10.24,0,0,0,7.12-2.41,7.87,7.87,0,0,0,2.67-6.08,9.54,9.54,0,0,0-1-4.31,15.06,15.06,0,0,0-2.55-3.59,17.18,17.18,0,0,0-3.53-2.81,20.29,20.29,0,0,0-3.92-1.83v.79a8.13,8.13,0,0,1,3.59,4.37,15.76,15.76,0,0,1,1.12,5.55,5.52,5.52,0,0,1-1.77,4.25,6.54,6.54,0,0,1-4.64,1.63,16.75,16.75,0,0,1-8.88-2.87,54.23,54.23,0,0,1-8-6.23,58,58,0,0,1,9-5.75A22.81,22.81,0,0,1,164,130.55a11.64,11.64,0,0,1,6.2,1.64,14,14,0,0,1,4.44,4.24,19,19,0,0,1,2.62,5.81,25,25,0,0,1,.84,6.34,66.36,66.36,0,0,1-3.72,21.49,92.46,92.46,0,0,1-9.79,20.31,77.82,77.82,0,0,1-13.85,16.26c-.54.48-1.08.93-1.63,1.37a39.78,39.78,0,0,0-5.86-9.8c.2-.85.37-1.7.5-2.54a40,40,0,0,0,.52-6.21,35.16,35.16,0,0,0-4.44-17.57,33.17,33.17,0,0,0-7.48-9l6.57-13.82,2.77-7.48C142.09,141.18,142.53,140.79,143,140.42Zm-2.25-5.28c-1.32-1.43-2.59-2.92-3.81-4.45,2.06-3.71,3.87-7.89,6.89-12.9Zm36.48-54.38a19.09,19.09,0,0,1-2.62,5.82,14.15,14.15,0,0,1-4.44,4.24,11.64,11.64,0,0,1-6.2,1.63,16.74,16.74,0,0,1-2.43-.17c-1.11-.93-3.17-1.5-5.88-1.7-.66-.28-1.33-.59-2-.93l1.48-11.05c.65-.81,1.31-1.59,2-2.36a59.64,59.64,0,0,1,11.62-10.51,23.41,23.41,0,0,1,8.09-3.56,62.73,62.73,0,0,1,1.24,12.26A24.82,24.82,0,0,1,177.21,80.76Z"/><path class="cls-1" d="M163.59,98.09c-7.06.92-11.91,20.07-7.88,22.8,3.59,2.43,18-5.55,16.58-14.51C171.61,102.07,167.26,97.61,163.59,98.09Z"/></g></g></svg>