<svg xmlns="http://www.w3.org/2000/svg" viewBox="0 0 115.52 461.52"><defs><style>.cls-1{fill:#d2d2d2;}.cls-2{fill:#bc754c;}</style></defs><title>beyondlogo</title><g id="Layer_2" data-name="Layer 2"><g id="Layer_5" data-name="Layer 5"><path class="cls-1" d="M64.65,460.38a21.42,21.42,0,0,0-2-5.93c-.09-.19-.19-.37-.29-.55l0,0c-.3-.08-.61-.18-.91-.28a20.43,20.43,0,0,1-3.79-1.7c-.19-.11-.38-.22-.56-.34-.18.12-.37.23-.57.34a19.85,19.85,0,0,1-3.81,1.67l-.91.28,0,.06c-.1.17-.19.34-.28.52a21.51,21.51,0,0,0-2,5.91l-.1.52-1.46-.37L48,460a22.07,22.07,0,0,1,1.69-5.7l-1,.16a29.18,29.18,0,0,1-3.9.27h-.1a23.89,23.89,0,0,1-10.85-2.57,28.87,28.87,0,0,1-8.62-6.65,32.1,32.1,0,0,1-5.7-9.27,27.76,27.76,0,0,1-2.05-10.47c0-1.33,0-2.52.11-3.52s.15-1.95.26-2.8.25-1.61.4-2.32.3-1.35.47-2c-.08-.55-.17-1.07-.26-1.56s-.2-1.07-.29-1.61-.14-1.15-.18-1.82-.06-1.43-.06-2.29a7.89,7.89,0,0,1,.32-2.51,1.62,1.62,0,0,1,3-.18,5,5,0,0,1,.32,1.95,11.2,11.2,0,0,1-.11,1.55c-.06.5-.16,1.06-.3,1.69s-.27,1.29-.42,2.05-.3,1.62-.46,2.67a13,13,0,0,0,3.19,5.63,37.87,37.87,0,0,0,5.93,5.09c2.29,1.62,4.86,3.24,7.61,4.8s5.61,3.23,8.34,4.89c1.37.83,2.76,1.73,4.16,2.68a24.33,24.33,0,0,1-.16-2.84,29.72,29.72,0,0,1,2.18-11.23,5.51,5.51,0,0,1-1.23-3.74,9.57,9.57,0,0,1,1.18-4.41A17.3,17.3,0,0,1,53,413.59a23.79,23.79,0,0,0-3.59-2.34A19.4,19.4,0,0,0,40.23,409h0a18.05,18.05,0,0,0-3.74.36,8.46,8.46,0,0,0-3,1.24,6.23,6.23,0,0,0-2,2.29,7.65,7.65,0,0,0-.76,3.57,10,10,0,0,0,1.28,5,12.54,12.54,0,0,0,3.53,3.92,17.74,17.74,0,0,0,5.23,2.58,21.47,21.47,0,0,0,6.29.95h2.66v1.77H47.31a24,24,0,0,1-7.41-1.14A18.31,18.31,0,0,1,34,426.36a14.9,14.9,0,0,1-3.92-4.81,13.09,13.09,0,0,1-1.4-6.07,9.65,9.65,0,0,1,1-4.44,9.16,9.16,0,0,1,2.59-3.14A11.24,11.24,0,0,1,36,406.05a15.39,15.39,0,0,1,4.32-.6,18.14,18.14,0,0,1,8.48,2.34,28.4,28.4,0,0,1,5.63,4l.32-.35c.37-.41.77-.81,1.18-1.22a38.59,38.59,0,0,0-3.86-3.38c-1.54-1.18-3-2.2-4.21-3A145.67,145.67,0,0,0,34.1,396c-5-2.52-10.32-5-15.69-7.38l-.3-.13V387.1l.6.13a36,36,0,0,0,7.19.78h.21a51.87,51.87,0,0,0,6-.35c2.07-.25,4.17-.51,6.28-.8s4.15-.56,6.23-.8a51.7,51.7,0,0,1,6.12-.36H51c.77,0,1.52,0,2.27,0h.28c-1.3-.61-2.78-1.3-4.43-2.05-2.46-1.13-5.09-2.42-7.84-3.85q-2.35-1.23-4.7-2.6l-.82.7-.33-.31a12.42,12.42,0,0,1-1.87-2.24l-.48-.3a58.28,58.28,0,0,1-7.37-5.53,29.49,29.49,0,0,1-5.36-6.19,12.69,12.69,0,0,1-2.09-6.87,9.06,9.06,0,0,1,.21-1.73,7,7,0,0,1,.63-1.71,4.06,4.06,0,0,1,1.16-1.37,3,3,0,0,1,1.81-.56h.06a31.24,31.24,0,0,1-2.52-4.49,14.62,14.62,0,0,1-1.38-6c0-3.48,1.05-6.13,3.09-7.88a11.94,11.94,0,0,1,8-2.6,24.86,24.86,0,0,1,8,1.36A37.52,37.52,0,0,1,44.78,335a44.1,44.1,0,0,1,6.36,4.76v-.57l2.18-1.41-31.9-20.92c-2.66-1.92-5.27-3.92-7.76-6A55.06,55.06,0,0,1,7,304.43a31.33,31.33,0,0,1-4.71-7.25A19.08,19.08,0,0,1,.5,289,16.82,16.82,0,0,1,1,284.88a11.28,11.28,0,0,1,1.64-3.58,8.56,8.56,0,0,1,2.81-2.51,8.07,8.07,0,0,1,3.95-.94,7.83,7.83,0,0,1,3.33.7,7.59,7.59,0,0,1,2.43,1.77,7.79,7.79,0,0,1,1.52,2.55,8.57,8.57,0,0,1,.53,2.94,10,10,0,0,1-.55,3.13,11.77,11.77,0,0,1-1.27,2.71l-.25.38-1.32-.67.18-.43c.3-.72.58-1.45.82-2.18a6.63,6.63,0,0,0,.37-2.13,3.92,3.92,0,0,0-1.47-3A6.92,6.92,0,0,0,9,282.28a6.12,6.12,0,0,0-4.93,2.05,8.31,8.31,0,0,0-1.83,5.54,11.47,11.47,0,0,0,1.56,5.66,27.27,27.27,0,0,0,4.24,5.56,59.12,59.12,0,0,0,6,5.27c2.23,1.72,4.5,3.35,6.74,4.86s4.48,3,6.57,4.3l.61.4-.37-.38a47,47,0,0,1-4.47-5.18,33.52,33.52,0,0,1-3.33-5.45,12.46,12.46,0,0,1-1.33-5.33,6,6,0,0,1,1.44-4.41,5.44,5.44,0,0,1,4-1.4,11.41,11.41,0,0,1,5.15,1.63,67.21,67.21,0,0,1,6.34,3.93c2.26,1.55,4.64,3.26,7.07,5.08s4.82,3.51,7.13,5.06l.87.57a19,19,0,0,1,1.46-4.54,28.73,28.73,0,0,1,4.22-6.67l.27-.3A22,22,0,0,0,53.17,296a10.86,10.86,0,0,0-5.88-1.85h0a5.07,5.07,0,0,0-3,.82,2.76,2.76,0,0,0-1.1,2.47,8.3,8.3,0,0,0,.35,2.52,7.81,7.81,0,0,0,1,2.06A10.51,10.51,0,0,0,46,303.7c.58.54,1.19,1.07,1.8,1.57l.22.17-.2,1.58-.67-.44a15.66,15.66,0,0,1-4-3.85,9.24,9.24,0,0,1-1.72-5.6,4.74,4.74,0,0,1,1.92-4.21,7.07,7.07,0,0,1,4-1.21,10.06,10.06,0,0,1,3.49.65,11.56,11.56,0,0,1-1.48-3.11,12.78,12.78,0,0,1-.58-3.76A11.49,11.49,0,0,1,49,283.7a6,6,0,0,1,.29-1.25l.14-.35,1.5.15a13.26,13.26,0,0,1,.56-1.61,14.09,14.09,0,0,1,1.88-3.26,15.88,15.88,0,0,0-1.88-.14,8.13,8.13,0,0,1-4.32-1.1,7.56,7.56,0,0,1-2.84-3.47c-.76-1.65-1.51-3.29-2.27-4.92A19.71,19.71,0,0,0,40.48,265c-.1.13-.2.26-.31.38a7.19,7.19,0,0,1-2.66,1.95,9.07,9.07,0,0,1-3.67.69,12.69,12.69,0,0,1-6.09-1.54,17.73,17.73,0,0,1-4.81-3.8l-.09-.1a11.18,11.18,0,0,0-2,3.1A10.92,10.92,0,0,0,20,270a18.2,18.2,0,0,0,.66,4.69,16.09,16.09,0,0,0,2,4.53A11.71,11.71,0,0,0,26,282.63a8.31,8.31,0,0,0,4.7,1.33h0a6.33,6.33,0,0,0,3.94-1A3.88,3.88,0,0,0,36,279.66a7,7,0,0,0-.44-2.42,10.16,10.16,0,0,0-1.2-2.31,13.65,13.65,0,0,0-1.74-2.06,16.71,16.71,0,0,0-2-1.64l-.41-.29.9-1.26.41.3A16.74,16.74,0,0,1,36,274.74a11.67,11.67,0,0,1,1.7,6.32,7.37,7.37,0,0,1-1.92,5.49,6.37,6.37,0,0,1-4.6,1.84,8,8,0,0,1-4.87-1.83,19.76,19.76,0,0,1-4.18-4.51,25.5,25.5,0,0,1-3-6.07,20.15,20.15,0,0,1-1.14-6.6,23.2,23.2,0,0,1,.81-6.32,14.83,14.83,0,0,1,1.68-3.89,16.58,16.58,0,0,1-.75-1.6,14.14,14.14,0,0,1-1.16-5.52A10.33,10.33,0,0,1,20.24,246a5.18,5.18,0,0,1,4.36-2.38,4.52,4.52,0,0,1,3.07,1.12,3.81,3.81,0,0,1,1.3,3,2.94,2.94,0,0,1-.91,2.13l-.69.69-.16-1a1.45,1.45,0,0,0-.93-1.18,6.32,6.32,0,0,0-2.44-.42h0a3.21,3.21,0,0,0-2.49,1.09,4.16,4.16,0,0,0-1,2.9,9.71,9.71,0,0,0,1.15,4.86c.11.19.22.38.34.57a9.78,9.78,0,0,1,2.71-2.07,9.51,9.51,0,0,1,4.38-1,11.86,11.86,0,0,1,5.73,1.32A14.57,14.57,0,0,1,38.77,259c.34.4.67.82,1,1.27a7.37,7.37,0,0,0,.73-2.07,17,17,0,0,0,.32-3.36v-.5h1.77v.5a13.19,13.19,0,0,0,.9,5A11.05,11.05,0,0,0,46,263.66a11.88,11.88,0,0,0,3.89,2.48,12.65,12.65,0,0,0,2.53.69c.15-.31.32-.63.49-.95a21.32,21.32,0,0,1-1.86-5.29c-.14-.61-.25-1.27-.36-2.08-2-1.28-4.14-2.58-6.33-3.87-3.08-1.81-6.19-3.68-9.25-5.56a62.42,62.42,0,0,1-8.42-6.17,31,31,0,0,1-6.15-7.28,16.89,16.89,0,0,1-2.39-8.9,9.14,9.14,0,0,1,1.52-5.49,4.56,4.56,0,0,1,3.75-2.09,3.17,3.17,0,0,1,2.37.89,3,3,0,0,1,.87,2.16,2.47,2.47,0,0,1-.86,2,3.06,3.06,0,0,1-2,.65,2.54,2.54,0,0,1-1.86-.76,2.48,2.48,0,0,1-.66-1.15,1.75,1.75,0,0,0-.29.26,4.06,4.06,0,0,0-.65,1,4.64,4.64,0,0,0-.35,1.23,11.27,11.27,0,0,0-.1,1.14A12,12,0,0,0,21.06,232a15.69,15.69,0,0,0,3.33,4.41,37.51,37.51,0,0,0,5.37,4.15c2.09,1.36,4.44,2.83,7.17,4.49s5.32,3.29,7.75,4.76c2,1.21,3.91,2.45,5.7,3.7a35,35,0,0,1,1.09-8.58,36.87,36.87,0,0,1,2.93-7.7,33.87,33.87,0,0,1,2.18-3.63,1.84,1.84,0,0,0-.17-.22,25.59,25.59,0,0,0-7.32-6.16A17.64,17.64,0,0,0,41.9,225c-.3.87-.62,1.79-.94,2.77-1.64,4.92,1.65,10.95,3.42,14.19l0,0c.57,0,1.09,0,1.61-.05s1.3-.1,2-.18l.52-.06.15,1.69-.47.06c-.89.13-1.66.21-2.29.25l-.58,0a1.22,1.22,0,0,1,.12.95l-.1.22L45,245a1.39,1.39,0,0,1-.3,0,3.73,3.73,0,0,1-2.34-1.41,18,18,0,0,1-4-.72,15.53,15.53,0,0,1-4.65-2.35,11.23,11.23,0,0,1-3.23-3.76,10.49,10.49,0,0,1-1.18-5,10,10,0,0,1,.92-4.37,9.78,9.78,0,0,1,2.42-3.2,10.39,10.39,0,0,1,3.47-1.95l.38-.1c.83-5.22,3-9.08,6.38-11.16a24.82,24.82,0,0,1,3.25-1.59c.36-.15.77-.32,1.09-.48h-.39a21.93,21.93,0,0,0-3.09.28A24,24,0,0,0,36.07,212l-.44.23c-4.51,2.33-10.74,4.8-13.41,4.8a1.73,1.73,0,0,1-1.42-.49c-.64-.8.1-2.08,1.46-4.41a19.66,19.66,0,0,1,1.66-2.39c1.5-1.8,5.3-3.12,9.33-4.52,3.78-1.31,7.69-2.67,9.9-4.47,6.53-5.33,2.64-18.33.55-25.31-3.19-10.67-10-21.1-12.66-21.1l-.21,0c-2.16.6-.9,10.5-.07,17.05,1,8,1.24,10.8-.08,11.06h-.16c-3.79,0-15.39-40.25-16-44.27-.07-.54-.18-1.28.38-1.44l.07,0h.09c.53,0,.8.43,2.61,4.19a48.49,48.49,0,0,0,2.76,5.22c0-.65-.19-1.74-.3-2.47-.33-2.13-.47-3,.24-3.17h.13c1.21,0,2.9,5.58,3,5.82a38,38,0,0,1,1.25,6.19c0,.22.06.44.09.64a19.65,19.65,0,0,0,.42-2,17.2,17.2,0,0,0,0-5.54,18.47,18.47,0,0,0-1.17-4c-1.66-3.94-5.15-8-7.45-10.74s-3.06-3.59-2.45-4.22a.81.81,0,0,1,.61-.23c1.37,0,5.41,2.35,8.35,5.27a25.76,25.76,0,0,1,3.56,4.44,75,75,0,0,1,5.09,9.19,58.23,58.23,0,0,0,2.87,5.46,43.73,43.73,0,0,0,7.23,9.05c-.1-.17-.2-.34-.29-.52a71.67,71.67,0,0,1-4.32-8.76,40.54,40.54,0,0,1-3-9.71c-.59-3.78-.35-6.45.79-13.64C37.58,111.61,38.29,108,39.61,108c.93.06,1.08,1.37,1.39,4.59.16,1.71.53,5.71,1.23,5.79h0c.23,0,.75-1.21,1.1-2A25.58,25.58,0,0,1,49,107.59l.83-.79A7.4,7.4,0,0,0,52,104c.73-1.88.24-3.64-.73-7.14a17.68,17.68,0,0,0-1.16-3.3,6.6,6.6,0,0,0-.44,2,8.52,8.52,0,0,0,.53,3.45,4.94,4.94,0,0,1,.17,3.55l-.07.21a2.52,2.52,0,0,1-1.3,1.71,1.68,1.68,0,0,1-.63.12,5.16,5.16,0,0,1-2.81-1.48c-1-.76-2-1.55-2.92-1.55l-.28,0c-.67.12-1,.63-2.13,2.55-.34.59-.76,1.3-1.28,2.14-2.88,4.69-4,6.33-5.25,6.37-1.66,0-3.11-3.47-4-9.52-1.09-7.36-.52-12.31.15-18a112.13,112.13,0,0,0,.93-12.47,38.31,38.31,0,0,0-.44-7.25,41.18,41.18,0,0,1-.46-7.68c.11-11.9,2.79-25.66,4.45-25.66.78.08.75.63.58,4.22-.16,3.38-.44,9-.16,17,.11,3.1.24,5,.36,6.75a73.23,73.23,0,0,1,.23,7.62c-.08,3.7-.25,5.71-.48,8.25-.16,1.87-.35,4-.55,7.29-.52,8.47-1.29,21.27.71,21.67h0c.59,0,1.71-1,3.2-3.62,2.49-4.46,2-9.06,1.76-11.53-.13-1.35-.2-2,.44-2.15h.12c.74,0,1.21,1,3.39,7.27.69,2,1.57,4.51,2.15,5.78A90.62,90.62,0,0,0,45,90.39c-1.38-9.84-2.41-15.9-2.42-16l-.17-1c-1.07-6.25-1.66-9.69.53-11.1A3.73,3.73,0,0,1,45,61.81l.67,0h.67a3.72,3.72,0,0,0,2.32-.64,4.4,4.4,0,0,0,1.78-3,1.11,1.11,0,0,0-.21-.89.47.47,0,0,0-.37-.12,5.56,5.56,0,0,0-.9.14,9.81,9.81,0,0,1-1.93.23,7.1,7.1,0,0,1-1.38-.14A7.92,7.92,0,0,1,40.89,54c-1.13-1.62-1.25-3-1.35-7a88.68,88.68,0,0,1,.05-10.61,48.17,48.17,0,0,1,2-8.87c1.36-4.22,2.26-7,4-7.06S49,23.26,49.3,25.82s-.68,4.3-1.75,6.17c-.41.72-.84,1.46-1.22,2.29a19.94,19.94,0,0,0-.36,15,3,3,0,0,0,.73,1.11,23,23,0,0,0,1.81-3.11,68.73,68.73,0,0,0,3.18-6.76c1.23-3.37,1.94-17.18-3.91-36.25l-.68-2.2,1.53,1.72c5.7,6.42,9,13.12,9.84,19.92.89-6.79,4.25-13.47,10-19.84L70,2.14l-.69,2.2c-6,19-5.41,32.83-4.21,36.21a65.43,65.43,0,0,0,3.12,6.79A23,23,0,0,0,70,50.48a3.59,3.59,0,0,0,.73-1.12,19.91,19.91,0,0,0-.24-15c-.38-.84-.79-1.58-1.2-2.3-1-1.88-2-3.65-1.7-6.18s1.95-5.4,3.68-5.4,2.71,2.87,4,7.1a48,48,0,0,1,1.92,8.88,88.71,88.71,0,0,1,0,10.61c-.13,4-.27,5.39-1.41,7A7.85,7.85,0,0,1,71,57.5a6.49,6.49,0,0,1-1.32.13,9.6,9.6,0,0,1-2-.25,5.5,5.5,0,0,0-.91-.14.48.48,0,0,0-.36.11,1.17,1.17,0,0,0-.21.89,4.36,4.36,0,0,0,1.75,3,3.8,3.8,0,0,0,2.4.67h1.18a3.84,3.84,0,0,1,2.18.53c2.19,1.43,1.57,4.88.45,11.13l-.18,1c0,.25-1.1,6.2-2.55,15.94a94.41,94.41,0,0,0-1.18,10.25c.59-1.26,1.5-3.79,2.2-5.76,2.23-6.23,2.71-7.24,3.45-7.24H76c.64.14.57.81.42,2.16-.27,2.47-.78,7.06,1.67,11.54,1.47,2.7,2.59,3.66,3.11,3.66,2.08-.4,1.4-13.21,1-21.68-.18-3.3-.35-5.42-.5-7.29-.2-2.54-.36-4.55-.4-8.25a71.39,71.39,0,0,1,.28-7.62c.13-1.71.28-3.65.42-6.75.34-8,.11-13.66,0-17.05-.15-3.59-.17-4.14.55-4.21h0c1.72,0,4.28,13.78,4.31,25.69a42.94,42.94,0,0,1-.53,7.68,38.29,38.29,0,0,0-.5,7.24,112.33,112.33,0,0,0,.83,12.48c.62,5.74,1.16,10.7,0,18.05-1,6-2.42,9.49-4.05,9.49-1.3,0-2.4-1.7-5.24-6.41-.51-.84-.92-1.55-1.26-2.15-1.12-1.94-1.44-2.45-2.11-2.57a1.53,1.53,0,0,0-.3,0c-1,0-2,.78-2.92,1.53a5.16,5.16,0,0,1-2.8,1.46,1.61,1.61,0,0,1-.65-.13A2.53,2.53,0,0,1,66,102.87l-.07-.21a4.93,4.93,0,0,1,.2-3.55,8.28,8.28,0,0,0,.55-3.44,6.44,6.44,0,0,0-.41-2,16.65,16.65,0,0,0-1.19,3.28c-1,3.5-1.51,5.26-.79,7.14a7.28,7.28,0,0,0,2.14,2.81l.82.8a25.69,25.69,0,0,1,5.6,8.79c.34.81.85,2,1.08,2,.7-.08,1.11-4.07,1.28-5.78.33-3.22.5-4.53,1.39-4.58h0c1.35,0,2,3.66,4.37,19.27,1.08,7.21,1.3,9.87.68,13.66a40.66,40.66,0,0,1-3.08,9.68,70.66,70.66,0,0,1-4.39,8.72c-.1.19-.21.38-.31.55a43.9,43.9,0,0,0,7.32-9,61.45,61.45,0,0,0,2.92-5.43,73.89,73.89,0,0,1,5.16-9.15A25.62,25.62,0,0,1,92.87,132c2.95-2.88,7-5.2,8.39-5.2a.85.85,0,0,1,.62.23c.6.64-.24,1.61-2.49,4.21s-5.84,6.74-7.54,10.67a18.38,18.38,0,0,0-1.19,4,17.14,17.14,0,0,0,0,5.54c.12.75.27,1.45.41,2,0-.2.07-.42.1-.64a37.81,37.81,0,0,1,1.3-6.18c.07-.24,1.8-5.79,3-5.79h.14c.71.17.56,1.05.22,3.17-.12.73-.29,1.82-.32,2.48a49.58,49.58,0,0,0,2.8-5.21c1.82-3.69,2.12-4.16,2.64-4.16H101l.09,0c.56.17.45.89.37,1.41-.63,4.36-12.65,44.18-16.31,44.18h0l-.12,0c-1.31-.27-1.06-3.09,0-11.06.88-6.54,2.21-16.43.06-17.05a.71.71,0,0,0-.21,0c-2.72,0-9.56,10.38-12.83,21-2.15,7-6.15,19.94.35,25.32,2.19,1.82,6.09,3.21,9.86,4.55,4,1.43,7.81,2.78,9.3,4.59a20.49,20.49,0,0,1,1.64,2.41c1.33,2.33,2.07,3.62,1.42,4.42a1.72,1.72,0,0,1-1.39.48c-2.65,0-8.88-2.53-13.4-4.91l-.44-.23a23.79,23.79,0,0,0-7.65-2.81,20.94,20.94,0,0,0-3.17-.31h-.31l1.09.49a23.66,23.66,0,0,1,3.23,1.61c3.3,2.09,5.46,5.91,6.26,11.07a7.19,7.19,0,0,1,.94.24,10.41,10.41,0,0,1,3.46,2,9.78,9.78,0,0,1,2.39,3.22,10,10,0,0,1,.89,4.37,10.63,10.63,0,0,1-1.22,5A11.34,11.34,0,0,1,82,240.77a15.51,15.51,0,0,1-4.66,2.31,18.44,18.44,0,0,1-4.58.74,3.72,3.72,0,0,1-2.3,1.35,1.06,1.06,0,0,1-.31,0l-.24-.06-.16-.28a1.19,1.19,0,0,1,.14-1h-.06c-.63-.05-1.4-.14-2.29-.27l-.47-.06.16-1.69.51.07c.67.08,1.33.15,2,.19.36,0,.72,0,1.08,0h0c1.8-3.23,5.13-9.23,3.54-14.17q-.47-1.44-.9-2.73a17.75,17.75,0,0,0-6.7,2.1,25.33,25.33,0,0,0-7.36,6.1l-.18.22a36,36,0,0,1,2.16,3.65A37.22,37.22,0,0,1,64.21,245a35.55,35.55,0,0,1,1,8.57C67,252.31,69,251.08,71,249.89q3.65-2.17,7.78-4.69c2.69-1.61,5.11-3.1,7.21-4.44a37.83,37.83,0,0,0,5.4-4.11,15.94,15.94,0,0,0,3.37-4.38,12,12,0,0,0,1.18-5.36,8.35,8.35,0,0,0-.09-1.13,4.68,4.68,0,0,0-.34-1.24,4,4,0,0,0-.64-1,1.82,1.82,0,0,0-.29-.27,2.59,2.59,0,0,1-2.5,1.89,3.17,3.17,0,0,1-2-.66,2.46,2.46,0,0,1-.84-2,2.94,2.94,0,0,1,.88-2.16,3.18,3.18,0,0,1,2.34-.87,4.6,4.6,0,0,1,3.78,2.12,9.2,9.2,0,0,1,1.47,5.51,16.88,16.88,0,0,1-2.46,8.87A30.9,30.9,0,0,1,89,243.15a61.14,61.14,0,0,1-8.46,6.11c-3.06,1.85-6.19,3.69-9.3,5.49-2.18,1.26-4.32,2.54-6.35,3.81-.12.81-.24,1.48-.38,2.09a21.1,21.1,0,0,1-1.91,5.28c.17.32.33.63.48.94a12.57,12.57,0,0,0,2.54-.67,11.79,11.79,0,0,0,3.91-2.45A11,11,0,0,0,72.08,260a13,13,0,0,0,.94-5v-.5h1.76v.5a17.27,17.27,0,0,0,.29,3.37,7.52,7.52,0,0,0,.72,2.08c.33-.45.67-.88,1-1.28A14.82,14.82,0,0,1,81,255.83a11.89,11.89,0,0,1,5.64-1.27,9.54,9.54,0,0,1,4.47,1.05,10,10,0,0,1,2.7,2.09,6.42,6.42,0,0,0,.34-.56,9.68,9.68,0,0,0,1.2-4.85,4.16,4.16,0,0,0-1-2.91,3.15,3.15,0,0,0-2.47-1.11h0a6.16,6.16,0,0,0-2.43.4,1.46,1.46,0,0,0-.95,1.17l-.17,1-.68-.69a3,3,0,0,1-.89-2.15,3.82,3.82,0,0,1,1.32-3,4.53,4.53,0,0,1,3-1.1,5.18,5.18,0,0,1,4.38,2.42,10.31,10.31,0,0,1,1.63,6.1,14.33,14.33,0,0,1-1.21,5.51,15.45,15.45,0,0,1-.76,1.59,15.44,15.44,0,0,1,1.65,3.91,23.36,23.36,0,0,1,.75,6.32,19.94,19.94,0,0,1-1.19,6.6,25.59,25.59,0,0,1-3.07,6A19.26,19.26,0,0,1,89,286.8a8,8,0,0,1-4.82,1.8,6.41,6.41,0,0,1-4.65-1.88,7.41,7.41,0,0,1-1.87-5.5,11.76,11.76,0,0,1,1.75-6.32A17,17,0,0,1,84,270.18l.41-.29.9,1.27-.42.29a15.67,15.67,0,0,0-2,1.62,14.08,14.08,0,0,0-1.75,2,10.39,10.39,0,0,0-1.22,2.3,6.74,6.74,0,0,0-.45,2.42,3.87,3.87,0,0,0,1.25,3.29,6.32,6.32,0,0,0,3.94,1.05h0a8.44,8.44,0,0,0,4.71-1.29,11.55,11.55,0,0,0,3.39-3.36,16.12,16.12,0,0,0,2-4.52,17.77,17.77,0,0,0,.7-4.68,11.08,11.08,0,0,0-.83-4.34,11.33,11.33,0,0,0-2-3.12l-.09.09a18.08,18.08,0,0,1-4.84,3.77,12.57,12.57,0,0,1-6,1.49,9.33,9.33,0,0,1-3.78-.72,7.31,7.31,0,0,1-2.65-2l-.3-.39a21.46,21.46,0,0,0-1.57,2.74l-2.3,4.91a7.64,7.64,0,0,1-2.87,3.44A8.14,8.14,0,0,1,64,277.29h0a15.79,15.79,0,0,0-1.94.12A14.57,14.57,0,0,1,64,280.69a13.22,13.22,0,0,1,.54,1.61l1.5-.14.14.35a6.25,6.25,0,0,1,.28,1.26,10.23,10.23,0,0,1,.12,1.78,12.45,12.45,0,0,1-.6,3.76,11.79,11.79,0,0,1-1.58,3.2,10.21,10.21,0,0,1,3.69-.72A7.08,7.08,0,0,1,72.13,293,4.76,4.76,0,0,1,74,297.26a9.26,9.26,0,0,1-1.77,5.58,15.6,15.6,0,0,1-4,3.82l-.68.44-.19-1.58.22-.18c.62-.49,1.23-1,1.82-1.55a10.57,10.57,0,0,0,1.49-1.72,8.11,8.11,0,0,0,1-2.05,8.61,8.61,0,0,0,.37-2.52A2.81,2.81,0,0,0,71.17,295a5.14,5.14,0,0,0-3-.84A10.94,10.94,0,0,0,62.3,296,22.74,22.74,0,0,0,59,298.54a4,4,0,0,1,.27.31,28.4,28.4,0,0,1,4.17,6.7,18.89,18.89,0,0,1,1.42,4.55l.88-.57c2.33-1.53,4.74-3.22,7.17-5s4.84-3.5,7.11-5a71.68,71.68,0,0,1,6.37-3.87A11.47,11.47,0,0,1,91.52,294a5.49,5.49,0,0,1,4,1.43A6.06,6.06,0,0,1,97,299.89a12.18,12.18,0,0,1-1.37,5.32,33.43,33.43,0,0,1-3.37,5.43,48.1,48.1,0,0,1-4.51,5.14l-.37.37.61-.39c2.1-1.31,4.33-2.74,6.6-4.24s4.54-3.11,6.78-4.81a57.22,57.22,0,0,0,6-5.23,26.77,26.77,0,0,0,4.29-5.52,11.48,11.48,0,0,0,1.61-5.65,8.28,8.28,0,0,0-1.79-5.55,6.12,6.12,0,0,0-4.91-2.1h0a7,7,0,0,0-4.75,1.35,3.92,3.92,0,0,0-1.5,2.95,6.93,6.93,0,0,0,.35,2.13c.24.73.51,1.47.8,2.19l.18.43-1.33.65-.24-.37a12.28,12.28,0,0,1-1.25-2.72,10,10,0,0,1-.52-3.14,8.5,8.5,0,0,1,.55-2.93,7.48,7.48,0,0,1,4-4.3,7.77,7.77,0,0,1,3.25-.66,8.08,8.08,0,0,1,4,1,8.49,8.49,0,0,1,2.79,2.54,11,11,0,0,1,1.61,3.6,15.89,15.89,0,0,1,.51,4.15,19.13,19.13,0,0,1-1.82,8.14,31.14,31.14,0,0,1-4.77,7.2,53.89,53.89,0,0,1-6.75,6.44c-2.51,2-5.13,4-7.79,5.89L61.8,337.83,64,339.27v.38a45.23,45.23,0,0,1,6.2-4.54,37,37,0,0,1,7.48-3.47,24.64,24.64,0,0,1,7.84-1.3c3.46,0,6.18.91,8.18,2.66s3,4.43,3,7.91a14.6,14.6,0,0,1-1.43,6,30.37,30.37,0,0,1-2.56,4.48h.23a3,3,0,0,1,1.84.58,4.09,4.09,0,0,1,1.15,1.38,7.22,7.22,0,0,1,.61,1.71,7.63,7.63,0,0,1,.19,1.73,12.54,12.54,0,0,1-2.13,6.86,30.19,30.19,0,0,1-5.41,6.14,59.37,59.37,0,0,1-7.42,5.47l-.83.52a13,13,0,0,1-1.74,2l-.33.31-.74-.64c-1.53.88-3.07,1.71-4.6,2.49-2.75,1.41-5.4,2.68-7.87,3.79q-2.49,1.11-4.44,2h.28c.62,0,1.25,0,1.89,0h.37a51.14,51.14,0,0,1,6.34.41c2.08.26,4.15.54,6.23.85s4.2.58,6.26.85a53.4,53.4,0,0,0,6.22.4h.13a37,37,0,0,0,7.07-.72l.6-.12v1.38l-.31.13c-5.38,2.33-10.68,4.77-15.74,7.25a144.13,144.13,0,0,0-13.81,7.69c-1.26.83-2.68,1.85-4.23,3a38.61,38.61,0,0,0-3.89,3.35c.41.41.81.82,1.18,1.23l.31.36a28,28,0,0,1,5.67-4,18,18,0,0,1,8.37-2.28,15.57,15.57,0,0,1,4.44.64,11.27,11.27,0,0,1,3.71,1.87,9.2,9.2,0,0,1,2.57,3.17,9.82,9.82,0,0,1,1,4.45,13.26,13.26,0,0,1-1.44,6.05,14.84,14.84,0,0,1-4,4.78,18.5,18.5,0,0,1-6,3.11,24,24,0,0,1-7.3,1.07H64.73V429H67.4a21.4,21.4,0,0,0,6.29-.9A18,18,0,0,0,79,425.52a12.51,12.51,0,0,0,3.55-3.89,9.88,9.88,0,0,0,1.32-5,7.74,7.74,0,0,0-.72-3.58,6.23,6.23,0,0,0-2-2.3,8.45,8.45,0,0,0-3-1.27,17.79,17.79,0,0,0-3.73-.38h0a19.37,19.37,0,0,0-9.17,2.19,24.31,24.31,0,0,0-3.61,2.31A18,18,0,0,1,63,416a9.6,9.6,0,0,1,1.14,4.42,5.48,5.48,0,0,1-1.26,3.73A29.42,29.42,0,0,1,65,435.36a22.17,22.17,0,0,1-.18,2.83c1.4-.94,2.81-1.83,4.18-2.65,2.76-1.64,5.57-3.27,8.38-4.83A89.43,89.43,0,0,0,85,426a37.58,37.58,0,0,0,6-5.05,12.92,12.92,0,0,0,3.24-5.6q-.24-1.57-.45-2.67c-.14-.76-.28-1.44-.4-2.06s-.22-1.19-.28-1.68a11.57,11.57,0,0,1-.1-1.56,4.72,4.72,0,0,1,.34-1.94,1.61,1.61,0,0,1,3,.2,7.72,7.72,0,0,1,.3,2.52c0,.86,0,1.63-.07,2.28s-.12,1.28-.2,1.82-.19,1.07-.3,1.61-.19,1-.27,1.56q.24,1,.45,2c.14.71.27,1.49.37,2.33s.19,1.78.25,2.79.09,2.19.08,3.52a27.64,27.64,0,0,1-2.14,10.46,31.92,31.92,0,0,1-5.77,9.22,28.87,28.87,0,0,1-8.68,6.58,23.85,23.85,0,0,1-10.75,2.49h-.11a29.3,29.3,0,0,1-4-.31l-1-.17a22.35,22.35,0,0,1,1.66,5.73l.06.45-1.47.36Zm-2.21-9.81a18,18,0,0,0,2.58.2h.13a34.46,34.46,0,0,0,6.72-.69A35,35,0,0,0,78.76,448a33.58,33.58,0,0,0,6.36-3.54,23.69,23.69,0,0,0,5.21-5A24.44,24.44,0,0,0,93.87,433,23.38,23.38,0,0,0,95.2,425c0-1.66,0-3.17-.1-4.5,0-.75-.12-1.5-.22-2.25a23.07,23.07,0,0,1-3.51,6,38.37,38.37,0,0,1-6.1,6,64.55,64.55,0,0,1-7.31,5c-2.55,1.49-5.18,3-7.83,4.42-2.2,1.19-4.39,2.43-6.69,3.77a21.51,21.51,0,0,1-2.63,4.76C61.37,448.92,61.92,449.73,62.44,450.57ZM19.6,418c-.1.75-.18,1.5-.23,2.25-.09,1.34-.14,2.85-.15,4.5a23.49,23.49,0,0,0,1.27,8A24.49,24.49,0,0,0,24,439.17a23.69,23.69,0,0,0,5.17,5,34.14,34.14,0,0,0,6.33,3.59A35.19,35.19,0,0,0,42.35,450a34.4,34.4,0,0,0,6.84.75h0a18.63,18.63,0,0,0,2.57-.19c.53-.83,1.08-1.64,1.66-2.41a21.53,21.53,0,0,1-2.59-4.78c-2.29-1.36-4.47-2.61-6.66-3.82-2.64-1.47-5.27-3-7.8-4.48a65.29,65.29,0,0,1-7.27-5,39.21,39.21,0,0,1-6.05-6A23.54,23.54,0,0,1,19.6,418Zm40.1,32c-.08-.09-.16-.19-.24-.27l-.15.14Zm-5.19,0,.41-.14-.15-.15C54.68,449.76,54.6,449.86,54.51,450Zm1.9-1.71a8.73,8.73,0,0,0,.71.51c.26-.17.5-.33.71-.5l-.71-.6Zm3.19-1.58a14.52,14.52,0,0,0,1.11-1.62c-.54.35-1.06.71-1.58,1.08Zm-6-1.64a15.69,15.69,0,0,0,1.09,1.61c.15-.18.31-.35.47-.52C54.61,445.75,54.09,445.39,53.56,445Zm-2-5.49,1.78,1.3a39.5,39.5,0,0,1,3.79,3.23A41.21,41.21,0,0,1,61,440.86l1.79-1.28a20,20,0,0,0,.47-4,28.49,28.49,0,0,0-1.71-9.83c0-.15-.11-.3-.17-.45a4.5,4.5,0,0,1-1.81.36,5.08,5.08,0,0,1-2.32-.53,5.12,5.12,0,0,1-2.28.51,4.5,4.5,0,0,1-1.85-.38c-.06.15-.12.3-.17.45a28.51,28.51,0,0,0-1.79,9.81A20,20,0,0,0,51.56,439.54Zm3.77-18.89a3.93,3.93,0,0,0,.79.41,8.67,8.67,0,0,0,1.1.33,7.91,7.91,0,0,0,1.12-.33,4.18,4.18,0,0,0,.79-.4,28.51,28.51,0,0,0-1.89-2.75A27.37,27.37,0,0,0,55.33,420.65ZM61,419.29c0-.1,0-.21,0-.32a7.48,7.48,0,0,0-1.19-3.87c-.42.4-.84.82-1.25,1.26a31,31,0,0,1,1.95,2.93Zm-7,0a33.94,33.94,0,0,1,2-2.92c-.41-.44-.82-.87-1.24-1.27a7.63,7.63,0,0,0-1.22,3.86c0,.11,0,.22,0,.33Zm2-6,.78.84c.18.19.36.39.53.6l.54-.61c.26-.28.52-.55.79-.82-.41-.54-.84-1.08-1.32-1.61C56.79,412.21,56.34,412.75,55.94,413.28Zm-25-20.57c2.07,1,4.2,2,6.31,3.11s4.21,2.22,6.22,3.36,3.84,2.25,5.41,3.28c2.24,1.49,4.31,3,6.14,4.49.8.65,1.57,1.32,2.3,2,.72-.66,1.5-1.32,2.31-2,1.85-1.47,3.93-3,6.18-4.44,1.57-1,3.4-2.1,5.43-3.23s4.12-2.24,6.25-3.32,4.25-2.1,6.34-3.05l2.08-1-.5.07a30.75,30.75,0,0,1-3.76.24H81.5a47.66,47.66,0,0,1-6.28-.41c-1.94-.26-3.85-.54-5.66-.85s-3.3-.54-4.88-.78a2.88,2.88,0,0,1,.1.78v.68l-.64-.2a10.22,10.22,0,0,1-1.37-.54,9.85,9.85,0,0,0-1.53-.55A21.15,21.15,0,0,0,59,390c-.47-.06-1-.12-1.72-.15s-1.09.07-1.53.13a20.46,20.46,0,0,0-2.26.43,8,8,0,0,0-1.53.53,9.49,9.49,0,0,1-1.38.53l-.64.19V391a2.76,2.76,0,0,1,.11-.77c-1.59.23-3.22.47-4.89.74s-3.73.56-5.66.8a48.25,48.25,0,0,1-6,.36h-.24a29,29,0,0,1-3.87-.27l-.5-.07Zm3.92-18.47c2.57,1.6,5.26,3.15,8,4.6,2.89,1.54,5.81,3,8.69,4.37,2.08,1,4,1.89,5.87,2.72,1.85-.81,3.82-1.71,5.92-2.68,2.89-1.33,5.82-2.78,8.71-4.3,2.62-1.37,5.21-2.82,7.7-4.33A16.74,16.74,0,0,0,81,372.36a11.38,11.38,0,0,0,1.12-4.8,17.29,17.29,0,0,0-.26-3.11,13.09,13.09,0,0,0-.58-2c-1.25.85-2.65,1.71-4.18,2.56a50.15,50.15,0,0,1-5.52,2.64,47.06,47.06,0,0,1-5.81,1.93,21.67,21.67,0,0,1-5.49.76,21.42,21.42,0,0,1-2.88-.19,22.4,22.4,0,0,1-2.77.17,21.44,21.44,0,0,1-5.64-.8,45.14,45.14,0,0,1-5.8-2,49.12,49.12,0,0,1-5.5-2.68c-1.52-.86-2.92-1.74-4.15-2.6a13.12,13.12,0,0,0-.6,2,17.14,17.14,0,0,0-.29,3.11,11.51,11.51,0,0,0,1.08,4.8A16.61,16.61,0,0,0,34.82,374.24ZM82.7,361.47a22.89,22.89,0,0,1,.76,2.42,14.28,14.28,0,0,1,.38,3.61,11.48,11.48,0,0,1-.34,2.66,16.31,16.31,0,0,1-.87,2.61,52.82,52.82,0,0,0,5.17-3.9,28.36,28.36,0,0,0,5-5.53,9.79,9.79,0,0,0,1.87-5.52,2.46,2.46,0,0,0-.33-1.47l-.18-.21a1.39,1.39,0,0,1-.63.41,3.38,3.38,0,0,1-1.07.18,2.35,2.35,0,0,1-1.72-.69,2.22,2.22,0,0,1-.65-1.3,39.59,39.59,0,0,1-3,3.09A42.36,42.36,0,0,1,82.7,361.47Zm-61.92-5.62-.18.21a2.48,2.48,0,0,0-.34,1.47,9.89,9.89,0,0,0,1.82,5.53,28.52,28.52,0,0,0,5,5.57A52.7,52.7,0,0,0,32,372.39a16.43,16.43,0,0,1-.78-2.44,12,12,0,0,1-.32-2.65,14.64,14.64,0,0,1,.42-3.62,23.45,23.45,0,0,1,.77-2.41,40.69,40.69,0,0,1-4.41-3.68,36.88,36.88,0,0,1-2.8-2.92,2.29,2.29,0,0,1-.62,1.1,2.35,2.35,0,0,1-1.71.68,3.25,3.25,0,0,1-1.09-.19A1.31,1.31,0,0,1,20.78,355.85ZM52,360.07a6.92,6.92,0,0,0-.33,2.1,3.43,3.43,0,0,0,.61,2.2,4,4,0,0,0,1.63,1.22,8.24,8.24,0,0,0,2.3.54l1.18.09c.3,0,.67,0,1-.07a8.68,8.68,0,0,0,2.31-.53,3.93,3.93,0,0,0,1.64-1.2,3.55,3.55,0,0,0,.63-2.2,7.23,7.23,0,0,0-.32-2.1l0-.13a5.59,5.59,0,0,1-.53,2,4.54,4.54,0,0,1-1.55,1.77,5.82,5.82,0,0,1-1.49.69v.4h-.5c-.39,0-.8,0-1.23-.07s-.85.06-1.24.06h-.5l0-.41a5.52,5.52,0,0,1-1.49-.7A4.6,4.6,0,0,1,52.59,362a5.86,5.86,0,0,1-.52-2A.5.5,0,0,1,52,360.07Zm10.54-3.34a9.89,9.89,0,0,1,1.53,2.4,7.81,7.81,0,0,1,.7,3.29,8.82,8.82,0,0,1-.65,3.46A37.25,37.25,0,0,0,70,364.53,46.17,46.17,0,0,0,80,360c-3.13-4.79-7.83-7.23-14-7.26l-.07-.5v.5a15.2,15.2,0,0,0-3.56.42c-.29.06-.57.14-.85.22A15.43,15.43,0,0,1,62.57,356.73Zm-27.83,3.13a46.55,46.55,0,0,0,10,4.57,37.42,37.42,0,0,0,5.85,1.4,8.7,8.7,0,0,1-.62-3.47,7.76,7.76,0,0,1,.72-3.29,10.16,10.16,0,0,1,1.55-2.39,15.59,15.59,0,0,1,1-3.3l-.84-.23a15.22,15.22,0,0,0-3.63-.44l-.09-.5v.5C42.58,352.71,37.89,355.11,34.74,359.86Zm19.14-2.42a1.71,1.71,0,0,0-.07.49v.76a5.41,5.41,0,0,0,.39,2.3,3.06,3.06,0,0,0,1,1.3,4.08,4.08,0,0,0,1.49.62c.22,0,.46.08.69.1a6.57,6.57,0,0,0,.66-.09,4,4,0,0,0,1.5-.61,3.15,3.15,0,0,0,1-1.28,5.77,5.77,0,0,0,.41-2.3V358a2,2,0,0,0-.06-.49,16.06,16.06,0,0,0-2.15-1.64c-.41-.27-.87-.54-1.36-.81-.49.26-.94.52-1.36.79A17.68,17.68,0,0,0,53.88,357.44Zm12.65-6.68A17.66,17.66,0,0,1,75.3,353a17.34,17.34,0,0,1,6.21,6.13,29.74,29.74,0,0,0,4-3A38.71,38.71,0,0,0,90,351.64a28.31,28.31,0,0,0,3.38-5.07,10.6,10.6,0,0,0,1.33-4.78A5.08,5.08,0,0,0,94,339a6.29,6.29,0,0,0-1.9-2,8.76,8.76,0,0,0-2.67-1.21,11.22,11.22,0,0,0-3-.41h-.11a31.74,31.74,0,0,0-10.17,1.74,44.37,44.37,0,0,0-9.77,4.66c-.84.54-1.66,1.1-2.44,1.69v1.27l-.89-.58a35.74,35.74,0,0,0-4.38,4.11,32.6,32.6,0,0,1,2,3.31l0,0a18.11,18.11,0,0,1,2.73-.63,19.42,19.42,0,0,1,3-.25ZM28.46,335.18a11.75,11.75,0,0,0-2.91.38,8.85,8.85,0,0,0-2.67,1.19,6.46,6.46,0,0,0-1.93,2,5.25,5.25,0,0,0-.73,2.75,10.58,10.58,0,0,0,1.29,4.79,28.25,28.25,0,0,0,3.35,5.09,38.66,38.66,0,0,0,4.39,4.56,30.72,30.72,0,0,0,4,3,17.29,17.29,0,0,1,6.26-6.07,17.54,17.54,0,0,1,8.7-2.19,20.69,20.69,0,0,1,3.18.27,18.19,18.19,0,0,1,2.72.66l0,0a34.75,34.75,0,0,1,2-3.29,36.71,36.71,0,0,0-4.26-4.08l-.78.5V343.6c-.84-.64-1.72-1.26-2.63-1.85A44.12,44.12,0,0,0,38.77,337a31.88,31.88,0,0,0-10.27-1.82l0-.5Zm31,18.93c.27.18.53.36.78.55-.1-.24-.2-.48-.31-.72Zm-4.52-.19c-.1.24-.21.48-.3.71.25-.19.5-.36.76-.54Zm.89-1.69c.53.21,1.07.46,1.61.72.54-.26,1.09-.5,1.63-.71a23.21,23.21,0,0,0-1.61-2.43A21.38,21.38,0,0,0,55.79,352.23Zm-1.61-9.49c1,1,1.83,2,2.64,3l.61.78.61-.78c.84-1,1.76-2.06,2.74-3.08l-3.23-2.12ZM22.51,298.19a2.24,2.24,0,0,0-1.8.55,2.2,2.2,0,0,0-.48,1.29,11.05,11.05,0,0,0,1.42,4.72,34.77,34.77,0,0,0,4,6,56.17,56.17,0,0,0,5.82,6.19,58.61,58.61,0,0,0,7,5.53l19.13,12.59,19.24-12.44a57.67,57.67,0,0,0,7.07-5.48A56.53,56.53,0,0,0,89.75,311a35.49,35.49,0,0,0,4-6,11,11,0,0,0,1.45-4.72,2.12,2.12,0,0,0-.46-1.28,2.2,2.2,0,0,0-1.82-.57A10.49,10.49,0,0,0,88.39,300a71.19,71.19,0,0,0-6.32,3.81c-2.27,1.53-4.68,3.21-7.14,5s-4.92,3.51-7.2,5c-1,.68-2,1.33-3.06,1.94a5.5,5.5,0,0,1-.94,1.82,5.39,5.39,0,0,1-4.44,1.72,6.93,6.93,0,0,1-1.66-.21,7,7,0,0,1-1.57.19,5.43,5.43,0,0,1-4.5-1.76,5.51,5.51,0,0,1-.92-1.81c-1-.61-2-1.27-3-2-2.29-1.55-4.7-3.26-7.17-5.09s-4.83-3.51-7.1-5.06a71.11,71.11,0,0,0-6.28-3.87,10.39,10.39,0,0,0-4.52-1.51l0-.5Zm29.56,12.87c1.43.88,2.77,1.64,4,2.27.53.28,1.06.52,1.58.74a17.48,17.48,0,0,0,1.61-.73c1.23-.62,2.58-1.38,4-2.24A16.13,16.13,0,0,0,62,306.55a24.38,24.38,0,0,0-3.65-5.95c-.21-.26-.42-.5-.64-.75-.22.24-.44.48-.65.74a24.18,24.18,0,0,0-3.69,5.92A15.92,15.92,0,0,0,52.07,311.06ZM57,296.42c.24.23.49.46.73.71.24-.24.48-.48.73-.71h-.34l-.41,0H57Zm-4.35-6.27a7,7,0,0,0,.75.66,9,9,0,0,0,2.52,1.37,9.21,9.21,0,0,0,1.71.42,9.06,9.06,0,0,0,1.75-.41,9.26,9.26,0,0,0,2.53-1.35,6.21,6.21,0,0,0,.77-.67,8.31,8.31,0,0,0,.66-3.48,7.89,7.89,0,0,0-1.14-4.43,9.22,9.22,0,0,0-2.93-2.9,12.93,12.93,0,0,0-1.57-.82,13.41,13.41,0,0,0-1.56.8,9.14,9.14,0,0,0-3,2.88A8,8,0,0,0,52,286.64,8.3,8.3,0,0,0,52.65,290.15Zm-.45-17.9a16,16,0,0,1,4,.87,13.31,13.31,0,0,1,1.55.69,11.3,11.3,0,0,1,1.57-.68,15.51,15.51,0,0,1,4-.84l-.21-.79a9.2,9.2,0,0,1-1,.06,9.71,9.71,0,0,1-4.27-.9,9.47,9.47,0,0,1-4.19.87,10.15,10.15,0,0,1-1.13-.06C52.34,271.73,52.27,272,52.2,272.25Zm12.56-1.07c.1.35.19.7.28,1.05a25.89,25.89,0,0,0,2.61-.11,5.19,5.19,0,0,0,1.64-.42,2.26,2.26,0,0,0,.92-.81,12.82,12.82,0,0,0,.89-1.64c.81-1.8,1.67-3.61,2.57-5.37l.32-.61c-.09-.22-.17-.44-.25-.67a11.19,11.19,0,0,1-.32-1.17,21.94,21.94,0,0,1-.81,2.12,17.36,17.36,0,0,1-2.47,4,12.26,12.26,0,0,1-3.55,2.89A8.59,8.59,0,0,1,64.76,271.18Zm-23.22-8c.11.21.22.41.32.62.87,1.74,1.72,3.55,2.53,5.39a13.94,13.94,0,0,0,.87,1.65,2.3,2.3,0,0,0,.91.81,4.92,4.92,0,0,0,1.64.43,24.79,24.79,0,0,0,2.61.14c.09-.35.19-.7.29-1.05a8.85,8.85,0,0,1-1.82-.76,12.31,12.31,0,0,1-3.53-2.93,17.33,17.33,0,0,1-2.44-4c-.3-.71-.57-1.42-.79-2.13a11.22,11.22,0,0,1-.33,1.17C41.72,262.71,41.63,262.93,41.54,263.14Zm35.94-.78a6.82,6.82,0,0,0,.64.39,6.9,6.9,0,0,0,3.17.65h0a19.29,19.29,0,0,0,5.19-.69A14.08,14.08,0,0,0,90.41,261a10.92,10.92,0,0,0-1.13-.58,9.33,9.33,0,0,0-3.66-.8l-.09-.5v.5a12.39,12.39,0,0,0-5.56,1.1A12.24,12.24,0,0,0,77.48,262.36Zm-52.33-1.63a14.3,14.3,0,0,0,3.91,1.76,19.3,19.3,0,0,0,5.19.73h0a7,7,0,0,0,3.17-.63c.22-.12.44-.25.65-.39a12.78,12.78,0,0,0-2.48-1.66A12.5,12.5,0,0,0,30,259.39l0-.5v.5a9.18,9.18,0,0,0-3.63.77A10.86,10.86,0,0,0,25.15,260.73Zm54-35.1a25.68,25.68,0,0,1-4.79,16.27,14.48,14.48,0,0,0,2.6-.54,12.92,12.92,0,0,0,4.13-2.08,9.62,9.62,0,0,0,2.67-3.19,8.75,8.75,0,0,0,1-4.08,5.35,5.35,0,0,0-.82-3,7.5,7.5,0,0,0-2.2-2.18A9.58,9.58,0,0,0,79.13,225.63Zm-43,0a9.07,9.07,0,0,0-2,1,7.38,7.38,0,0,0-2.21,2.17,5.33,5.33,0,0,0-.85,3,8.82,8.82,0,0,0,.94,4.09,9.81,9.81,0,0,0,2.64,3.2,13,13,0,0,0,4.12,2.13,14,14,0,0,0,2,.47,27.65,27.65,0,0,1-4.57-12.54A31.39,31.39,0,0,1,36.16,225.66Zm20.06,12.21a6.87,6.87,0,0,0,1.65,1,7.12,7.12,0,0,0,1.65-1c-.5-.55-1.05-1.11-1.65-1.66C57.28,236.77,56.72,237.32,56.22,237.87Zm-3.95-10.56a53.37,53.37,0,0,1,5,4.13l.65.64.66-.64a53.73,53.73,0,0,1,5-4.09l0-.9v-.25l.37-.26a24.19,24.19,0,0,1,5.78-3.09,18.43,18.43,0,0,1,2.65-.74c-.87-2.46-1.57-4.33-2.09-5.72-.24-.66-.43-1.16-.56-1.54-1.63,2.57-6,9.13-6.93,9.42l-.08,0h-.16a.66.66,0,0,1-.51-.24c-.3-.39-.16-1,.19-2.49.58-2.45,1.54-6.56.54-10.81-.4-1.68-.8-2.89-1.12-3.86a11.22,11.22,0,0,1-.64-2.44,7.21,7.21,0,0,1-2.88,2.79l-.21.11-.22-.09a7.13,7.13,0,0,1-3.25-2.9,11.1,11.1,0,0,1-.66,2.5c-.33,1-.74,2.17-1.15,3.85-1,4.24-.11,8.36.45,10.81.34,1.49.47,2.11.17,2.49a.63.63,0,0,1-.51.24h-.07l-.17,0c-1-.3-5.25-6.89-6.85-9.48-.14.38-.33.88-.58,1.53-.53,1.38-1.24,3.23-2.11,5.65a16.85,16.85,0,0,1,3.15.83,24.35,24.35,0,0,1,5.75,3.13l.37.28v.24C52.26,226.71,52.26,227,52.27,227.31Zm9.37-26.47q0,.33.06.66c.2-.49.18-.64.16-.69Zm-7.93,0c-.07,0-.1.18.08.66,0-.22,0-.43.07-.65Zm1.79-85.42c1.63,9.25.44,17.42-3.53,24.28a18.85,18.85,0,0,1-3.77,4.82,8.07,8.07,0,0,0-2.48,3.65c-1.91,5.22-.09,9.75,3.53,18.78,1.66,4.14,3.73,9.3,6,15.87.47,1.38.7,2.11.9,2.72s.41,1.32.91,2.69c.27.75.53,1.45.78,2.13.25-.67.52-1.38.79-2.12.51-1.38.7-1.95.94-2.69s.43-1.34.91-2.71c2.29-6.55,4.4-11.69,6.09-15.82,3.7-9,5.55-13.52,3.68-18.75a8.21,8.21,0,0,0-2.45-3.68A18.74,18.74,0,0,1,64,139.71c-3.92-6.9-5-15.07-3.34-24.3l.75-4,.24,4.11a26.39,26.39,0,0,0,8,17.6,27.15,27.15,0,0,0,5.73,4.12,36.42,36.42,0,0,0-5.52-16.81,27.5,27.5,0,0,0-4.46-5.25,15.68,15.68,0,0,1-4.23-5.69c-1-2.51-1.94-7.33,2.18-20a126.24,126.24,0,0,1,6.09-15.12c2.22-4.78,3.45-7.41,2-9a6.29,6.29,0,0,0-4.59-1.57,7.39,7.39,0,0,0-5.58,2.1c-1,1.17-1,2.54-.89,5,0,.85,0,1.81,0,2.92A50.94,50.94,0,0,1,58.7,86.3L58.25,88l-.51-1.66a41.3,41.3,0,0,1-1.88-12.47c0-1.23.08-2.28.13-3.21.14-2.29.23-3.67-.71-4.83-1.05-1.31-3.25-2.15-5.61-2.15a6.34,6.34,0,0,0-4.55,1.54c-1.45,1.56-.25,4.2,1.94,9a126.6,126.6,0,0,1,6,15.17c4,12.73,3.07,17.54,2,20a15.62,15.62,0,0,1-4.27,5.65,27.19,27.19,0,0,0-4.5,5.22,36.41,36.41,0,0,0-5.66,16.76A27.15,27.15,0,0,0,46.37,133a26.35,26.35,0,0,0,8.14-17.54l.28-4.11Zm2.94-85.25a47.4,47.4,0,0,1-1,4.91A33,33,0,0,0,56.19,48.1a28,28,0,0,0,2.11,8.39l0,.1,0-.1a28.22,28.22,0,0,0,2.18-8.37A33.27,33.27,0,0,0,59.45,35,44,44,0,0,1,58.44,30.13Z"/><path class="cls-2" d="M48.25,4.1c7,7.91,9.13,14.78,9.72,19.66,1.19,9.73-3.48,12.75-2.28,24.39A32.52,32.52,0,0,0,58.33,58a32.3,32.3,0,0,0,2.72-9.81C62.34,36.55,57.7,33.48,59,23.76c.64-4.87,2.8-11.72,9.88-19.57-5.77,18.27-5.62,32.54-4.2,36.53a67.89,67.89,0,0,0,3.15,6.85C69,49.85,69.59,51,70,51h0c1.53-.13,4.43-9.13,1-16.84-1.37-3.06-3.3-4.92-2.86-8.21.33-2.4,1.84-5,3.19-5h0c1.41.06,2.32,3,3.51,6.75a47.65,47.65,0,0,1,1.89,8.79,87.41,87.41,0,0,1,0,10.54c-.13,3.89-.26,5.23-1.32,6.73A7.65,7.65,0,0,1,70.88,57a6,6,0,0,1-1.22.12c-1.27,0-2.22-.39-2.9-.39a1,1,0,0,0-.7.25c-.88.83-.18,3.4,1.59,4.69a4.26,4.26,0,0,0,2.69.76l1.18,0a3.36,3.36,0,0,1,1.91.45c2,1.31,1.25,4.87,0,11.6,0,0-1.08,6-2.55,16-.41,2.73-1.69,11.38-1,11.52h0c1,0,4.89-13.7,5.89-13.7h0c.68.14-1.8,7,1.75,13.45.35.64,2.14,3.92,3.55,3.92l.16,0c2.44-.47,1.85-11.67,1.3-22.19-.42-8-.83-9.22-.9-15.52-.07-5.89.38-6.85.7-14.34.58-13.82-.51-20.73.08-20.78h0c.78,0,3.72,11.41,3.74,25.2,0,8.33-1,6.89-1,14.93,0,12.68,2.72,18.46.84,30.45-1.13,7.24-2.72,9.06-3.55,9.06h0c-1,0-2.3-2-4.8-6.17-2.18-3.61-2.49-4.73-3.7-5a2.58,2.58,0,0,0-.39,0c-2.12,0-4.09,3-5.72,3a1.22,1.22,0,0,1-.46-.09c-.63-.25-.82-.94-1.08-1.64-.84-2.3,1-3.57.79-6.85-.07-1.07-.38-2.59-.87-2.63h0c-.62,0-1.29,2.34-1.7,3.77-1,3.61-1.55,5.41-.77,7.45.63,1.66,1.64,2.36,3.06,3.79,5.38,5.4,5.65,11,7,11H74c1.94-.21,1.49-10.29,2.63-10.36h0c1,0,2.18,7.7,3.84,18.85,1,7,1.3,9.73.68,13.5a40,40,0,0,1-3,9.57c-2.85,6.84-5.71,10.45-5.3,10.7l.05,0c.7,0,5.15-4.18,8.75-10,2.91-4.71,3.65-7.87,8.08-14.58a25.37,25.37,0,0,1,3.52-4.32c3.12-3,7-5.06,8-5.06a.34.34,0,0,1,.25.07c.72.77-7.2,7.6-10.12,14.34a18.91,18.91,0,0,0-1.23,4.1,18.07,18.07,0,0,0,0,5.71c.21,1.36.65,3.2,1,3.2h0c.53,0,.36-3.37,1.79-8,.86-2.82,2.11-5.44,2.53-5.44h0c.55.13-1,5.76-.28,6h0c1.1,0,5-9.71,5.68-9.71h0c1.22.37-12.61,44.61-15.8,44.61h-.07c-2.33-.49,4.54-26.83.12-28.1a1.34,1.34,0,0,0-.35,0c-3.23,0-10.1,10.91-13.31,21.34-2.12,6.88-6.24,20.26.51,25.86,4.61,3.81,16.34,5.73,19.09,9.07a18.75,18.75,0,0,1,1.59,2.33c1.17,2,1.9,3.33,1.47,3.86a1.26,1.26,0,0,1-1,.3c-2.48,0-8.59-2.44-13.17-4.85a25.31,25.31,0,0,0-8.24-3.1,22.39,22.39,0,0,0-3.25-.31c-.73,0-1.26.08-1.32.3-.17.54,2.85,1.33,5.06,2.73,4,2.53,5.53,7.16,6.09,11.06a10.38,10.38,0,0,1,1.22.31,9.67,9.67,0,0,1,3.29,1.88,9.13,9.13,0,0,1,2.27,3A9.52,9.52,0,0,1,86,232a10,10,0,0,1-1.16,4.79,10.89,10.89,0,0,1-3.12,3.57,14.91,14.91,0,0,1-4.52,2.23,17.59,17.59,0,0,1-4.65.72,3.58,3.58,0,0,1-2.08,1.35l-.19,0c-.21-.06,0-.55.41-1.32-.27,0-.56,0-.82,0-.61,0-1.36-.13-2.25-.26l.07-.7c.68.09,1.34.16,2,.2.46,0,.93,0,1.4.05,1.78-3.2,5.44-9.55,3.73-14.84-.35-1.11-.7-2.14-1-3.11a18,18,0,0,0-7.29,2.19A25.89,25.89,0,0,0,59,233.05c-.14.16-.27.34-.41.51a34.19,34.19,0,0,1,2.33,3.91,35.62,35.62,0,0,1,2.82,7.62,34.77,34.77,0,0,1,1,8.66c0,.26,0,.51,0,.77,2-1.42,4.18-2.81,6.51-4.2s5-3,7.79-4.7,5.08-3.07,7.22-4.44A37.52,37.52,0,0,0,91.7,237a16.32,16.32,0,0,0,3.48-4.53,12.32,12.32,0,0,0,1.23-5.57,9.59,9.59,0,0,0-.09-1.21,5.4,5.4,0,0,0-.38-1.36,4.49,4.49,0,0,0-.72-1.18,2,2,0,0,0-1.08-.64,2,2,0,0,1-.61,1.49,2,2,0,0,1-1.48.6h0a2.63,2.63,0,0,1-1.68-.55,2,2,0,0,1-.66-1.62,2.46,2.46,0,0,1,.74-1.81,2.68,2.68,0,0,1,2-.72h0a4.09,4.09,0,0,1,3.35,1.92,8.59,8.59,0,0,1,1.38,5.21,16.31,16.31,0,0,1-2.39,8.61,30.33,30.33,0,0,1-6.11,7.12,62.28,62.28,0,0,1-8.4,6.05q-4.65,2.8-9.29,5.48-3.42,2-6.56,3.95c-.11.78-.24,1.55-.41,2.28a20,20,0,0,1-2,5.38c.28.52.53,1,.76,1.5a13.55,13.55,0,0,0,3-.76,11.91,11.91,0,0,0,4.07-2.55,11.64,11.64,0,0,0,2.69-3.95,13.6,13.6,0,0,0,1-5.17h.76a18.12,18.12,0,0,0,.3,3.46,7.68,7.68,0,0,0,1.13,2.83l.05.06a22,22,0,0,1,1.42-1.85,14,14,0,0,1,4-3.22,11.26,11.26,0,0,1,5.39-1.21h.07a8.9,8.9,0,0,1,4.18,1,9.14,9.14,0,0,1,3,2.46,12.2,12.2,0,0,0,.74-1.13,10.23,10.23,0,0,0,1.26-5.1,4.72,4.72,0,0,0-1.13-3.24,3.67,3.67,0,0,0-2.85-1.28h0a6.75,6.75,0,0,0-2.6.44,2,2,0,0,0-1.24,1.55,2.43,2.43,0,0,1-.75-1.8,3.3,3.3,0,0,1,1.15-2.64,4,4,0,0,1,2.71-1h0a4.7,4.7,0,0,1,4,2.2,9.86,9.86,0,0,1,1.53,5.81,13.81,13.81,0,0,1-1.17,5.33,16.72,16.72,0,0,1-.89,1.8,14.5,14.5,0,0,1,1.76,4,22.81,22.81,0,0,1,.73,6.19,19.18,19.18,0,0,1-1.16,6.43,24.42,24.42,0,0,1-3,5.92,18.72,18.72,0,0,1-4.11,4.36,7.48,7.48,0,0,1-4.52,1.7h0a5.93,5.93,0,0,1-4.28-1.73,6.94,6.94,0,0,1-1.72-5.15,11.23,11.23,0,0,1,1.67-6.05,16.47,16.47,0,0,1,4.4-4.58l.31.44a16.54,16.54,0,0,0-2,1.68,14.07,14.07,0,0,0-1.82,2.12,10.88,10.88,0,0,0-1.28,2.4,7.3,7.3,0,0,0-.48,2.6,4.39,4.39,0,0,0,1.44,3.69,6.79,6.79,0,0,0,4.25,1.15h0a8.81,8.81,0,0,0,4.94-1.37,12.33,12.33,0,0,0,3.54-3.51,16.36,16.36,0,0,0,2.11-4.65,18.47,18.47,0,0,0,.72-4.82,11.45,11.45,0,0,0-3.17-8.07l-.14-.13-.44.5a17.33,17.33,0,0,1-4.71,3.66,12,12,0,0,1-5.75,1.43h-.06A8.42,8.42,0,0,1,78.2,267a6.55,6.55,0,0,1-2.47-1.84,6.38,6.38,0,0,1-.67-.94,20.11,20.11,0,0,0-2,3.41c-.77,1.62-1.53,3.26-2.3,4.91A7.14,7.14,0,0,1,68,275.79a7.54,7.54,0,0,1-4,1h-.09a16.58,16.58,0,0,0-2.8.26,13.08,13.08,0,0,1,2.35,3.83,16.67,16.67,0,0,1,1.12,6.45c0,.41,0,.83-.07,1.24a6.19,6.19,0,0,0,.74-3,8.47,8.47,0,0,0-.3-2.79l.7-.07a7.34,7.34,0,0,1,.25,1.15,11.87,11.87,0,0,1,.12,1.71,12.28,12.28,0,0,1-.59,3.62,11,11,0,0,1-1.73,3.35,8.8,8.8,0,0,1-1,1.11,5.72,5.72,0,0,1-.4.46,10.9,10.9,0,0,1,5.72-1.8h0a6.53,6.53,0,0,1,3.77,1.15,4.27,4.27,0,0,1,1.67,3.82,8.78,8.78,0,0,1-1.67,5.29A15.12,15.12,0,0,1,68,306.24l-.06-.51c.64-.5,1.25-1,1.85-1.57a10.73,10.73,0,0,0,1.56-1.81,8.33,8.33,0,0,0,1.06-2.18,9.23,9.23,0,0,0,.39-2.66,3.33,3.33,0,0,0-1.29-2.9,5.61,5.61,0,0,0-3.27-.93h0A11.33,11.33,0,0,0,62,295.56a22.71,22.71,0,0,0-3.7,2.95c.19.22.39.43.58.66a28.26,28.26,0,0,1,4.1,6.58,18.12,18.12,0,0,1,1.49,5.18L66,310q3.49-2.31,7.18-5t7.1-5a67.76,67.76,0,0,1,6.33-3.85,11,11,0,0,1,4.87-1.53h0a5,5,0,0,1,3.67,1.28,5.56,5.56,0,0,1,1.25,4.07,11.65,11.65,0,0,1-1.32,5.1,32.22,32.22,0,0,1-3.32,5.34,47.1,47.1,0,0,1-4.46,5.09q-2.44,2.43-4.68,4.27l.13.12q2.22-1.63,5.4-3.62c2.12-1.33,4.33-2.74,6.62-4.26s4.56-3.12,6.81-4.82a59.25,59.25,0,0,0,6.08-5.28,26.74,26.74,0,0,0,4.36-5.62,11.92,11.92,0,0,0,1.68-5.9,8.68,8.68,0,0,0-1.91-5.87,6.63,6.63,0,0,0-5.29-2.28h-.07a7.31,7.31,0,0,0-5,1.47A4.43,4.43,0,0,0,99.81,287a7.27,7.27,0,0,0,.38,2.28c.25.77.52,1.51.81,2.23l-.51.25a11.31,11.31,0,0,1-1.19-2.61,9.32,9.32,0,0,1-.5-3,8.08,8.08,0,0,1,.52-2.76,7.11,7.11,0,0,1,1.44-2.37,6.92,6.92,0,0,1,2.29-1.64,7.09,7.09,0,0,1,3-.62h0a7.45,7.45,0,0,1,3.74.9,7.89,7.89,0,0,1,2.62,2.39,10.52,10.52,0,0,1,1.54,3.43,15.78,15.78,0,0,1,.49,4,18.42,18.42,0,0,1-1.78,7.92,30.16,30.16,0,0,1-4.69,7.09,53.57,53.57,0,0,1-6.68,6.38c-2.51,2-5.09,4-7.77,5.87L60.88,337.83l2.59,1.7v1.25l.38-.35a43.86,43.86,0,0,1,6.58-4.89,36.58,36.58,0,0,1,7.38-3.43,24.24,24.24,0,0,1,7.68-1.27h.09a11.45,11.45,0,0,1,7.76,2.54q2.88,2.52,2.86,7.53a14,14,0,0,1-1.39,5.83,30.82,30.82,0,0,1-3.45,5.7,40.19,40.19,0,0,1-4.55,5,41,41,0,0,1-4.71,3.82A24.3,24.3,0,0,1,83,364a13.78,13.78,0,0,1,.37,3.49A10.55,10.55,0,0,1,83,370a15.44,15.44,0,0,1-.9,2.66,14.35,14.35,0,0,1-.73,1.47,54.5,54.5,0,0,0,6.75-4.92,29.06,29.06,0,0,0,5.13-5.63,10.33,10.33,0,0,0,1.95-5.79,2.87,2.87,0,0,0-.43-1.78c-.3-.38-.55-.6-.76-.64a.87.87,0,0,1-.61.66,2.69,2.69,0,0,1-.91.16h0a1.81,1.81,0,0,1-1.36-.55,1.83,1.83,0,0,1-.53-1.36,2.35,2.35,0,0,1,.67-1.71,2.22,2.22,0,0,1,1.67-.69h0a2.47,2.47,0,0,1,1.53.48,3.62,3.62,0,0,1,1,1.21,6.64,6.64,0,0,1,.56,1.59,7.22,7.22,0,0,1,.18,1.61,12.07,12.07,0,0,1-2,6.59,29.24,29.24,0,0,1-5.32,6,57.34,57.34,0,0,1-7.35,5.43l-.92.57a12,12,0,0,1-1.73,2l-.44-.38q.3-.33.57-.66-2.82,1.67-5.69,3.13-4.12,2.1-7.85,3.77c-2.47,1.11-4.56,2.07-6.26,2.86v.13h.34l2,0c.62,0,1.24,0,1.88,0h.37a50.3,50.3,0,0,1,6.28.4c2.07.26,4.14.55,6.21.85s4.21.59,6.28.85a52.29,52.29,0,0,0,6.28.41H89a37.26,37.26,0,0,0,7.16-.73v.44Q88,392,80.34,395.73a144.91,144.91,0,0,0-13.86,7.72q-1.91,1.26-4.26,3a38.46,38.46,0,0,0-4.3,3.76c.53.52,1,1,1.52,1.56l.63.74A27.39,27.39,0,0,1,66,408.3a17.5,17.5,0,0,1,8.14-2.22h0a14.91,14.91,0,0,1,4.25.62A10.89,10.89,0,0,1,82,408.49a8.71,8.71,0,0,1,2.43,3,9.4,9.4,0,0,1,.9,4.22A12.57,12.57,0,0,1,84,421.53a14.31,14.31,0,0,1-3.82,4.62,18.1,18.1,0,0,1-5.79,3,23.42,23.42,0,0,1-7.16,1.05h-2v-.76h2.25a21.58,21.58,0,0,0,6.35-.93,18.07,18.07,0,0,0,5.4-2.61,12.79,12.79,0,0,0,3.69-4,10.33,10.33,0,0,0,1.39-5.23,8.09,8.09,0,0,0-.78-3.81,6.61,6.61,0,0,0-2.18-2.48,8.77,8.77,0,0,0-3.2-1.35,18.08,18.08,0,0,0-3.83-.39h-.09a19.84,19.84,0,0,0-9.31,2.24,24.62,24.62,0,0,0-4.07,2.67,17.65,17.65,0,0,1,1.7,2.66,9,9,0,0,1,1.09,4.19,4.94,4.94,0,0,1-1.18,3.45l-.17.17a28.73,28.73,0,0,1,2.18,11.35,21.48,21.48,0,0,1-.35,3.89q2.49-1.69,5.11-3.27,4.17-2.49,8.36-4.82t7.7-4.76a38.93,38.93,0,0,0,6-5.11,13.43,13.43,0,0,0,3.39-5.92c-.17-1.1-.32-2-.47-2.79s-.28-1.45-.4-2.07-.22-1.16-.28-1.65a12,12,0,0,1-.09-1.49,4.63,4.63,0,0,1,.29-1.74,1.05,1.05,0,0,1,1-.66h0a1.05,1.05,0,0,1,1,.83,7.27,7.27,0,0,1,.27,2.34c0,.85,0,1.6-.07,2.26s-.11,1.24-.2,1.77-.18,1.06-.29,1.59-.2,1.08-.29,1.68c.17.72.32,1.42.47,2.12s.27,1.46.37,2.29.18,1.74.24,2.76.09,2.18.08,3.49a27,27,0,0,1-2.1,10.27,31.51,31.51,0,0,1-5.68,9.08,28.5,28.5,0,0,1-8.53,6.47,23.31,23.31,0,0,1-10.53,2.43h-.11a29.89,29.89,0,0,1-3.93-.3c-.67-.1-1.33-.23-2-.38a1.09,1.09,0,0,0,.08.15,21.33,21.33,0,0,1,2,6.35l-.51.13a22.08,22.08,0,0,0-2-6.07c-.14-.27-.29-.53-.44-.79l-1.08-.33a20.12,20.12,0,0,1-3.7-1.66q-.42-.24-.81-.51-.39.27-.81.51a21.2,21.2,0,0,1-3.72,1.63c-.36.12-.73.22-1.09.32-.15.26-.3.51-.44.78a22,22,0,0,0-2,6.05l-.51-.13a21.09,21.09,0,0,1,2-6.34l.07-.14q-1,.22-2,.36a28.39,28.39,0,0,1-3.83.27h-.1a23.27,23.27,0,0,1-10.62-2.51,28.37,28.37,0,0,1-8.47-6.54A31.34,31.34,0,0,1,20,436.06a27,27,0,0,1-2-10.28c0-1.31,0-2.48.11-3.49s.15-1.94.26-2.76.24-1.58.39-2.28.31-1.41.49-2.12c-.09-.6-.18-1.16-.28-1.69s-.2-1.06-.28-1.58-.14-1.13-.19-1.78-.05-1.41-.05-2.25a7.49,7.49,0,0,1,.29-2.35,1.07,1.07,0,0,1,1.05-.82h0a1,1,0,0,1,1,.67,4.51,4.51,0,0,1,.28,1.75,12.29,12.29,0,0,1-.1,1.49c-.07.48-.17,1-.3,1.64s-.26,1.3-.42,2.06-.31,1.69-.48,2.79A13.5,13.5,0,0,0,23.11,421a39.38,39.38,0,0,0,6,5.16A88.18,88.18,0,0,0,36.78,431q4.17,2.37,8.32,4.89c1.74,1.06,3.43,2.17,5.08,3.31a23.68,23.68,0,0,1-.32-3.9A29,29,0,0,1,52.13,424l-.16-.16a5,5,0,0,1-1.16-3.47,9,9,0,0,1,1.13-4.18,18.12,18.12,0,0,1,1.71-2.64,25.12,25.12,0,0,0-4-2.69,19.78,19.78,0,0,0-9.38-2.33h-.08a18.8,18.8,0,0,0-3.76.37,8.92,8.92,0,0,0-3.21,1.32,6.78,6.78,0,0,0-2.2,2.46,8.33,8.33,0,0,0-.81,3.81,10.36,10.36,0,0,0,1.35,5.24,12.89,12.89,0,0,0,3.66,4.07,18.4,18.4,0,0,0,5.38,2.66,21.83,21.83,0,0,0,6.44,1h2.15v.76H47.31A23.41,23.41,0,0,1,40.05,429,17.93,17.93,0,0,1,34.29,426a14.42,14.42,0,0,1-3.79-4.65,12.6,12.6,0,0,1-1.34-5.84,9.17,9.17,0,0,1,.94-4.21,8.53,8.53,0,0,1,2.46-3,10.75,10.75,0,0,1,3.55-1.77A14.88,14.88,0,0,1,40.3,406h.07a17.49,17.49,0,0,1,8.17,2.28,28.07,28.07,0,0,1,5.91,4.28c.21-.24.42-.49.64-.73.48-.52,1-1,1.53-1.55a38.43,38.43,0,0,0-4.26-3.79c-1.56-1.19-3-2.21-4.24-3.06a145.68,145.68,0,0,0-13.8-7.83q-7.6-3.8-15.7-7.39v-.44a36.35,36.35,0,0,0,7.29.79h.21a51,51,0,0,0,6.07-.36c2.07-.24,4.17-.51,6.29-.79s4.14-.56,6.22-.8a50.82,50.82,0,0,1,6.06-.36H51c.76,0,1.51,0,2.25,0s1.51,0,2.32,0v-.13q-2.53-1.22-6.24-2.91t-7.82-3.83q-3-1.59-6-3.41.36.45.75.9l-.45.38a12.81,12.81,0,0,1-1.83-2.2l0,0-.57-.36A56.66,56.66,0,0,1,26,369.19a28.81,28.81,0,0,1-5.27-6.08,12,12,0,0,1-2-6.6,8,8,0,0,1,.2-1.62,6.2,6.2,0,0,1,.58-1.58,3.31,3.31,0,0,1,1-1.2,2.41,2.41,0,0,1,1.51-.47h0a2.25,2.25,0,0,1,1.27.36,30.19,30.19,0,0,1-3.28-5.55,14,14,0,0,1-1.34-5.85q0-5,2.92-7.5a11.38,11.38,0,0,1,7.7-2.48h.08A24.2,24.2,0,0,1,37.17,332a36.33,36.33,0,0,1,7.35,3.49,44.52,44.52,0,0,1,6.54,4.94l.58.54v-1.44l2.6-1.68L21.7,316.46q-4-2.86-7.72-5.93a53.36,53.36,0,0,1-6.63-6.43A30.82,30.82,0,0,1,2.71,297,18.66,18.66,0,0,1,1,289a16.18,16.18,0,0,1,.52-4,10.73,10.73,0,0,1,1.57-3.42,7.86,7.86,0,0,1,2.64-2.36,7.46,7.46,0,0,1,3.71-.88h0a7.2,7.2,0,0,1,3.07.65,7.07,7.07,0,0,1,2.28,1.66A7.21,7.21,0,0,1,16.25,283a7.82,7.82,0,0,1,.5,2.76,9.59,9.59,0,0,1-.52,3,11.65,11.65,0,0,1-1.22,2.6l-.51-.26c.3-.72.58-1.45.84-2.21a7.59,7.59,0,0,0,.39-2.29,4.41,4.41,0,0,0-1.64-3.33A7.31,7.31,0,0,0,9,281.78H9A6.59,6.59,0,0,0,3.72,284a8.66,8.66,0,0,0-2,5.86,11.86,11.86,0,0,0,1.62,5.9,27.4,27.4,0,0,0,4.33,5.67,58.91,58.91,0,0,0,6,5.32c2.24,1.72,4.49,3.35,6.77,4.88s4.47,3,6.58,4.31,3.9,2.56,5.38,3.67l.13-.13c-1.48-1.23-3-2.67-4.65-4.3a48.18,48.18,0,0,1-4.42-5.13,32.8,32.8,0,0,1-3.28-5.37A12,12,0,0,1,19,299.58a5.6,5.6,0,0,1,1.29-4.06,5,5,0,0,1,3.65-1.25h0a11.08,11.08,0,0,1,4.88,1.57,71.13,71.13,0,0,1,6.3,3.9q3.39,2.33,7.05,5.07t7.15,5.07c.52.35,1,.68,1.53,1a17.94,17.94,0,0,1,1.53-5.18,28.26,28.26,0,0,1,4.15-6.55c.19-.22.39-.42.59-.64a23.19,23.19,0,0,0-3.68-3,11.3,11.3,0,0,0-6.15-1.93h0a5.53,5.53,0,0,0-3.24.91,3.3,3.3,0,0,0-1.31,2.88,9,9,0,0,0,.37,2.67,8.5,8.5,0,0,0,1,2.19,10.18,10.18,0,0,0,1.54,1.81c.59.56,1.2,1.09,1.84,1.6l-.07.5a14.93,14.93,0,0,1-3.85-3.72A8.7,8.7,0,0,1,42,297.13a4.27,4.27,0,0,1,1.7-3.8,6.53,6.53,0,0,1,3.74-1.12h0a10.61,10.61,0,0,1,5.33,1.6l-.15-.19a9.3,9.3,0,0,1-1-1.14,11.12,11.12,0,0,1-1.69-3.37,12.22,12.22,0,0,1-.56-3.62,11.85,11.85,0,0,1,.13-1.71,6.62,6.62,0,0,1,.26-1.14l.7.06a8.56,8.56,0,0,0-.33,2.79,6.29,6.29,0,0,0,.72,3q-.06-.63-.06-1.26a16.75,16.75,0,0,1,1.17-6.44A13.39,13.39,0,0,1,54.29,277a17.36,17.36,0,0,0-2.84-.28,7.58,7.58,0,0,1-4.06-1,7.09,7.09,0,0,1-2.65-3.24c-.75-1.66-1.51-3.3-2.26-4.93a20.49,20.49,0,0,0-2-3.42,7.73,7.73,0,0,1-.68.94,6.92,6.92,0,0,1-2.48,1.82,8.6,8.6,0,0,1-3.47.64h-.05A12,12,0,0,1,28,266a17.13,17.13,0,0,1-4.68-3.7c-.15-.16-.29-.33-.43-.5l-.14.13a11.46,11.46,0,0,0-3.24,8,18.35,18.35,0,0,0,.68,4.82,16.26,16.26,0,0,0,2.08,4.67,12.17,12.17,0,0,0,3.5,3.54,8.84,8.84,0,0,0,5,1.41h.05a6.76,6.76,0,0,0,4.2-1.12,4.39,4.39,0,0,0,1.48-3.68,7.55,7.55,0,0,0-.47-2.6,10.46,10.46,0,0,0-1.26-2.41,14.68,14.68,0,0,0-1.8-2.14,15.87,15.87,0,0,0-2-1.69l.32-.44A16.58,16.58,0,0,1,35.6,275a11.17,11.17,0,0,1,1.62,6.06,6.91,6.91,0,0,1-1.76,5.13,5.91,5.91,0,0,1-4.26,1.7h0a7.44,7.44,0,0,1-4.53-1.73,18.84,18.84,0,0,1-4.08-4.4,24.59,24.59,0,0,1-2.95-5.94,19.21,19.21,0,0,1-1.12-6.44,22.56,22.56,0,0,1,.79-6.18,14.33,14.33,0,0,1,1.78-4,18.84,18.84,0,0,1-.87-1.81,13.57,13.57,0,0,1-1.12-5.33,9.79,9.79,0,0,1,1.58-5.8,4.67,4.67,0,0,1,4-2.17h0a4,4,0,0,1,2.72,1,3.3,3.3,0,0,1,1.13,2.65,2.48,2.48,0,0,1-.76,1.79A2,2,0,0,0,26.47,248a6.63,6.63,0,0,0-2.63-.46h0A3.68,3.68,0,0,0,21,248.76,4.64,4.64,0,0,0,19.83,252a10.17,10.17,0,0,0,1.22,5.11,10.85,10.85,0,0,0,.72,1.13,9.46,9.46,0,0,1,3-2.43,8.9,8.9,0,0,1,4.15-1h0a11.31,11.31,0,0,1,5.45,1.26,14,14,0,0,1,4,3.25,20.53,20.53,0,0,1,1.4,1.86l.05-.06A7.42,7.42,0,0,0,41,258.32a17.27,17.27,0,0,0,.33-3.45h.76A13.56,13.56,0,0,0,43,260a11.5,11.5,0,0,0,2.64,4,12.31,12.31,0,0,0,4.05,2.58,13.1,13.1,0,0,0,3,.78c.24-.49.5-1,.78-1.5a19.78,19.78,0,0,1-1.94-5.4c-.17-.73-.29-1.49-.39-2.26-2.09-1.34-4.26-2.67-6.54-4q-4.62-2.72-9.24-5.55A61.32,61.32,0,0,1,27,242.53,30.5,30.5,0,0,1,21,235.37a16.35,16.35,0,0,1-2.31-8.64,8.6,8.6,0,0,1,1.42-5.19,4.08,4.08,0,0,1,3.35-1.89h0a2.67,2.67,0,0,1,2,.74,2.43,2.43,0,0,1,.73,1.81,2,2,0,0,1-.68,1.61,2.53,2.53,0,0,1-1.66.54h0a2.08,2.08,0,0,1-1.49-.61,2,2,0,0,1-.59-1.5,2,2,0,0,0-1.09.63,4.63,4.63,0,0,0-.73,1.17,5.62,5.62,0,0,0-.39,1.37,9.65,9.65,0,0,0-.1,1.2,12.4,12.4,0,0,0,1.19,5.59,16.17,16.17,0,0,0,3.44,4.55A37.81,37.81,0,0,0,29.48,241q3.19,2.07,7.19,4.5t7.75,4.76q3.48,2.1,6.47,4.25c0-.26,0-.51,0-.78A34.62,34.62,0,0,1,52,245a36.45,36.45,0,0,1,2.88-7.6,34.51,34.51,0,0,1,2.36-3.88l-.4-.52a26.11,26.11,0,0,0-7.46-6.28,18,18,0,0,0-7.79-2.28c-.34,1-.69,2-1.06,3.13-1.76,5.29,1.87,11.69,3.62,14.89h.07c.63,0,1.25,0,1.86-.05s1.32-.1,2-.18l.06.7c-.89.12-1.64.2-2.26.24-.42,0-.88,0-1.33,0,.39.76.59,1.24.38,1.29a.55.55,0,0,1-.18,0,3.64,3.64,0,0,1-2.11-1.39,17.51,17.51,0,0,1-4.08-.72,14.88,14.88,0,0,1-4.5-2.27,10.87,10.87,0,0,1-3.09-3.59,9.89,9.89,0,0,1-1.12-4.8,9.45,9.45,0,0,1,.87-4.15,9.2,9.2,0,0,1,2.3-3,9.55,9.55,0,0,1,3.3-1.85c.22-.08.45-.11.67-.17.57-3.92,2.13-8.62,6.2-11.14,2.22-1.39,5.25-2.16,5.08-2.7-.06-.22-.63-.31-1.4-.31a22.63,22.63,0,0,0-3.17.29,25.26,25.26,0,0,0-8.26,3c-4.59,2.36-10.68,4.74-13.18,4.74a1.32,1.32,0,0,1-1-.3c-.43-.54.32-1.81,1.5-3.85A19.54,19.54,0,0,1,24.3,210c2.77-3.31,14.53-5.14,19.16-8.92,6.8-5.54,2.79-18.95.72-25.85C41.05,164.78,34.26,153.8,31,153.8a1.22,1.22,0,0,0-.34,0c-4.44,1.23,2.22,27.63-.12,28.1h-.06c-3.19,0-16.67-44.38-15.44-44.73h0c.64,0,4.51,9.76,5.6,9.76h.05c.76-.22-.78-5.87-.23-6h0c.41,0,1.64,2.64,2.49,5.47,1.38,4.62,1.19,7.95,1.72,8h0c.33,0,.79-1.83,1-3.19a18.13,18.13,0,0,0,0-5.71,18.41,18.41,0,0,0-1.2-4.11c-2.86-6.76-10.73-13.66-10-14.42a.34.34,0,0,1,.25-.07c1.07,0,4.9,2,8,5.13a25.27,25.27,0,0,1,3.49,4.35c4.38,6.74,5.09,9.91,8,14.64,3.56,5.87,8,10.08,8.68,10.08h0c.41-.24-2.42-3.88-5.22-10.75a40,40,0,0,1-3-9.59c-.59-3.78-.31-6.54.79-13.49,1.75-11.13,3-18.82,4-18.82h0c1.14.08.61,10.15,2.55,10.38h.06c1.39,0,1.71-5.54,7.12-10.89,1.44-1.42,2.45-2.11,3.1-3.77.8-2,.29-3.84-.71-7.45-.4-1.44-1.05-3.79-1.67-3.79h0c-.49,0-.8,1.56-.88,2.63-.25,3.27,1.59,4.56.73,6.85-.27.7-.46,1.39-1.09,1.63a1.2,1.2,0,0,1-.45.09c-1.64,0-3.6-3-5.73-3l-.37,0c-1.21.21-1.53,1.33-3.74,4.92-2.53,4.12-3.82,6.1-4.85,6.13h0c-.83,0-2.41-1.82-3.49-9.09-1.78-12,.94-17.76,1.09-30.44.1-8-1-6.6-.9-14.94.13-13.78,3.17-25.16,4-25.16h0c.6.06-.56,7-.08,20.79.26,7.48.7,8.45.59,14.34-.13,6.3-.55,7.56-1,15.52-.64,10.5-1.32,21.7,1.11,22.19l.18,0c1.4,0,3.21-3.25,3.56-3.88,3.61-6.47,1.18-13.31,1.87-13.44h0c1,0,4.8,13.75,5.78,13.75h0c.74-.13-.48-8.79-.86-11.53-1.4-10-2.42-16-2.42-16-1.15-6.73-1.88-10.29.14-11.59A3.3,3.3,0,0,1,45,62.31c.44,0,.88,0,1.34,0A4.2,4.2,0,0,0,49,61.6c1.78-1.27,2.5-3.84,1.63-4.67a1,1,0,0,0-.72-.26c-.67,0-1.6.37-2.83.37a5.83,5.83,0,0,1-1.27-.13,7.71,7.71,0,0,1-4.49-3.24c-1-1.5-1.17-2.85-1.26-6.74a90.32,90.32,0,0,1,0-10.54,48,48,0,0,1,2-8.78c1.22-3.77,2.15-6.67,3.56-6.71h0c1.35,0,2.85,2.58,3.15,5,.42,3.28-1.52,5.13-2.92,8.18-3.52,7.68-.69,16.7.83,16.84h0c.39,0,1-1.15,2.22-3.41a68.31,68.31,0,0,0,3.21-6.83c1.45-4,1.72-18.25-3.91-36.57M40,137.9a27.69,27.69,0,0,0,6.67-4.55A26.82,26.82,0,0,0,55,115.47c1.11,6.28,1.51,15.33-3.47,23.94-3.12,5.39-4.8,4.48-6.29,8.55-2.88,7.87,2.38,14.09,9.49,35,1,3.07.9,2.9,1.81,5.42.44,1.22.85,2.34,1.24,3.37.4-1,.82-2.15,1.27-3.36.93-2.51.78-2.35,1.85-5.4,7.28-20.84,12.59-27,9.77-34.91-1.46-4.08-3.15-3.18-6.22-8.59-4.91-8.65-4.43-17.71-3.28-24a26.83,26.83,0,0,0,8.16,17.94A28,28,0,0,0,76,138.05a37.31,37.31,0,0,0-5.66-17.94c-3.47-5.43-6.68-6.11-8.64-10.86-.79-1.9-2.17-6.27,2.18-19.69C69,73.75,74.71,68.09,71.85,65a6.8,6.8,0,0,0-5-1.73c-2.29,0-4.68.76-6,2.28-1.49,1.75-.92,3.88-1,8.26a50.72,50.72,0,0,1-1.74,12.39,40.63,40.63,0,0,1-1.86-12.32c0-4.35.78-6.54-.69-8.36-1.25-1.54-3.67-2.33-6-2.33a6.79,6.79,0,0,0-4.91,1.7c-2.89,3.1,2.79,8.8,7.79,24.66,4.25,13.45,2.83,17.81,2,19.7-2,4.74-5.22,5.38-8.73,10.8A37.24,37.24,0,0,0,40,137.9m12.72,85.87h-.09c-.8-.26-6.71-9.29-7.14-10.22,0,.48-1.27,3.31-3.22,8.79a17.13,17.13,0,0,1,3.64.9,23.59,23.59,0,0,1,5.64,3.07l.16.12,0,1.15a55.13,55.13,0,0,1,5.12,4.23c.34.33.67.66,1,1,.32-.34.66-.67,1-1a53.87,53.87,0,0,1,5.15-4.2c0-.38,0-.76,0-1.15l.16-.12a23.87,23.87,0,0,1,5.66-3A17.13,17.13,0,0,1,73,222.5c-1.92-5.52-3.13-8.38-3.16-8.86-.44.93-6.42,9.9-7.23,10.16h-.09c-.94,0,2.29-6.42.7-13.15-1.23-5.2-2.48-5.92-1.28-8.55.17-.36.62-1.28.23-1.64a.55.55,0,0,0-.41-.14,2.43,2.43,0,0,0-.73.15,5.69,5.69,0,0,1,0,2.48,6.22,6.22,0,0,1-3.15,3.86,6.13,6.13,0,0,1-3.48-3.89,5.35,5.35,0,0,1,0-2.48,2.26,2.26,0,0,0-.73-.15.59.59,0,0,0-.41.13c-.39.36.05,1.28.21,1.64,1.19,2.65-.08,3.35-1.35,8.54-1.64,6.72,1.53,13.16.6,13.16M41.89,242.35a26.82,26.82,0,0,1-5.17-13.25,28.28,28.28,0,0,1,0-4.13,10.37,10.37,0,0,0-2.84,1.22,7.88,7.88,0,0,0-2.36,2.31,5.8,5.8,0,0,0-.93,3.29,9.1,9.1,0,0,0,1,4.32,10.24,10.24,0,0,0,2.77,3.38,13.4,13.4,0,0,0,4.28,2.2,17.07,17.07,0,0,0,3.27.66m31.36.16a16.94,16.94,0,0,0,3.84-.67,13.41,13.41,0,0,0,4.29-2.17,10.16,10.16,0,0,0,2.81-3.35,9.35,9.35,0,0,0,1-4.31,5.8,5.8,0,0,0-.91-3.3A7.84,7.84,0,0,0,82,226.38,10.8,10.8,0,0,0,78.75,225l-.15,0a29.08,29.08,0,0,1,0,4.29,26.83,26.83,0,0,1-5.31,13.24m-15.38-3a8,8,0,0,0,2.36-1.52,26.37,26.37,0,0,0-2.35-2.39,27.81,27.81,0,0,0-2.37,2.36,7.92,7.92,0,0,0,2.36,1.55m-3.1.61c-.2-.23-.4-.45-.6-.7-.15.22-.27.43-.41.65.33,0,.67,0,1,0m6.19,0,1,0c-.13-.22-.25-.43-.39-.65-.2.25-.4.46-.6.69M34.29,263.72a7.32,7.32,0,0,0,3.35-.69,6,6,0,0,0,1.21-.79,12.74,12.74,0,0,0-3-2.15,12.91,12.91,0,0,0-5.86-1.2h0a9.62,9.62,0,0,0-3.83.81,10.53,10.53,0,0,0-1.84,1l.06.05A14.75,14.75,0,0,0,28.92,263a19.89,19.89,0,0,0,5.33.75h0m16.53,9c.15-.63.32-1.26.52-1.9a8.58,8.58,0,0,1-2.21-.85,11.46,11.46,0,0,1-3.38-2.81,16.32,16.32,0,0,1-2.37-3.88,18.82,18.82,0,0,1-1.31-4.33h-.13a11.66,11.66,0,0,1-.62,3.41,8.86,8.86,0,0,1-.34.85c.15.26.29.53.43.81q1.32,2.64,2.52,5.37a14.3,14.3,0,0,0,.91,1.72,2.81,2.81,0,0,0,1.11,1,5.57,5.57,0,0,0,1.8.48,25.45,25.45,0,0,0,3,.14h.12m13.82.05H65c1.13,0,2.05,0,2.75-.11a5.72,5.72,0,0,0,1.81-.47,2.84,2.84,0,0,0,1.11-1,13.78,13.78,0,0,0,.93-1.71q1.22-2.73,2.56-5.35c.14-.28.28-.55.43-.82-.12-.27-.23-.55-.33-.85a11.58,11.58,0,0,1-.59-3.4H73.5a19,19,0,0,1-1.35,4.31,16.58,16.58,0,0,1-2.39,3.86A11.61,11.61,0,0,1,66.35,270a8.76,8.76,0,0,1-2.22.84c.2.64.36,1.27.51,1.9m16.73-8.83a19.72,19.72,0,0,0,5.25-.7A14.91,14.91,0,0,0,91.26,261l.06,0a10.62,10.62,0,0,0-1.84-1,9.76,9.76,0,0,0-3.86-.84h-.09a11.78,11.78,0,0,0-8.83,3.27,5.94,5.94,0,0,0,1.19.81,7.33,7.33,0,0,0,3.39.71h.09M53.55,271h0a9.76,9.76,0,0,1-1.44-.11c-.18.58-.35,1.18-.49,1.79a15.29,15.29,0,0,1,4.43.88,14.1,14.1,0,0,1,1.72.78,12.81,12.81,0,0,1,1.73-.77,15.33,15.33,0,0,1,4.44-.85c-.14-.61-.3-1.2-.48-1.79a10.73,10.73,0,0,1-1.4.1h0a9,9,0,0,1-4.22-1,8.89,8.89,0,0,1-4.2.93m4.08,22.07a8.62,8.62,0,0,0,1.91-.44,9.33,9.33,0,0,0,2.67-1.42,8,8,0,0,0,.88-.77,8.54,8.54,0,0,0,.75-3.78,8.41,8.41,0,0,0-1.22-4.7,9.81,9.81,0,0,0-3.09-3.06A13.11,13.11,0,0,0,57.7,278a13.44,13.44,0,0,0-1.82.91,9.73,9.73,0,0,0-3.12,3,8.41,8.41,0,0,0-1.26,4.68,8.78,8.78,0,0,0,.73,3.81,7.86,7.86,0,0,0,.87.77,9.6,9.6,0,0,0,2.66,1.44,8.83,8.83,0,0,0,1.87.45m2.62,2.45a5.72,5.72,0,0,1-2.12.38h0c-.18,0-.34,0-.51,0l-.41,0h0a5.9,5.9,0,0,1-1.83-.28,23.31,23.31,0,0,1,2.37,2.2,25.77,25.77,0,0,1,2.53-2.29m-2.68,40.1L77.08,323a59.84,59.84,0,0,0,13.06-11.72,35.4,35.4,0,0,0,4-6,11.32,11.32,0,0,0,1.51-4.94,2.68,2.68,0,0,0-.56-1.59,2.64,2.64,0,0,0-2.22-.77h0a11,11,0,0,0-4.75,1.53,70.57,70.57,0,0,0-6.35,3.85q-3.43,2.29-7.16,5t-7.19,5c-1.1.73-2.17,1.4-3.2,2a5.15,5.15,0,0,1-.91,1.83,4.87,4.87,0,0,1-4.05,1.54h0a6.46,6.46,0,0,1-1.61-.22,6.56,6.56,0,0,1-1.57.2h0A4.93,4.93,0,0,1,52,317.18a5.11,5.11,0,0,1-.88-1.83c-1-.62-2.09-1.3-3.19-2.05q-3.45-2.32-7.15-5.07t-7.12-5.07a70.35,70.35,0,0,0-6.32-3.9,10.89,10.89,0,0,0-4.76-1.57h0a2.63,2.63,0,0,0-2.2.75,2.71,2.71,0,0,0-.58,1.59,11.53,11.53,0,0,0,1.47,5,35.18,35.18,0,0,0,4,6.07,57.25,57.25,0,0,0,5.87,6.25,58.85,58.85,0,0,0,7.09,5.57l19.4,12.78m.08-21c.58-.22,1.19-.49,1.84-.81,1.36-.69,2.81-1.51,4.31-2.43a16.07,16.07,0,0,0-1.33-5,25.35,25.35,0,0,0-3.72-6.07c-.33-.4-.68-.78-1-1.16-.35.37-.7.75-1,1.14a24.63,24.63,0,0,0-3.77,6.05,16.19,16.19,0,0,0-1.38,5c1.5.93,2.94,1.76,4.3,2.46a18.44,18.44,0,0,0,1.81.82m-24.24,45a16.62,16.62,0,0,1,14.8-8.44h.08a18.47,18.47,0,0,1,3,.27,19.7,19.7,0,0,1,3,.76l.21-.41a34.91,34.91,0,0,1,2.22-3.55l-.14-.18a36.57,36.57,0,0,0-4.72-4.48l-.3.19v-.43c-.91-.71-1.86-1.38-2.85-2a44.74,44.74,0,0,0-9.85-4.8,32.07,32.07,0,0,0-10.43-1.85h0a11.93,11.93,0,0,0-3,.4,9.11,9.11,0,0,0-2.82,1.26,6.75,6.75,0,0,0-2.07,2.15,5.62,5.62,0,0,0-.81,3,11,11,0,0,0,1.35,5,28.72,28.72,0,0,0,3.4,5.19,38.83,38.83,0,0,0,4.45,4.61,29,29,0,0,0,4.49,3.32m30.05-15.78-.42-.28a36.54,36.54,0,0,0-4.84,4.51l-.15.18a34.28,34.28,0,0,1,2.2,3.58c.07.14.14.27.2.41a18.54,18.54,0,0,1,3.07-.75,19.71,19.71,0,0,1,2.95-.24h.06a16.63,16.63,0,0,1,14.81,8.56,29.28,29.28,0,0,0,4.52-3.28A38.88,38.88,0,0,0,90.35,352a29.39,29.39,0,0,0,3.45-5.16,11.16,11.16,0,0,0,1.38-5,5.56,5.56,0,0,0-.78-3,7,7,0,0,0-2.05-2.17,9.51,9.51,0,0,0-2.82-1.28,11.77,11.77,0,0,0-3.08-.42h-.11A32.45,32.45,0,0,0,76,336.67a44.93,44.93,0,0,0-9.88,4.72c-.93.6-1.82,1.21-2.67,1.86v.6m-6,3.53c.32-.43.65-.86,1-1.29q1.44-1.77,3.13-3.48l-4-2.63-4.15,2.67c1.09,1.13,2.11,2.27,3,3.43.35.44.68.87,1,1.3m0,6.13a22.33,22.33,0,0,1,2.34-1,22.79,22.79,0,0,0-2.32-3.5,23.4,23.4,0,0,0-2.35,3.48,24.76,24.76,0,0,1,2.33,1m-6,12.95a7.58,7.58,0,0,1-1-4.1,7.26,7.26,0,0,1,.67-3.08,9,9,0,0,1,1.57-2.37,15.58,15.58,0,0,1,1.26-3.84c-.46-.14-.92-.29-1.4-.4a15.7,15.7,0,0,0-3.74-.46h-.1q-9.77,0-14.65,7.8a46.5,46.5,0,0,0,10.51,4.9,38.12,38.12,0,0,0,6.88,1.55m11.83,0A37.93,37.93,0,0,0,70.15,365a47.25,47.25,0,0,0,10.56-4.81q-4.86-7.89-14.69-7.93H66a15.6,15.6,0,0,0-3.67.43c-.49.11-1,.25-1.42.39A15.65,15.65,0,0,1,62.1,357a9,9,0,0,1,1.54,2.38,7.25,7.25,0,0,1,.66,3.08,7.66,7.66,0,0,1-1,4.08M22.5,356h0a2.79,2.79,0,0,1-.92-.16.87.87,0,0,1-.6-.67,1.52,1.52,0,0,0-.76.63,2.86,2.86,0,0,0-.45,1.78,10.28,10.28,0,0,0,1.91,5.81A28.51,28.51,0,0,0,26.75,369a54.4,54.4,0,0,0,6.4,4.79c-.22-.42-.43-.85-.61-1.29a15.93,15.93,0,0,1-.88-2.66,11.07,11.07,0,0,1-.31-2.54,14,14,0,0,1,.4-3.49,23.43,23.43,0,0,1,.9-2.72,42.42,42.42,0,0,1-8.38-7.87,2.55,2.55,0,0,1,.13.84,1.84,1.84,0,0,1-.54,1.36,1.89,1.89,0,0,1-1.36.53m31.26,0A15.15,15.15,0,0,1,56.45,354l-.43-.2c-.44-.19-.91-.36-1.37-.52a18.2,18.2,0,0,0-1,2.54l.13.12M61,356l.13-.13a17,17,0,0,0-1-2.55c-.47.16-.93.32-1.38.51l-.44.19A15,15,0,0,1,61,356m-3.64,7.52c.26,0,.52-.06.76-.11a4.36,4.36,0,0,0,1.68-.69A3.52,3.52,0,0,0,61,361.23a6.17,6.17,0,0,0,.46-2.5V358a2.46,2.46,0,0,0-.12-.76,18,18,0,0,0-4-2.74,18.22,18.22,0,0,0-1.63.93,17.31,17.31,0,0,0-2.32,1.77,2.25,2.25,0,0,0-.13.76v.76a6.08,6.08,0,0,0,.43,2.51,3.49,3.49,0,0,0,1.17,1.49,4.38,4.38,0,0,0,1.68.71c.25.05.52.08.79.12m0,3.2,1.12-.07a9.18,9.18,0,0,0,2.44-.56,4.49,4.49,0,0,0,1.85-1.36,4,4,0,0,0,.74-2.5A7.55,7.55,0,0,0,63.2,360a6.49,6.49,0,0,0-.85-1.81l-.13.13v.89a5.87,5.87,0,0,1-.52,2.59,4,4,0,0,1-1.37,1.59,5.4,5.4,0,0,1-1.72.72v.28a10.16,10.16,0,0,1-1.23-.08,10.19,10.19,0,0,1-1.24.07h0v-.29a5.49,5.49,0,0,1-1.71-.73,4.11,4.11,0,0,1-1.36-1.6,5.76,5.76,0,0,1-.5-2.6v-.89l-.13-.12a6,6,0,0,0-.86,1.8,7.25,7.25,0,0,0-.36,2.25,3.86,3.86,0,0,0,.72,2.51,4.39,4.39,0,0,0,1.83,1.37,8.81,8.81,0,0,0,2.44.58l1.2.09m0,19.76c1.91-.84,4-1.77,6.13-2.77q4.35-2,8.74-4.31,4-2.1,7.82-4.41a19.1,19.1,0,0,0,1.37-2.42,12.05,12.05,0,0,0,1.16-5,17.29,17.29,0,0,0-.27-3.2,12.68,12.68,0,0,0-.85-2.7,49.49,49.49,0,0,1-4.64,2.9,52,52,0,0,1-5.47,2.61,46.1,46.1,0,0,1-5.75,1.91,21.49,21.49,0,0,1-5.36.74h-.06a18.79,18.79,0,0,1-2.82-.2,19.69,19.69,0,0,1-2.76.18h-.1a21.23,21.23,0,0,1-5.42-.78,46.29,46.29,0,0,1-5.74-2,49.81,49.81,0,0,1-5.44-2.65,48.94,48.94,0,0,1-4.62-2.94,13,13,0,0,0-.87,2.69,17.18,17.18,0,0,0-.3,3.21,11.86,11.86,0,0,0,1.13,5,16.58,16.58,0,0,0,1.22,2.23q3.95,2.44,8.11,4.67,4.36,2.34,8.7,4.38c2.17,1,4.2,2,6.09,2.82M50.42,391a2.28,2.28,0,0,1,.46-1.39l-.52.06q-2.56.38-5.3.81t-5.65.8a47.17,47.17,0,0,1-6,.35h-.24a29.6,29.6,0,0,1-3.8-.26,31.38,31.38,0,0,1-4.25-.91l-.13.13c1.69.76,3.58,1.64,5.67,2.62s4.19,2,6.3,3.1,4.18,2.21,6.2,3.36,3.82,2.23,5.38,3.25c2.24,1.49,4.27,3,6.11,4.47.93.76,1.8,1.51,2.6,2.27.82-.75,1.69-1.5,2.63-2.26,1.85-1.47,3.89-2.94,6.14-4.41q2.35-1.51,5.41-3.21t6.23-3.31c2.12-1.07,4.22-2.09,6.32-3.05s4-1.82,5.69-2.58l-.13-.13a31,31,0,0,1-4.25.88,31.66,31.66,0,0,1-3.7.23H81.5a48.5,48.5,0,0,1-6.21-.4c-2-.26-3.83-.55-5.65-.85l-5.29-.85-.53-.07a2.36,2.36,0,0,1,.46,1.41,10.24,10.24,0,0,1-1.3-.51,8.74,8.74,0,0,0-1.61-.58,20.41,20.41,0,0,0-2.32-.45c-.5-.07-1.1-.13-1.77-.16s-1.15.08-1.62.14a20.84,20.84,0,0,0-2.32.43,10.06,10.06,0,0,0-1.62.57,9.59,9.59,0,0,1-1.3.5m6.83,24.54c.3-.35.6-.7.91-1s.71-.75,1.07-1.11a25.24,25.24,0,0,0-2-2.41,27.09,27.09,0,0,0-2,2.39c.36.37.72.74,1.07,1.13s.61.69.9,1M53.57,421l.2-.35c-.12-.28-.24-.56-.33-.83h.38a2.62,2.62,0,0,0,.23.32,32.06,32.06,0,0,1,2.53-3.76,27,27,0,0,0-2-2l-.22.32A8.17,8.17,0,0,0,53,418.94a3.35,3.35,0,0,0,.6,2m6.84-.83a2.44,2.44,0,0,0,.23-.33H61a8.43,8.43,0,0,1-.33.83l.19.36a3.18,3.18,0,0,0,.62-2,8.07,8.07,0,0,0-1.37-4.32l-.22-.33a26.82,26.82,0,0,0-2,2,33.5,33.5,0,0,1,2.49,3.79M49.26,451.21a19.09,19.09,0,0,0,2.81-.21c.61-1,1.28-1.95,2-2.88A20.4,20.4,0,0,1,51.25,443c-2.21-1.31-4.48-2.62-6.83-3.92q-3.93-2.18-7.78-4.47a64.36,64.36,0,0,1-7.22-5,37.81,37.81,0,0,1-6-6,22.87,22.87,0,0,1-3.93-7.46h-.13a31,31,0,0,0-.52,4q-.14,2-.15,4.53a23.75,23.75,0,0,0,1.3,8.13,24.89,24.89,0,0,0,3.56,6.64,24.25,24.25,0,0,0,5.28,5.13,35.11,35.11,0,0,0,6.42,3.64,36,36,0,0,0,7,2.22,34.55,34.55,0,0,0,6.94.75h.07m15.88.06a34.74,34.74,0,0,0,6.83-.7,35.52,35.52,0,0,0,7-2.16,34.86,34.86,0,0,0,6.45-3.59,24.21,24.21,0,0,0,5.32-5.08,24.75,24.75,0,0,0,3.61-6.62A23.58,23.58,0,0,0,95.7,425c0-1.69,0-3.21-.1-4.54a31.44,31.44,0,0,0-.5-4H95a22.64,22.64,0,0,1-4,7.44,37.85,37.85,0,0,1-6,5.91,62.23,62.23,0,0,1-7.25,4.92q-3.87,2.26-7.82,4.41Q66.37,441.1,63,443a20.64,20.64,0,0,1-2.86,5.11c.7.93,1.35,1.89,2,2.88a18.65,18.65,0,0,0,2.88.24h.12M57.21,421.9a8.22,8.22,0,0,0,1.3-.37,4.55,4.55,0,0,0,1.28-.73,27.52,27.52,0,0,0-2.55-3.69,27.73,27.73,0,0,0-2.57,3.67,4.08,4.08,0,0,0,1.27.74,8.61,8.61,0,0,0,1.27.38m-2.91-.26,0-.11,0,.06.08.05m5.84,0,.1-.05,0-.07-.06.12m-3,23.09a39.56,39.56,0,0,1,4.13-3.49c.63-.47,1.28-.94,1.94-1.39a20.32,20.32,0,0,0,.52-4.34,29,29,0,0,0-1.74-10c-.12-.33-.25-.66-.38-1a3.79,3.79,0,0,1-2.07.57h0a4.56,4.56,0,0,1-2.09-.48l-.21-.12-.2.11a4.63,4.63,0,0,1-2.07.47h0a3.75,3.75,0,0,1-2.08-.59q-.21.5-.39,1a28.7,28.7,0,0,0-1.82,10,20.93,20.93,0,0,0,.49,4.35c.65.47,1.29.93,1.93,1.41a39.25,39.25,0,0,1,4.09,3.52m-2.5,2.66c.4-.46.81-.92,1.23-1.37a41.5,41.5,0,0,0-3.58-2.43,16.13,16.13,0,0,0,2.35,3.8m5,0a16,16,0,0,0,2.39-3.8q-1.92,1.16-3.61,2.4c.42.46.83.93,1.22,1.4m-2.49,1.9a8.84,8.84,0,0,0,1.47-1.08c-.47-.43-1-.84-1.47-1.25-.51.4-1,.81-1.48,1.23a9.47,9.47,0,0,0,1.48,1.1m-3.93,1.45c.37-.08.74-.16,1.11-.26a12.08,12.08,0,0,0,1.57-.55,13.79,13.79,0,0,1-1.12-1,22.78,22.78,0,0,0-1.56,1.85m7.83,0A22.53,22.53,0,0,0,59.48,449c-.35.37-.73.7-1.11,1a13.44,13.44,0,0,0,1.55.56c.36.1.73.18,1.1.26M46,0,47.3,4.4c5.82,19,5.13,32.61,3.92,35.93A66.86,66.86,0,0,1,48.07,47c-.52,1-1,2-1.41,2.55-1.12-1.85-2.75-8.82.13-15.08.37-.81.79-1.54,1.19-2.25,1.11-1.94,2.16-3.78,1.82-6.48-.32-2.46-1.93-5.86-4.15-5.86h-.07c-2.12.07-3.06,3-4.48,7.41a48.26,48.26,0,0,0-2,9A90,90,0,0,0,39,47c.1,4,.24,5.56,1.44,7.29a8.33,8.33,0,0,0,5.09,3.64,6.8,6.8,0,0,0,1.49.16,9.91,9.91,0,0,0,2-.24,4.61,4.61,0,0,1,.8-.13h0a1.24,1.24,0,0,1,0,.62,4,4,0,0,1-1.56,2.5,3.22,3.22,0,0,1-2,.55h-.65l-.69,0a4.29,4.29,0,0,0-2.38.6c-2.47,1.59-1.86,5.15-.76,11.61l.17,1c0,.06,1,6.12,2.42,15.94.44,3.12.71,5.36.87,7-.33-.91-.66-1.87-1-2.72C42,88,41.61,87.1,40.53,87.09h-.1l-.13,0c-1.08.22-1,1.31-.82,2.69.24,2.42.7,6.91-1.71,11.24-1.41,2.54-2.37,3.27-2.66,3.36-.18-.18-.89-1.24-.92-6.93,0-4.06.29-9.22.6-14.21.2-3.3.38-5.41.55-7.28.22-2.55.4-4.57.48-8.28a74,74,0,0,0-.23-7.66c-.12-1.71-.25-3.65-.36-6.74-.28-8,0-13.63.16-17,.18-3.73.22-4.62-1-4.74h-.13c-.65,0-1.63.09-3.18,8.23a103.67,103.67,0,0,0-1.75,17.92,41.1,41.1,0,0,0,.47,7.77,38.44,38.44,0,0,1,.43,7.17,111.71,111.71,0,0,1-.93,12.42c-.67,5.77-1.25,10.75-.15,18.18,1,6.5,2.52,9.94,4.48,9.94,1.62,0,2.84-1.94,5.71-6.6.52-.85.93-1.56,1.28-2.15,1.08-1.84,1.35-2.24,1.78-2.31a.71.71,0,0,1,.2,0,5.22,5.22,0,0,1,2.61,1.44,5.42,5.42,0,0,0,3.12,1.59,2.24,2.24,0,0,0,.81-.15,3,3,0,0,0,1.59-2l.07-.21a5.37,5.37,0,0,0-.17-3.88,8,8,0,0,1-.5-3.25c0-.18,0-.35.06-.52.23.69.44,1.46.55,1.87,1,3.51,1.42,5.11.75,6.83a6.85,6.85,0,0,1-2,2.61l-.84.8a25.92,25.92,0,0,0-5.78,8.91c-.2.46-.43,1-.62,1.36a27.87,27.87,0,0,1-.76-5c-.31-3.29-.46-5-1.81-5h-.07c-1.68,0-2.2,2-5,19.66-1.13,7.14-1.39,10-.79,13.8a40.89,40.89,0,0,0,3,9.82c1,2.38,2,4.39,2.79,6a47.75,47.75,0,0,1-4.52-6.22,58.54,58.54,0,0,1-2.85-5.42,75.73,75.73,0,0,0-5.13-9.25,25.83,25.83,0,0,0-3.62-4.51c-3.07-3.05-7.2-5.42-8.7-5.42a1.29,1.29,0,0,0-1,.38c-.92,1,0,2,2.43,4.9,2.28,2.68,5.74,6.73,7.37,10.6a17.59,17.59,0,0,1,1.13,3.89,16.25,16.25,0,0,1,.11,4.4,36.08,36.08,0,0,0-.92-4c-.85-2.82-2.13-6.18-3.45-6.18h-.11l-.13,0c-1.16.27-1,1.5-.63,3.73v0c-.54-1-1.1-2.19-1.52-3.07-1.85-3.83-2.18-4.47-3.06-4.47H15l-.15,0c-1,.28-.82,1.39-.73,2,.46,3.28,3.61,14.25,7,24.46C27.82,183,29.57,183,30.52,183a1.09,1.09,0,0,0,.26,0c1.81-.36,1.55-3.08.47-11.61-.47-3.76-1-8-1.1-11.31-.13-4.87.8-5.19.81-5.19H31c2.25,0,8.88,9.69,12.19,20.74,1.91,6.38,5.88,19.67-.4,24.79-2.13,1.74-6,3.08-9.75,4.38-4.09,1.42-8,2.77-9.55,4.67a19.16,19.16,0,0,0-1.7,2.46c-1.47,2.52-2.28,3.91-1.42,5a2.17,2.17,0,0,0,1.81.68c2.74,0,9.07-2.5,13.64-4.85l.44-.23a23,23,0,0,1,7.52-2.7q.32-.06.63-.09a15.3,15.3,0,0,0-1.83,1c-3.4,2.11-5.66,6-6.56,11.18l-.09,0a10.67,10.67,0,0,0-3.65,2,10.06,10.06,0,0,0-2.54,3.36,10.48,10.48,0,0,0-1,4.58,11,11,0,0,0,1.24,5.27A11.86,11.86,0,0,0,33.42,241a16.19,16.19,0,0,0,4.8,2.43,18.26,18.26,0,0,0,3.92.73,3.93,3.93,0,0,0,2.57,1.42,1.42,1.42,0,0,0,.42-.05,1.11,1.11,0,0,0,.74-.61,1.26,1.26,0,0,0,.09-.69c.64-.05,1.4-.13,2.27-.25l.94-.13-.08-1-.06-.7-.09-1-1,.13c-.65.07-1.31.13-2,.17-.41,0-.84,0-1.27.05-1.75-3.22-4.8-9-3.26-13.58.27-.83.54-1.63.8-2.38a17.06,17.06,0,0,1,6.61,2.1,25,25,0,0,1,7.11,6A38,38,0,0,0,54,237a37.13,37.13,0,0,0-3,7.81,35.34,35.34,0,0,0-1.09,7.76c-1.57-1.07-3.23-2.14-5-3.19-2.39-1.44-5-3-7.75-4.75s-5.08-3.14-7.16-4.49a36.42,36.42,0,0,1-5.29-4.1,15.14,15.14,0,0,1-3.24-4.27,11.53,11.53,0,0,1-1.08-5.13,9.41,9.41,0,0,1,.09-1.07,4.4,4.4,0,0,1,.32-1.11,3.7,3.7,0,0,1,.32-.59,3.23,3.23,0,0,0,.46.59,3.06,3.06,0,0,0,2.2.91,3.59,3.59,0,0,0,2.31-.76,3,3,0,0,0,1.05-2.39,3.44,3.44,0,0,0-1-2.52,3.64,3.64,0,0,0-2.7-1,5.07,5.07,0,0,0-4.18,2.29,9.67,9.67,0,0,0-1.61,5.79,17.38,17.38,0,0,0,2.46,9.16,31.5,31.5,0,0,0,6.25,7.39l.17.15a5.24,5.24,0,0,0-1.92-.35,5.67,5.67,0,0,0-4.79,2.59A10.81,10.81,0,0,0,18.07,252a14.74,14.74,0,0,0,1.19,5.72c.2.47.41.94.65,1.39a16.14,16.14,0,0,0-1.6,3.77,24.28,24.28,0,0,0-.82,6.45,20.41,20.41,0,0,0,1.17,6.78,25.87,25.87,0,0,0,3.08,6.18A19.9,19.9,0,0,0,26,287a8.47,8.47,0,0,0,5.13,1.94,6.9,6.9,0,0,0,5-2,7.88,7.88,0,0,0,2.07-5.84,12.26,12.26,0,0,0-1.77-6.6,17.72,17.72,0,0,0-4.62-4.9L31,269l-.58.82-.32.44-.6.82.84.59a14,14,0,0,1,1.89,1.58,13.75,13.75,0,0,1,1.68,2,10.46,10.46,0,0,1,1.14,2.2,6.48,6.48,0,0,1,.41,2.25,3.48,3.48,0,0,1-1.09,2.89,5.82,5.82,0,0,1-3.59.91,7.91,7.91,0,0,1-4.48-1.25A11.17,11.17,0,0,1,23.09,279a15.34,15.34,0,0,1-1.94-4.39A17.23,17.23,0,0,1,20.5,270a10.39,10.39,0,0,1,.83-4.13,10.66,10.66,0,0,1,1.53-2.56,18.47,18.47,0,0,0,4.65,3.59,13.1,13.1,0,0,0,6.27,1.6h.06a9.51,9.51,0,0,0,3.87-.73,7.7,7.7,0,0,0,2.72-2A18.66,18.66,0,0,1,41.57,268c.75,1.63,1.51,3.27,2.26,4.92a8.06,8.06,0,0,0,3,3.68,8.51,8.51,0,0,0,4.57,1.18c.32,0,.64,0,1,.05A15.26,15.26,0,0,0,51,280.44a12.72,12.72,0,0,0-.46,1.27h0l-.69-.07-.74-.07-.28.69a6.18,6.18,0,0,0-.32,1.36,11.21,11.21,0,0,0-.15,1.86,13.15,13.15,0,0,0,.6,3.92,12,12,0,0,0,.86,2.1,10,10,0,0,0-2.35-.29,7.57,7.57,0,0,0-4.34,1.29A5.23,5.23,0,0,0,41,297.13a9.73,9.73,0,0,0,1.82,5.9A16.47,16.47,0,0,0,46,306.39c-1.07-.77-2.16-1.56-3.25-2.38-2.44-1.83-4.83-3.54-7.08-5.09a71,71,0,0,0-6.39-4A11.89,11.89,0,0,0,24,293.27a6,6,0,0,0-4.39,1.54A6.51,6.51,0,0,0,18,299.58a13,13,0,0,0,1.38,5.54,33.47,33.47,0,0,0,3.38,5.54c.67.9,1.38,1.79,2.13,2.66q-1.86-1.21-3.79-2.51c-2.24-1.51-4.5-3.14-6.72-4.84a59.24,59.24,0,0,1-5.93-5.23,25.93,25.93,0,0,1-4.16-5.46,10.91,10.91,0,0,1-1.5-5.41,7.76,7.76,0,0,1,1.71-5.21A5.61,5.61,0,0,1,9,282.78c2.06,0,3.54.42,4.44,1.25a3.45,3.45,0,0,1,1.31,2.59,6.23,6.23,0,0,1-.34,2c-.25.72-.52,1.45-.81,2.15l-.36.86.83.42.51.25.8.4.49-.74a12.39,12.39,0,0,0,1.32-2.83,10.37,10.37,0,0,0,.58-3.29,9,9,0,0,0-.56-3.11A8.37,8.37,0,0,0,15.58,280a8.14,8.14,0,0,0-2.6-1.9,8.41,8.41,0,0,0-3.49-.74,8.6,8.6,0,0,0-4.24,1,8.85,8.85,0,0,0-3,2.67,11.45,11.45,0,0,0-1.72,3.74A16.72,16.72,0,0,0,0,289a19.62,19.62,0,0,0,1.81,8.36,31.42,31.42,0,0,0,4.78,7.36,54.78,54.78,0,0,0,6.76,6.56c2.5,2.05,5.11,4.05,7.76,6l31.3,20.52-1.31.84-.28.19A45.39,45.39,0,0,0,45,334.59,37.13,37.13,0,0,0,37.5,331a25.15,25.15,0,0,0-8.09-1.39h-.08A12.45,12.45,0,0,0,21,332.34c-2.15,1.85-3.25,4.63-3.26,8.26a15,15,0,0,0,1.43,6.26,30.93,30.93,0,0,0,2.1,3.86,3.4,3.4,0,0,0-1.3.58,4.66,4.66,0,0,0-1.31,1.54,7.38,7.38,0,0,0-.66,1.83,8.72,8.72,0,0,0-.23,1.83,13.15,13.15,0,0,0,2.16,7.15,30.51,30.51,0,0,0,5.45,6.29,59.14,59.14,0,0,0,7.44,5.58l.39.25A13,13,0,0,0,35.07,378l.65.62.68-.58.21-.18c1.47.85,3,1.67,4.42,2.43,2.75,1.43,5.39,2.73,7.86,3.86l2.28,1.05h-.41a52.72,52.72,0,0,0-6.18.36c-2.13.25-4.23.52-6.24.81s-4.22.55-6.27.79a50.84,50.84,0,0,1-5.95.35h-.21a35.83,35.83,0,0,1-7.09-.77l-1.2-.25v2.32l.6.27c5.37,2.37,10.64,4.85,15.66,7.37a140.55,140.55,0,0,1,13.7,7.77c1.24.83,2.65,1.85,4.18,3a37.4,37.4,0,0,1,3.45,3c-.3.31-.58.59-.83.87A28.76,28.76,0,0,0,49,407.35a18.5,18.5,0,0,0-8.64-2.4H40.3a16.09,16.09,0,0,0-4.47.62A11.86,11.86,0,0,0,32,407.5a9.74,9.74,0,0,0-2.74,3.31,10.23,10.23,0,0,0-1.05,4.67,13.7,13.7,0,0,0,1.45,6.3,15.41,15.41,0,0,0,4,5A19.11,19.11,0,0,0,39.74,430a24.76,24.76,0,0,0,7.57,1.16h1.83a33.08,33.08,0,0,0-.28,4.14c0,.61,0,1.23.06,1.84-1.11-.74-2.21-1.44-3.3-2.11-2.75-1.67-5.56-3.32-8.35-4.9a87.63,87.63,0,0,1-7.57-4.77,37.38,37.38,0,0,1-5.85-5A12.57,12.57,0,0,1,20.8,415c.15-1,.3-1.84.44-2.54s.29-1.44.42-2.05.24-1.22.31-1.72a12.24,12.24,0,0,0,.11-1.62,5.56,5.56,0,0,0-.36-2.14,2.11,2.11,0,0,0-4,.21,8.54,8.54,0,0,0-.35,2.67c0,.86,0,1.64.06,2.32a18.39,18.39,0,0,0,.19,1.87c.08.54.18,1.08.28,1.62s.18.95.25,1.45c-.16.66-.31,1.31-.45,2s-.29,1.52-.4,2.36-.2,1.8-.27,2.82-.11,2.23-.11,3.55a28.23,28.23,0,0,0,2.09,10.67,32.29,32.29,0,0,0,5.79,9.41,29.46,29.46,0,0,0,8.77,6.77,24.35,24.35,0,0,0,11.06,2.62h.11a28.84,28.84,0,0,0,4-.28h.13a22.21,22.21,0,0,0-1.38,5l-.14.89.88.23.51.13,1,.26L50,460.4a21.22,21.22,0,0,1,2-5.78l.21-.38.74-.22a21.77,21.77,0,0,0,3.9-1.71l.32-.19.31.18a21.45,21.45,0,0,0,3.88,1.75l.73.23a3.72,3.72,0,0,1,.21.39,21.2,21.2,0,0,1,1.92,5.79l.18,1.06,1-.26.51-.13.88-.21-.13-.9a21.79,21.79,0,0,0-1.34-5l.14,0a30.31,30.31,0,0,0,4.07.31h.11a24.39,24.39,0,0,0,11-2.54,29.31,29.31,0,0,0,8.83-6.69,32.51,32.51,0,0,0,5.86-9.37,28.21,28.21,0,0,0,2.18-10.65c0-1.33,0-2.52-.08-3.55s-.14-2-.25-2.82-.23-1.64-.38-2.37-.28-1.3-.43-2c.07-.5.16-1,.25-1.44s.21-1.09.3-1.63.16-1.17.21-1.86.07-1.46.07-2.32a8.12,8.12,0,0,0-.33-2.68,2.11,2.11,0,0,0-3.95-.24,5.54,5.54,0,0,0-.38,2.14,12.36,12.36,0,0,0,.1,1.62c.06.5.16,1.08.29,1.72s.26,1.3.4,2.05.28,1.55.43,2.55a12.55,12.55,0,0,1-3.09,5.29,37.64,37.64,0,0,1-5.9,5c-2.3,1.6-4.86,3.18-7.61,4.71s-5.62,3.18-8.39,4.83c-1.09.66-2.2,1.35-3.32,2.08,0-.61.08-1.22.08-1.83a31.57,31.57,0,0,0-.25-4.15h2a24.36,24.36,0,0,0,7.46-1.1,18.78,18.78,0,0,0,6.11-3.19A15.33,15.33,0,0,0,84.84,422a13.59,13.59,0,0,0,1.5-6.28,10.17,10.17,0,0,0-1-4.68,9.64,9.64,0,0,0-2.71-3.33,11.87,11.87,0,0,0-3.87-2,16.16,16.16,0,0,0-4.53-.66h-.06a18.56,18.56,0,0,0-8.61,2.33,28.72,28.72,0,0,0-5.39,3.7c-.25-.28-.52-.56-.82-.87a36.06,36.06,0,0,1,3.48-3c1.54-1.16,3-2.17,4.21-3a143.84,143.84,0,0,1,13.75-7.65c5-2.48,10.34-4.91,15.72-7.24l.6-.26V386.8l-1.2.24a35.16,35.16,0,0,1-7,.72h-.14a50.15,50.15,0,0,1-6.15-.4c-2.06-.26-4.16-.55-6.26-.85s-4.13-.58-6.23-.85a50.37,50.37,0,0,0-6.41-.41h-.18c.72-.33,1.48-.68,2.28-1,2.48-1.12,5.14-2.39,7.9-3.8q2.14-1.1,4.31-2.33l.14.11.67.59.66-.61a13.56,13.56,0,0,0,1.75-2l.75-.47a57.58,57.58,0,0,0,7.47-5.52A30.12,30.12,0,0,0,95,364a13.1,13.1,0,0,0,2.21-7.13A8.08,8.08,0,0,0,97,355a8.26,8.26,0,0,0-.65-1.83,4.67,4.67,0,0,0-1.3-1.55,3.46,3.46,0,0,0-1.47-.63,30.31,30.31,0,0,0,2.11-3.81,15.13,15.13,0,0,0,1.48-6.24c0-3.63-1.06-6.42-3.2-8.29a12.48,12.48,0,0,0-8.41-2.79h-.1a25.36,25.36,0,0,0-8,1.32,37.49,37.49,0,0,0-7.58,3.53,44.6,44.6,0,0,0-5.72,4.12L64,338.7l-1.3-.86,31.43-20.25c2.7-1.92,5.33-3.9,7.84-5.93a55,55,0,0,0,6.82-6.5,32.13,32.13,0,0,0,4.84-7.32,19.59,19.59,0,0,0,1.87-8.34,16.86,16.86,0,0,0-.52-4.29,11.55,11.55,0,0,0-1.69-3.75,8.94,8.94,0,0,0-3-2.69,8.47,8.47,0,0,0-4.23-1,8.32,8.32,0,0,0-3.5.71,8,8,0,0,0-2.61,1.87,8.3,8.3,0,0,0-1.63,2.7,8.83,8.83,0,0,0-.59,3.1,10.53,10.53,0,0,0,.55,3.31,12.82,12.82,0,0,0,1.3,2.83l.48.75.81-.4.5-.25.84-.41-.35-.86c-.29-.71-.56-1.44-.79-2.16a6.21,6.21,0,0,1-.33-2,3.46,3.46,0,0,1,1.33-2.58,6.44,6.44,0,0,1,4.35-1.22h.06a5.63,5.63,0,0,1,4.54,1.93,7.79,7.79,0,0,1,1.67,5.22,11,11,0,0,1-1.54,5.4,26.13,26.13,0,0,1-4.21,5.42,58.45,58.45,0,0,1-6,5.18c-2.23,1.69-4.5,3.3-6.75,4.79l-3.81,2.48c.75-.86,1.47-1.75,2.15-2.64A33.63,33.63,0,0,0,96,305.42a12.64,12.64,0,0,0,1.42-5.53,6.5,6.5,0,0,0-1.54-4.77,5.92,5.92,0,0,0-4.38-1.58,11.82,11.82,0,0,0-5.36,1.65,67,67,0,0,0-6.42,3.9c-2.27,1.53-4.67,3.23-7.13,5-1.1.8-2.19,1.59-3.27,2.35a16.24,16.24,0,0,0,3.28-3.34,9.73,9.73,0,0,0,1.87-5.88,5.21,5.21,0,0,0-2.1-4.64,7.51,7.51,0,0,0-4.33-1.33,10.51,10.51,0,0,0-2.59.33,11.66,11.66,0,0,0,.91-2.15,13.28,13.28,0,0,0,.64-3.92,12.42,12.42,0,0,0-.14-1.86,5.74,5.74,0,0,0-.31-1.37l-.27-.69-.74.07-.7.06h0c-.14-.43-.28-.85-.45-1.26A14.85,14.85,0,0,0,63,277.82l.94,0H64a8.57,8.57,0,0,0,4.54-1.15A8.12,8.12,0,0,0,71.63,273q1.14-2.46,2.3-4.9a20.13,20.13,0,0,1,1.15-2.1,7.84,7.84,0,0,0,2.71,2,9.68,9.68,0,0,0,3.92.76h.06A13.07,13.07,0,0,0,88,267.16a18.6,18.6,0,0,0,4.67-3.55,11.18,11.18,0,0,1,1.52,2.56,10.55,10.55,0,0,1,.79,4.15,17.68,17.68,0,0,1-.68,4.55,15.49,15.49,0,0,1-2,4.37,11.17,11.17,0,0,1-3.24,3.22,7.89,7.89,0,0,1-4.4,1.21,5.91,5.91,0,0,1-3.67-.94,3.43,3.43,0,0,1-1.06-2.9,6.18,6.18,0,0,1,.42-2.24,10,10,0,0,1,1.16-2.19,12.66,12.66,0,0,1,1.69-2,14,14,0,0,1,1.91-1.57l.84-.57-.59-.83-.32-.45-.58-.82-.81.59A17.32,17.32,0,0,0,79,274.64a12.2,12.2,0,0,0-1.83,6.58,7.89,7.89,0,0,0,2,5.86,6.89,6.89,0,0,0,5,2,8.47,8.47,0,0,0,5.15-1.9,19.88,19.88,0,0,0,4.33-4.59,25.78,25.78,0,0,0,3.13-6.15A20.45,20.45,0,0,0,98,269.69a24,24,0,0,0-.77-6.46,15.93,15.93,0,0,0-1.56-3.78,14.44,14.44,0,0,0,.65-1.38,14.8,14.8,0,0,0,1.25-5.71A10.82,10.82,0,0,0,95.84,246a5.64,5.64,0,0,0-4.77-2.63,5.24,5.24,0,0,0-1.92.34l.17-.15a31.63,31.63,0,0,0,6.32-7.34,17.5,17.5,0,0,0,2.53-9.14,9.65,9.65,0,0,0-1.57-5.8,5.06,5.06,0,0,0-4.16-2.33,3.69,3.69,0,0,0-2.71,1,3.43,3.43,0,0,0-1,2.51,2.9,2.9,0,0,0,1,2.4,3.64,3.64,0,0,0,2.31.78,3.08,3.08,0,0,0,2.21-.89,3.23,3.23,0,0,0,.46-.59,3.41,3.41,0,0,1,.32.6,4,4,0,0,1,.3,1.1,7.8,7.8,0,0,1,.09,1.07A11.47,11.47,0,0,1,94.29,232,15.74,15.74,0,0,1,91,236.29a36.85,36.85,0,0,1-5.33,4.05c-2.1,1.34-4.45,2.79-7.19,4.43s-5.42,3.28-7.79,4.69c-1.74,1-3.41,2.09-5,3.15a34.76,34.76,0,0,0-1-7.76,36.85,36.85,0,0,0-2.9-7.83,32.32,32.32,0,0,0-2-3.4A24.9,24.9,0,0,1,67,227.71a17.29,17.29,0,0,1,6.11-2c.25.75.51,1.52.77,2.34,1.49,4.61-1.57,10.31-3.36,13.53l-.76,0c-.64,0-1.29-.11-1.93-.19l-1-.13-.1,1-.06.7-.09.94.94.14c.64.09,1.23.17,1.74.22a1.25,1.25,0,0,0,.08.74,1.06,1.06,0,0,0,.73.62,1.61,1.61,0,0,0,.44.06A3.94,3.94,0,0,0,73,244.31a18.55,18.55,0,0,0,4.51-.75,16,16,0,0,0,4.81-2.39,11.81,11.81,0,0,0,3.41-3.9A11,11,0,0,0,87,232a10.7,10.7,0,0,0-.93-4.59,10.19,10.19,0,0,0-2.52-3.38A10.82,10.82,0,0,0,79.9,222a5.46,5.46,0,0,0-.66-.19c-.87-5.13-3.08-8.95-6.43-11.07a16.16,16.16,0,0,0-1.83-1l.63.1a23.1,23.1,0,0,1,7.5,2.76l.44.23c4.58,2.41,10.91,5,13.64,5a2.12,2.12,0,0,0,1.77-.67c.87-1.06.08-2.45-1.37-5a20.07,20.07,0,0,0-1.69-2.48c-1.57-1.91-5.43-3.29-9.51-4.74-3.73-1.33-7.59-2.7-9.71-4.46-6.24-5.17-2.16-18.42-.2-24.79,3.39-11,10.1-20.64,12.36-20.64h.07s1,.33.78,5.2c-.12,3.3-.69,7.55-1.2,11.3-1.15,8.53-1.42,11.24.38,11.62a1.24,1.24,0,0,0,.27,0c1,0,2.71,0,9.62-20.23,3.49-10.23,6.72-21.16,7.19-24.38.08-.54.24-1.67-.73-2l-.14,0h-.16c-.87,0-1.21.63-3.09,4.44-.43.88-1,2-1.54,3.06v0c.36-2.23.56-3.46-.59-3.73l-.11,0h-.14c-1.32,0-2.63,3.34-3.49,6.14a32.92,32.92,0,0,0-.95,3.94,15.93,15.93,0,0,1,.14-4.39,18.07,18.07,0,0,1,1.16-3.88c1.67-3.86,5.15-7.88,7.46-10.54,2.46-2.85,3.38-3.91,2.47-4.88a1.28,1.28,0,0,0-1-.39c-1.54,0-5.6,2.29-8.73,5.35a26.11,26.11,0,0,0-3.67,4.48,76.26,76.26,0,0,0-5.19,9.21c-.88,1.78-1.71,3.46-2.9,5.39a47.28,47.28,0,0,1-4.57,6.18c.86-1.6,1.85-3.59,2.84-6a40.69,40.69,0,0,0,3.11-9.79c.63-3.82.39-6.66-.68-13.81-2.64-17.67-3.14-19.7-4.82-19.7h-.08c-1.34.08-1.51,1.73-1.85,5a27.76,27.76,0,0,1-.79,5c-.19-.37-.41-.91-.61-1.37a26.18,26.18,0,0,0-5.71-9l-.83-.81a6.85,6.85,0,0,1-2-2.63c-.66-1.72-.2-3.32.8-6.82.12-.41.34-1.17.57-1.86,0,.16,0,.34,0,.51A8,8,0,0,1,65.67,99a5.35,5.35,0,0,0-.2,3.88l.07.21a2.94,2.94,0,0,0,1.57,2,2.31,2.31,0,0,0,.83.16,5.49,5.49,0,0,0,3.11-1.56,5.35,5.35,0,0,1,2.61-1.43l.21,0c.43.08.7.48,1.76,2.33.35.6.76,1.31,1.27,2.16,2.83,4.69,4,6.59,5.61,6.65h.06c2.47,0,3.83-5.39,4.54-9.91,1.16-7.41.62-12.4,0-18.18a111.52,111.52,0,0,1-.83-12.43,38.56,38.56,0,0,1,.49-7.16A42,42,0,0,0,87.3,58a103.86,103.86,0,0,0-1.6-18c-1.51-8.24-2.49-8.24-3.14-8.25h-.1c-1.2.11-1.16,1-1,4.73.13,3.38.36,9,0,17-.13,3.09-.29,5-.42,6.73a72.18,72.18,0,0,0-.28,7.67c0,3.71.2,5.72.4,8.28.15,1.86.32,4,.5,7.28.26,5,.53,10.15.48,14.21-.07,5.7-.8,6.75-1,6.93-.28-.09-1.23-.83-2.63-3.38-2.38-4.35-1.88-8.84-1.61-11.25.15-1.39.27-2.48-.81-2.71l-.11,0h-.13c-1.06,0-1.51.85-3.91,7.57-.3.85-.64,1.8-1,2.71.18-1.6.47-3.84.93-7,1.45-9.81,2.53-15.86,2.54-15.92l.18-1c1.16-6.46,1.8-10-.66-11.62a4.27,4.27,0,0,0-2.46-.62H70.34a3.31,3.31,0,0,1-2.1-.57,4,4,0,0,1-1.54-2.51,1.26,1.26,0,0,1,0-.62h0a5.72,5.72,0,0,1,.81.13,9.57,9.57,0,0,0,2.09.26A6.93,6.93,0,0,0,71.09,58a8.36,8.36,0,0,0,5.12-3.61c1.21-1.72,1.37-3.27,1.5-7.27a87,87,0,0,0,0-10.68,48.68,48.68,0,0,0-1.93-9C74.42,23,73.51,20.09,71.39,20H71.3c-2.21,0-3.84,3.38-4.18,5.83-.36,2.7.67,4.54,1.76,6.49.4.71.82,1.45,1.18,2.26,2.82,6.29,1.14,13.24,0,15.08-.35-.58-.87-1.58-1.38-2.55a66.24,66.24,0,0,1-3.1-6.73c-1.18-3.33-1.76-17,4.21-35.89L71.18.1,68.1,3.52c-5,5.57-8.25,11.37-9.62,17.29C57.16,14.88,54,9.05,49,3.44L46,0ZM58.34,55.2a26.63,26.63,0,0,1-1.65-7.15,32.82,32.82,0,0,1,1.19-12.89c.19-.75.38-1.5.55-2.25.17.76.35,1.5.53,2.25a32.62,32.62,0,0,1,1.09,12.9,26.24,26.24,0,0,1-1.71,7.14Zm-3.2,55.21c.12-.26.24-.52.36-.8,1.09-2.58,2.07-7.5-2-20.39a125.82,125.82,0,0,0-6-15.22c-2.25-5-3.2-7.2-2-8.46a5.84,5.84,0,0,1,4.18-1.38,6.9,6.9,0,0,1,5.22,2c.79,1,.75,2.08.6,4.49-.05.93-.12,2-.13,3.23a41.93,41.93,0,0,0,1.9,12.62l1,3.34.89-3.37A51.44,51.44,0,0,0,61,73.79c0-1.12,0-2.09,0-2.94-.06-2.54-.06-3.71.77-4.69a7,7,0,0,1,5.2-1.92,5.83,5.83,0,0,1,4.22,1.4c1.16,1.28.2,3.51-2.09,8.44A126.15,126.15,0,0,0,62.9,89.25c-4.17,12.86-3.23,17.79-2.16,20.38.12.28.24.55.36.8l-.9,4.88c-1.72,9.36-.58,17.65,3.39,24.65a19.32,19.32,0,0,0,3.82,4.95,7.71,7.71,0,0,1,2.33,3.49c1.8,5,0,9.51-3.67,18.39-1.7,4.13-3.81,9.28-6.1,15.85-.49,1.38-.72,2.11-.92,2.72s-.42,1.3-.93,2.67c-.11.29-.21.58-.32.86-.1-.29-.21-.57-.31-.87-.5-1.37-.67-1.91-.91-2.67-.19-.61-.42-1.34-.89-2.73-2.24-6.58-4.31-11.75-6-15.89-3.57-8.92-5.37-13.39-3.52-18.43a7.57,7.57,0,0,1,2.36-3.46,19.66,19.66,0,0,0,3.86-4.93c4-7,5.23-15.25,3.59-24.61l-.86-4.89ZM41.21,136.15a35.59,35.59,0,0,1,5.48-15.59,25.92,25.92,0,0,1,4.43-5.13,20.73,20.73,0,0,0,3.13-3.49L54,115.4a25.87,25.87,0,0,1-8,17.21,26.26,26.26,0,0,1-4.82,3.54Zm33.61.14A26.35,26.35,0,0,1,70,132.71a25.82,25.82,0,0,1-7.85-17.27L62,112a20.87,20.87,0,0,0,3.11,3.52,26.52,26.52,0,0,1,4.39,5.16,35.82,35.82,0,0,1,5.35,15.64ZM52.76,224.77a1.12,1.12,0,0,0,.9-.43c.46-.57.3-1.25-.07-2.91C53,219,52.12,215,53.13,210.85c.41-1.66.82-2.85,1.14-3.81.18-.5.33-.95.45-1.38a7.93,7.93,0,0,0,2.79,2.08l.44.19.42-.22a8.07,8.07,0,0,0,2.39-2c.12.42.26.85.42,1.33a39.62,39.62,0,0,1,1.11,3.82c1,4.13,0,8.17-.54,10.58-.39,1.65-.55,2.34-.09,2.91a1.15,1.15,0,0,0,.9.43,1.21,1.21,0,0,0,.38-.06c1.09-.34,4.75-5.83,6.66-8.8.07.18.14.39.23.61.48,1.29,1.11,3,1.89,5.18a16.85,16.85,0,0,0-2.16.64,25,25,0,0,0-5.9,3.15l-.06.05-.11.07-.4.29v.5c0,.22,0,.43,0,.64a56.47,56.47,0,0,0-4.85,4l-.32.31-.31-.3a54.11,54.11,0,0,0-4.81-4c0-.21,0-.43,0-.64v-.5l-.4-.29-.17-.13a24.89,24.89,0,0,0-5.88-3.2,16.78,16.78,0,0,0-2.65-.74c.78-2.15,1.42-3.82,1.9-5.08l.24-.62c1.89,3,5.5,8.51,6.58,8.86a1.32,1.32,0,0,0,.39.06Zm22.62,16.46a28.22,28.22,0,0,0,4.17-11.86,26.27,26.27,0,0,0,.1-3,9.25,9.25,0,0,1,1.78.89,7,7,0,0,1,2,2,5,5,0,0,1,.74,2.76,8.32,8.32,0,0,1-.92,3.85,9.17,9.17,0,0,1-2.53,3,12.84,12.84,0,0,1-5.39,2.35ZM39.72,241c-.28-.06-.54-.14-.8-.22a12.38,12.38,0,0,1-4-2,9.06,9.06,0,0,1-2.51-3,8.21,8.21,0,0,1-.89-3.86,4.83,4.83,0,0,1,.76-2.75,7,7,0,0,1,2.07-2,7.25,7.25,0,0,1,1.24-.65,26,26,0,0,0,.09,2.8,28.27,28.27,0,0,0,4,11.77ZM57,237.81c.29-.3.59-.6.91-.9.32.31.62.61.91.92a9,9,0,0,1-.91.53,6.47,6.47,0,0,1-.91-.55ZM27,251.6l1.37-1.37a3.43,3.43,0,0,0,1.06-2.49,4.45,4.45,0,0,0-.61-2.39,66.12,66.12,0,0,0,6,4.16c2.38,1.46,4.8,2.93,7.22,4.36H40.33v1a17,17,0,0,1-.31,3.27,7.57,7.57,0,0,1-.34,1.2c-.17-.22-.35-.43-.52-.64a15.22,15.22,0,0,0-4.27-3.48A12.3,12.3,0,0,0,29,253.83a10,10,0,0,0-7,2.78A9.23,9.23,0,0,1,20.83,252a3.68,3.68,0,0,1,.89-2.56,2.69,2.69,0,0,1,2.1-.93,5.63,5.63,0,0,1,2.25.38,1,1,0,0,1,.65.81L27,251.6ZM73.53,254c2.43-1.41,4.86-2.86,7.25-4.3a65.86,65.86,0,0,0,6-4.11,4.45,4.45,0,0,0-.63,2.38,3.41,3.41,0,0,0,1,2.5l1.36,1.38.33-1.91a1,1,0,0,1,.66-.8,5.68,5.68,0,0,1,2.2-.36,2.7,2.7,0,0,1,2.14.94,3.72,3.72,0,0,1,.88,2.58,9.25,9.25,0,0,1-1.13,4.6,10.23,10.23,0,0,0-2.38-1.72,9.93,9.93,0,0,0-4.64-1.11h-.07a12.33,12.33,0,0,0-5.86,1.33,14.91,14.91,0,0,0-4.3,3.45c-.17.2-.35.41-.52.63a8.55,8.55,0,0,1-.34-1.21,16.92,16.92,0,0,1-.28-3.26v-1H73.53ZM52.15,266.27a10.84,10.84,0,0,1-2.07-.6,11.12,11.12,0,0,1-3.72-2.37,10.51,10.51,0,0,1-2.42-3.63,12.86,12.86,0,0,1-.86-4.8v-.4l1,.61c2.09,1.22,4.14,2.48,6.11,3.73.11.72.22,1.33.34,1.89a22,22,0,0,0,1.79,5.18l-.21.39Zm13.19-7.41c2-1.22,4-2.46,6.14-3.68l1-.6V255a12.53,12.53,0,0,1-.9,4.78,10.4,10.4,0,0,1-2.45,3.62,11,11,0,0,1-3.74,2.34,11.49,11.49,0,0,1-2.08.58l-.19-.38A22.23,22.23,0,0,0,65,260.76c.13-.57.24-1.18.35-1.9Zm-39.18,1.9.31-.14a8.79,8.79,0,0,1,3.44-.73A12.13,12.13,0,0,1,35.36,261a12.42,12.42,0,0,1,1.84,1.16h0a6.45,6.45,0,0,1-2.9.58v1l0-1a19.14,19.14,0,0,1-5.06-.71,14.08,14.08,0,0,1-3-1.25Zm52.19,1.54a12.31,12.31,0,0,1,1.84-1.14,11.86,11.86,0,0,1,5.34-1.05h.08a8.72,8.72,0,0,1,3.47.76l.31.14a14.1,14.1,0,0,1-3,1.22,18.57,18.57,0,0,1-5,.67h-.08a6.33,6.33,0,0,1-2.94-.6Zm-36.26.82.08-.2q.13.36.3.72a17.43,17.43,0,0,0,2.5,4.12,13.14,13.14,0,0,0,3.67,3.05,10.63,10.63,0,0,0,1.46.65l-.06.21c-.89,0-1.61-.06-2.17-.12a4.72,4.72,0,0,1-1.47-.38,1.87,1.87,0,0,1-.72-.64,14,14,0,0,1-.84-1.6c-.8-1.82-1.65-3.64-2.53-5.39-.07-.15-.14-.28-.22-.42Zm23.28,8.39a8.62,8.62,0,0,0,1.46-.64,12.65,12.65,0,0,0,3.69-3,17.46,17.46,0,0,0,2.55-4.1l.3-.72c0,.07,0,.13.07.2l-.22.41c-.89,1.75-1.76,3.57-2.58,5.4a13.86,13.86,0,0,1-.85,1.57,1.77,1.77,0,0,1-.72.63,4.48,4.48,0,0,1-1.47.37c-.57.06-1.3.1-2.18.11a2.25,2.25,0,0,0,0-.22Zm-11.3.51a10,10,0,0,0,3.67-.81,9.74,9.74,0,0,0,3.65.83,17.67,17.67,0,0,0-2.27.61,14.35,14.35,0,0,0-1.4.6,12,12,0,0,0-1.38-.6,15.88,15.88,0,0,0-2.27-.63Zm-1,17.84a8.19,8.19,0,0,1-.56-3.22,7.53,7.53,0,0,1,1.1-4.15,8.65,8.65,0,0,1,2.8-2.72,11.35,11.35,0,0,1,1.3-.68,11.39,11.39,0,0,1,1.3.69,8.79,8.79,0,0,1,2.78,2.75,7.48,7.48,0,0,1,1.06,4.16,7.87,7.87,0,0,1-.58,3.19,5.15,5.15,0,0,1-.65.56,8.25,8.25,0,0,1-2.39,1.27,7.26,7.26,0,0,1-1.59.38,8.19,8.19,0,0,1-1.54-.38,8.64,8.64,0,0,1-2.38-1.29,7.56,7.56,0,0,1-.65-.56Zm-4.84,18,.2-1.59.07-.5.07-.56-.44-.35c-.6-.49-1.2-1-1.77-1.55a9.07,9.07,0,0,1-1.4-1.64,7.48,7.48,0,0,1-.92-1.93,8.26,8.26,0,0,1-.32-2.36,2.26,2.26,0,0,1,.88-2.07,4.6,4.6,0,0,1,2.67-.73,10.46,10.46,0,0,1,5.64,1.77,21.85,21.85,0,0,1,2.82,2.19,29.22,29.22,0,0,0-4.25,6.73,20.3,20.3,0,0,0-1.34,3.93l-.25-.17c-1-.63-1.91-1.29-2.89-2l1.23.81Zm11.5-9.3a21.15,21.15,0,0,1,2.85-2.18,10.41,10.41,0,0,1,5.58-1.72,4.67,4.67,0,0,1,2.73.75,2.26,2.26,0,0,1,.87,2.07,7.85,7.85,0,0,1-.35,2.36,7.19,7.19,0,0,1-.93,1.93,9.07,9.07,0,0,1-1.41,1.63c-.58.53-1.18,1.05-1.79,1.53l-.44.35.07.55.06.51.19,1.6,1.24-.81c-1,.68-2,1.33-2.9,2l-.26.17a20.45,20.45,0,0,0-1.31-3.94,29.09,29.09,0,0,0-4.2-6.76Zm-2.15,35.87L38.72,322A58.16,58.16,0,0,1,26,310.43a34.31,34.31,0,0,1-3.89-5.9,10.58,10.58,0,0,1-1.37-4.5,1.67,1.67,0,0,1,.38-1c.08-.1.38-.35,1.4-.35a9.88,9.88,0,0,1,4.3,1.45A71.53,71.53,0,0,1,33.05,304c2.26,1.54,4.64,3.24,7.08,5s4.89,3.55,7.19,5.1c1,.66,2,1.29,2.9,1.88a6,6,0,0,0,1,1.79A5.85,5.85,0,0,0,56,319.75a8.11,8.11,0,0,0,1.58-.17,7.41,7.41,0,0,0,1.62.19c2.24,0,3.86-.64,4.88-1.91a5.85,5.85,0,0,0,1-1.8c1-.58,1.94-1.2,2.91-1.85,2.31-1.53,4.74-3.23,7.23-5s4.85-3.47,7.12-5a70.34,70.34,0,0,1,6.27-3.79A10.13,10.13,0,0,1,92.9,299a2,2,0,0,1,1.43.37,1.6,1.6,0,0,1,.37,1,10.34,10.34,0,0,1-1.4,4.49,34,34,0,0,1-3.94,5.87,55.54,55.54,0,0,1-5.82,6.08,56.57,56.57,0,0,1-7,5.43l-19,12.26Zm-5-23.65a15.67,15.67,0,0,1,1.23-4.09,23.67,23.67,0,0,1,3.61-5.8l.26-.31.27.31a24.37,24.37,0,0,1,3.57,5.83,16,16,0,0,1,1.19,4.1c-1.32.78-2.56,1.48-3.71,2.06-.46.23-.92.44-1.37.63-.45-.19-.91-.4-1.36-.64-1.14-.59-2.38-1.29-3.69-2.09ZM33.09,358.26a31.66,31.66,0,0,1-3.51-2.7,37.74,37.74,0,0,1-4.34-4.5,27.72,27.72,0,0,1-3.28-5,10.14,10.14,0,0,1-1.24-4.56,4.67,4.67,0,0,1,.66-2.49,5.87,5.87,0,0,1,1.77-1.84,8.27,8.27,0,0,1,2.53-1.12,10.68,10.68,0,0,1,2.78-.37,31.42,31.42,0,0,1,10.14,1.79,43.66,43.66,0,0,1,9.63,4.7c.82.53,1.63,1.1,2.4,1.68v1.78l1.24-.8a35.91,35.91,0,0,1,3.67,3.5c-.64.93-1.19,1.82-1.67,2.69a18.34,18.34,0,0,0-2.4-.55,20,20,0,0,0-3.16-.28h-.09a18.18,18.18,0,0,0-8.94,2.25,17.75,17.75,0,0,0-6.18,5.82Zm31.37-14.51c.71-.52,1.45-1,2.21-1.52a44,44,0,0,1,9.66-4.61,31.25,31.25,0,0,1,10-1.71h.11a10.65,10.65,0,0,1,2.82.39,8.2,8.2,0,0,1,2.51,1.14,5.86,5.86,0,0,1,1.76,1.85,4.63,4.63,0,0,1,.64,2.5,10.14,10.14,0,0,1-1.27,4.55,27.91,27.91,0,0,1-3.33,5,38.39,38.39,0,0,1-4.37,4.46,31.28,31.28,0,0,1-3.54,2.67,17.75,17.75,0,0,0-6.12-5.87,18.13,18.13,0,0,0-9-2.32h-.06A20.52,20.52,0,0,0,61,351c-.47-.86-1-1.77-1.64-2.7a35.25,35.25,0,0,1,3.77-3.53l1.36.89v-1.95Zm-9.5-.91,2.59-1.67L60,342.78c-.83.89-1.62,1.78-2.34,2.68l-.23.28a3,3,0,0,0-.22-.28c-.69-.88-1.45-1.75-2.25-2.62ZM56.51,352c.28-.45.58-.9.9-1.34.32.44.62.89.89,1.34l-.9.41-.89-.41ZM35.45,359.7c3.07-4.37,7.42-6.49,13.25-6.49h.09a14.73,14.73,0,0,1,3.51.43l.28.07a15.89,15.89,0,0,0-.83,2.74,10.39,10.39,0,0,0-1.54,2.41,8.09,8.09,0,0,0-.77,3.49,10.2,10.2,0,0,0,.36,2.85A38.65,38.65,0,0,1,44.87,364a45.85,45.85,0,0,1-9.42-4.26Zm26.77-6,.28-.07a15.41,15.41,0,0,1,3.45-.4H66c5.88,0,10.24,2.19,13.29,6.6a45.86,45.86,0,0,1-9.45,4.18,35.55,35.55,0,0,1-4.94,1.2,10.35,10.35,0,0,0,.39-2.83,8.27,8.27,0,0,0-.75-3.5A10.3,10.3,0,0,0,63,356.5a15.32,15.32,0,0,0-.81-2.76ZM22.48,357h0a2.85,2.85,0,0,0,2.06-.82,3.06,3.06,0,0,0,.42-.53c.74.82,1.51,1.61,2.3,2.36a43,43,0,0,0,4.16,3.49,21.68,21.68,0,0,0-.66,2.11,15,15,0,0,0-.43,3.73,12,12,0,0,0,.34,2.78,10.11,10.11,0,0,0,.27,1c-1.28-.93-2.47-1.88-3.55-2.83a28.35,28.35,0,0,1-4.91-5.46,9.47,9.47,0,0,1-1.74-5.26,2.73,2.73,0,0,1,.13-1,2,2,0,0,0,.36.17,3.83,3.83,0,0,0,1.23.21Zm31.85.76a17.1,17.1,0,0,1,2-1.47c.34-.21.7-.43,1.09-.64.39.22.75.43,1.09.66a15.87,15.87,0,0,1,2,1.48.86.86,0,0,1,0,.22v.76a5.27,5.27,0,0,1-.37,2.1,2.61,2.61,0,0,1-.83,1.08,3.72,3.72,0,0,1-1.31.53l-.56.08-.61-.09a3.46,3.46,0,0,1-1.3-.55,2.55,2.55,0,0,1-.83-1.08,5.15,5.15,0,0,1-.34-2.1v-.76a1.8,1.8,0,0,1,0-.22Zm29,4a44,44,0,0,0,4.19-3.47c.84-.78,1.66-1.61,2.44-2.47a2.83,2.83,0,0,0,2.56,1.51,3.89,3.89,0,0,0,1.24-.21,1.46,1.46,0,0,0,.36-.16,2.8,2.8,0,0,1,.12,1,9.32,9.32,0,0,1-1.78,5.24,28,28,0,0,1-5,5.43,46.85,46.85,0,0,1-3.82,3c.13-.39.24-.79.34-1.19a11.79,11.79,0,0,0,.35-2.76,14.81,14.81,0,0,0-.4-3.75,21.46,21.46,0,0,0-.64-2.1Zm-25.91,4.06-1.1-.08a7.6,7.6,0,0,1-2.16-.52,3.36,3.36,0,0,1-1.43-1.06,2.91,2.91,0,0,1-.5-1.77,5.06,5.06,0,0,0,1.64,1.87,6,6,0,0,0,1.27.64v.55h1c.43,0,.84,0,1.28-.06s.83.07,1.23.07h1v-.54a5.79,5.79,0,0,0,1.27-.63,5.08,5.08,0,0,0,1.66-1.86,3,3,0,0,1-.52,1.78,3.45,3.45,0,0,1-1.44,1.05,7.86,7.86,0,0,1-2.16.49l-1,.07Zm-22.21,8.16a15.37,15.37,0,0,1-1-1.91,10.91,10.91,0,0,1-1-4.6,16.06,16.06,0,0,1,.28-3,13.83,13.83,0,0,1,.36-1.34c1.11.75,2.33,1.51,3.66,2.26A50.91,50.91,0,0,0,43,368a46.07,46.07,0,0,0,5.86,2,22.37,22.37,0,0,0,5.67.82h.11a20.56,20.56,0,0,0,2.76-.17,21.15,21.15,0,0,0,2.81.19h.07a22.54,22.54,0,0,0,5.61-.77,47.69,47.69,0,0,0,5.88-2,50.1,50.1,0,0,0,5.57-2.66c1.33-.74,2.56-1.48,3.68-2.23a12.15,12.15,0,0,1,.35,1.35,16.13,16.13,0,0,1,.25,3,11,11,0,0,1-1.07,4.59,17.27,17.27,0,0,1-1.17,2.1c-2.47,1.48-5,2.92-7.58,4.26-2.88,1.51-5.81,2.95-8.69,4.29-2,.92-3.92,1.79-5.7,2.58-1.78-.8-3.68-1.68-5.67-2.62-2.87-1.36-5.78-2.82-8.66-4.36-2.68-1.43-5.32-2.95-7.86-4.52Zm14.24,18.41,1.28-.38a10,10,0,0,0,1.45-.56,8.83,8.83,0,0,1,1.44-.5,20.51,20.51,0,0,1,2.2-.41c.42-.06.92-.1,1.49-.13a15.24,15.24,0,0,1,1.63.15,17.32,17.32,0,0,1,2.19.43,7.78,7.78,0,0,1,1.45.51A10,10,0,0,0,64,392l1.29.39v-1.53c1.39.22,2.8.44,4.2.68,1.82.3,3.73.59,5.67.85a50.7,50.7,0,0,0,6.35.41h.11l1.37,0c-1.89.88-3.82,1.81-5.75,2.79-2.15,1.08-4.26,2.2-6.27,3.32s-3.87,2.23-5.46,3.25c-2.27,1.48-4.36,3-6.22,4.47-.69.56-1.36,1.12-2,1.68-.63-.56-1.29-1.13-2-1.69-1.85-1.5-3.93-3-6.18-4.52-1.58-1-3.41-2.14-5.44-3.29s-4.12-2.28-6.24-3.38c-1.93-1-3.85-1.94-5.73-2.83.5,0,1,0,1.48,0h.24a49.23,49.23,0,0,0,6.11-.36c1.94-.25,3.85-.52,5.68-.81l4.2-.64v1.52Zm.22,36.1H47a20.47,20.47,0,0,1-6.14-.93,17.51,17.51,0,0,1-5.09-2.5,12,12,0,0,1-3.38-3.77,9.45,9.45,0,0,1-1.22-4.74,7.23,7.23,0,0,1,.7-3.34,5.66,5.66,0,0,1,1.87-2.1,7.8,7.8,0,0,1,2.85-1.17,17.62,17.62,0,0,1,3.56-.35h.08a18.93,18.93,0,0,1,8.91,2.21,24.11,24.11,0,0,1,3.13,2,17.52,17.52,0,0,0-1.22,2,10,10,0,0,0-1.24,4.64A6,6,0,0,0,51,424.14a29.91,29.91,0,0,0-1.33,4.25Zm12.6-14.66a24.49,24.49,0,0,1,3.15-2,18.81,18.81,0,0,1,8.85-2.13h.08A17.51,17.51,0,0,1,78,410a7.93,7.93,0,0,1,2.85,1.19,5.67,5.67,0,0,1,1.85,2.12,7.29,7.29,0,0,1,.67,3.35,9.44,9.44,0,0,1-1.25,4.73,11.9,11.9,0,0,1-3.42,3.73,17.22,17.22,0,0,1-5.11,2.47,20.88,20.88,0,0,1-6.05.88H64.76a30.27,30.27,0,0,0-1.29-4.25,6.08,6.08,0,0,0,1.18-3.82,10,10,0,0,0-1.2-4.64,16.23,16.23,0,0,0-1.21-2Zm-5.64-.48q.32-.4.66-.81.35.4.66.81c-.18.18-.34.35-.5.53l-.16.18-.17-.18-.49-.53Zm-2.57,5a7.06,7.06,0,0,1,.77-2.31l.48.49c-.44.58-.85,1.19-1.25,1.82Zm5.18-1.81.48-.48a7.11,7.11,0,0,1,.77,2.32c-.4-.63-.82-1.24-1.25-1.84ZM56,420.47c.38-.59.78-1.18,1.21-1.74.42.57.81,1.15,1.19,1.75l-.27.11a8.45,8.45,0,0,1-.94.29,8.14,8.14,0,0,1-.92-.29l-.27-.12Zm-6.77,29.74H49.2a33.47,33.47,0,0,1-6.75-.73,34.71,34.71,0,0,1-13-5.69,23.39,23.39,0,0,1-5.06-4.92A23.67,23.67,0,0,1,21,432.49a22.92,22.92,0,0,1-1.24-7.78c0-1.66.06-3.17.15-4.48,0-.12,0-.24,0-.36a23.76,23.76,0,0,0,2.78,4.43,39.36,39.36,0,0,0,6.13,6.11,64.89,64.89,0,0,0,7.32,5.06c2.56,1.52,5.18,3,7.82,4.48,2.14,1.19,4.27,2.41,6.5,3.74a21.79,21.79,0,0,0,2.38,4.42c-.47.63-.92,1.29-1.35,2a16.93,16.93,0,0,1-2.21.14Zm14.58-6.48c2.24-1.3,4.38-2.51,6.53-3.67,2.65-1.44,5.29-2.93,7.85-4.43a65,65,0,0,0,7.36-5,39,39,0,0,0,6.18-6.06,23.34,23.34,0,0,0,2.81-4.4l0,.36c.07,1.3.11,2.81.1,4.47a22.91,22.91,0,0,1-1.3,7.78,24.16,24.16,0,0,1-3.46,6.35,23.34,23.34,0,0,1-5.1,4.87,33.82,33.82,0,0,1-6.27,3.49,34.94,34.94,0,0,1-6.8,2.1,34.23,34.23,0,0,1-6.63.68H65a18.39,18.39,0,0,1-2.29-.16c-.42-.67-.86-1.33-1.32-2a21.4,21.4,0,0,0,2.42-4.42ZM54.91,426.1a5.71,5.71,0,0,0,2.29-.46,5.59,5.59,0,0,0,2.31.48,5.17,5.17,0,0,0,1.54-.22,28.1,28.1,0,0,1,1.67,9.64,19,19,0,0,1-.42,3.74c-.55.39-1.1.78-1.64,1.18a40.05,40.05,0,0,0-3.52,2.92,43.59,43.59,0,0,0-3.5-2.94c-.54-.4-1.08-.8-1.63-1.19a19.86,19.86,0,0,1-.39-3.76,27.85,27.85,0,0,1,1.75-9.63,4.87,4.87,0,0,0,1.54.24Z"/></g></g></svg>