<svg xmlns="http://www.w3.org/2000/svg" viewBox="0 0 212.85 225.75"><defs><style>.cls-1{fill:#d4d4d4;}.cls-1,.cls-2{stroke:#3580c2;stroke-miterlimit:10;}.cls-2{fill:none;}</style></defs><title>towards_logo_1</title><g id="Layer_2" data-name="Layer 2"><g id="Layer_5" data-name="Layer 5"><path class="cls-1" d="M130.39,225.25V190c.34-.15.71-.33,1.08-.47,18.5-7,32.61-19.13,42.56-36.17a99.54,99.54,0,0,0,11.33-29.95,107.76,107.76,0,0,0,2-28.78,116.7,116.7,0,0,0-4.2-25.79C179.32,55.47,173,43.52,163.1,33.67A69.69,69.69,0,0,0,134.6,16.6a93.16,93.16,0,0,0-34.13-3.8,86.6,86.6,0,0,0-21.53,3.94,70.56,70.56,0,0,0-37.15,27.2A84.36,84.36,0,0,0,29.63,70.43a120.25,120.25,0,0,0-3.86,38.19,97.26,97.26,0,0,0,3.66,21.47,101,101,0,0,0,11.47,26.3,81,81,0,0,0,24.81,25.75A71,71,0,0,0,85,190.83c.28.08.55.18.86.28v34.13H.5v-41H9c0,.6,0,1.12,0,1.65a50.32,50.32,0,0,0,.74,9.81,22.63,22.63,0,0,0,1.11,3.82A10.76,10.76,0,0,0,18.3,206a28.27,28.27,0,0,0,8.14,1h46.5a35.68,35.68,0,0,0,.1-7.3c-1.73-.62-3.5-1.21-5.23-1.89-22.08-8.62-39-23.31-51-43.65A97,97,0,0,1,5.61,125.64a100.88,100.88,0,0,1-2.4-19.9,126,126,0,0,1,3.26-31.8,96.12,96.12,0,0,1,14-32.19A88.18,88.18,0,0,1,51.66,13.66,106.37,106.37,0,0,1,82,2.91,131.5,131.5,0,0,1,114.61.7a107.28,107.28,0,0,1,39,9.2,92.4,92.4,0,0,1,45.59,43.42,98.35,98.35,0,0,1,8.88,26.37,105.55,105.55,0,0,1,1.77,25.58,106.87,106.87,0,0,1-19.71,56.84,99.92,99.92,0,0,1-41.78,34.15c-1.71.76-3.44,1.46-5.2,2.2V207c.46,0,.87.06,1.27.06q21,0,42.06,0a31,31,0,0,0,7.78-.88c4.83-1.24,7.56-4.4,8.65-9.15a53.81,53.81,0,0,0,.93-11c0-.46,0-.92,0-1.37a1,1,0,0,1,.13-.31h8.36v41Z"/><path class="cls-1" d="M80.28,196.08l-5.35-1.62-1.69-.59c-1.13-.4-2.27-.79-3.39-1.23-20.54-8-36.77-21.91-48.24-41.29a91.88,91.88,0,0,1-10.52-26.92,95.51,95.51,0,0,1-2.27-18.8,121.14,121.14,0,0,1,3.11-30.39A90.85,90.85,0,0,1,25.06,44.91,83,83,0,0,1,54.34,18.59,100.07,100.07,0,0,1,83.06,8.42a122.9,122.9,0,0,1,24-2.31c2.39,0,4.84.07,7.28.2A102,102,0,0,1,151.26,15a87.28,87.28,0,0,1,42.91,40.85,93.14,93.14,0,0,1,8.37,24.88A100,100,0,0,1,204.21,105a101.8,101.8,0,0,1-18.68,53.92A94.76,94.76,0,0,1,146,191.13c-1.12.5-2.25,1-3.39,1.45l-4.37,1.62v18.11l4.93.3c.41,0,.8,0,1.19,0h42.06a36.89,36.89,0,0,0,9.18-1.05,16.48,16.48,0,0,0,11.09-8.73v16.76H136V193.74a87,87,0,0,0,42.87-37.59,105.75,105.75,0,0,0,12-31.62A114.66,114.66,0,0,0,193,94.26a121.66,121.66,0,0,0-4.42-27C184.14,52,177.1,39.67,167.05,29.69A75.62,75.62,0,0,0,136.3,11.25,94.3,94.3,0,0,0,107.36,7c-2.35,0-4.79.08-7.23.23a92.61,92.61,0,0,0-22.91,4.2,76.35,76.35,0,0,0-40,29.32A89.27,89.27,0,0,0,24.22,69a126.8,126.8,0,0,0-4.06,40A102.58,102.58,0,0,0,24,131.61a107.4,107.4,0,0,0,12.12,27.75,87,87,0,0,0,26.52,27.49,76.67,76.67,0,0,0,17.53,8.39v24.38H6.11V202.74a16.47,16.47,0,0,0,10.59,8.67,33.63,33.63,0,0,0,9.73,1.24h50.8"/><path class="cls-1" d="M80.6,104.18,108,59l27.45,45.22L108,153Z"/><polygon class="cls-1" points="87.1 104.29 108.04 69.78 128.99 104.29 108.04 141.55 87.1 104.29"/><line class="cls-2" x1="108.04" y1="58.96" x2="108.04" y2="70.8"/><line class="cls-2" x1="87.67" y1="103.73" x2="80.33" y2="103.73"/><line class="cls-2" x1="128.08" y1="103.85" x2="135.49" y2="103.85"/><line class="cls-2" x1="108.01" y1="139.46" x2="108.01" y2="153.6"/><line class="cls-2" x1="72.94" y1="207.05" x2="76.84" y2="212.58"/><line class="cls-2" x1="73.04" y1="199.75" x2="77.55" y2="196.03"/><line class="cls-2" x1="80.19" y1="195.24" x2="85.81" y2="191.11"/><line class="cls-2" x1="80.19" y1="219.62" x2="85.81" y2="225.24"/><line class="cls-2" x1="6.11" y1="202.74" x2="0.5" y2="184.29"/><line class="cls-2" x1="6.11" y1="219.62" x2="0.5" y2="225.24"/><line class="cls-2" x1="211.85" y1="184.48" x2="206.73" y2="202.87"/><line class="cls-2" x1="206.73" y1="219.63" x2="211.92" y2="224.95"/><line class="cls-2" x1="138.28" y1="212.31" x2="143.13" y2="206.98"/><line class="cls-2" x1="136" y1="219.63" x2="130.83" y2="224.91"/><line class="cls-2" x1="136" y1="193.74" x2="130.85" y2="189.96"/><line class="cls-2" x1="136" y1="193.74" x2="143.13" y2="198.46"/><line class="cls-2" x1="77.57" y1="195.75" x2="77.57" y2="213.32"/></g></g></svg>