<?xml version="1.0" encoding="utf-8"?>
<!-- Generator: Adobe Illustrator 24.0.1, SVG Export Plug-In . SVG Version: 6.00 Build 0)  -->
<svg version="1.1" id="Layer_1" xmlns="http://www.w3.org/2000/svg" xmlns:xlink="http://www.w3.org/1999/xlink" x="0px" y="0px"
	 viewBox="0 0 291.3 281.9" style="enable-background:new 0 0 291.3 281.9;" xml:space="preserve">
<style type="text/css">
	.st0{fill:#ACACAC;}
</style>
<title>ittakes_logo</title>
<g id="Layer_2_1_">
	<g id="Layer_5">
		<path class="st0" d="M145.8,281.4c-77.1,0-139.7-62.7-139.7-139.7C6,74.5,53.9,16.8,119.9,4.4h0.1c0.2,0,0.5,0.2,0.5,0.4
			c0.1,0.3-0.1,0.5-0.4,0.6c0,0,0,0,0,0c-63.3,12.4-109,67.8-109,132.3c0,74.3,60.4,134.7,134.7,134.7s134.7-60.4,134.7-134.7
			c0-64.5-45.7-119.9-109-132.3c-0.3,0-0.5-0.3-0.5-0.5c0-0.3,0.3-0.5,0.5-0.5h0.1c66,12.5,113.8,70.2,113.8,137.4
			C285.6,218.7,222.8,281.4,145.8,281.4z"/>
		<path d="M171.6,4.8c75.6,14.3,125.3,87.1,111,162.6s-87.1,125.3-162.6,111C44.4,264.2-5.3,191.4,9,115.9
			C19.6,59.5,63.7,15.5,120,4.8C46.7,19.1-1.2,90.1,13.1,163.4s85.3,121.2,158.6,106.9s121.2-85.3,106.9-158.6
			C268,57.7,225.7,15.4,171.6,4.8 M171.6,3.8c-0.6-0.1-1,0.4-1.1,0.9s0.4,1,0.9,1.1C244.2,20,291.7,90.5,277.6,163.2
			s-84.6,120.3-157.4,106.1C47.4,255.2-0.1,184.7,14,112C24.5,58.3,66.5,16.3,120.2,5.8c0.6-0.1,1-0.5,0.9-1.1s-0.5-1-1.1-0.9h-0.2
			C43.7,18.2-6.4,91.5,8,167.7s87.7,126.2,163.8,111.8S298,191.8,283.6,115.7C272.9,58.9,228.5,14.5,171.8,3.8H171.6z"/>
	</g>
</g>
</svg>
