<svg xmlns="http://www.w3.org/2000/svg" viewBox="0 0 85.84 313.09"><defs><style>.cls-1{fill:#d3d3d3;stroke:#b280e4;stroke-miterlimit:10;}</style></defs><title>castlogo</title><g id="Layer_2" data-name="Layer 2"><g id="Layer_5" data-name="Layer 5"><path class="cls-1" d="M57.1,79.05a38.62,38.62,0,0,0,10.29-4.46,36.52,36.52,0,0,0,8.34-7,32.24,32.24,0,0,0,5.61-9.15,28.55,28.55,0,0,0,2.06-10.8,27.8,27.8,0,0,0-3.55-14.07A32.52,32.52,0,0,0,70.48,23.2a44.67,44.67,0,0,0-13.21-6.41,52.32,52.32,0,0,0-15.15-2.23,49.43,49.43,0,0,0-15.44,2.35A38.24,38.24,0,0,0,14.16,23.6a31.82,31.82,0,0,0-8.4,10.51A30.28,30.28,0,0,0,2.67,47.84,28.77,28.77,0,0,0,4.84,59a33.71,33.71,0,0,0,5.72,9.26,34.39,34.39,0,0,0,8.18,6.87,30.66,30.66,0,0,0,9.54,3.83v1.37L3.13,80V78.59a32.43,32.43,0,0,0,3.54-2.86c1.07-1,1.6-1.67,1.6-2a10,10,0,0,0-1.2-2.06,33.84,33.84,0,0,1-2.63-5.26A50,50,0,0,1,1.93,58,53.08,53.08,0,0,1,.84,46.69a57.4,57.4,0,0,1,3-19.21,41.56,41.56,0,0,1,8.58-14.57A37.08,37.08,0,0,1,25.71,3.7,44.53,44.53,0,0,1,47.38.79a39.57,39.57,0,0,1,5.6,1,47.55,47.55,0,0,1,6.23,2.05,42.82,42.82,0,0,1,6.58,3.38,41,41,0,0,1,7.43,5.94,37.88,37.88,0,0,1,6.23,8.35A46.59,46.59,0,0,1,83.74,32.4,53.68,53.68,0,0,1,85.34,46a50.81,50.81,0,0,1-1.26,12,54.9,54.9,0,0,1-2.74,8.58,32.32,32.32,0,0,1-2.75,5.26,9.59,9.59,0,0,0-1.26,2.06,2,2,0,0,0,.52.85,16.35,16.35,0,0,0,1.26,1.37,22.78,22.78,0,0,0,1.71,1.55c.65.53,1.32,1,2,1.48v1.26H57.21Z"/><path class="cls-1" d="M1.3,133.82H2.44a14,14,0,0,0,.23,1.65,13.79,13.79,0,0,0,.8,2.75,7.91,7.91,0,0,0,1.6,2.51,3.45,3.45,0,0,0,2.63,1.09,15,15,0,0,0,3.38-.63q2.34-.63,5.71-1.77t7.49-2.63c2.75-1,5.6-2.06,8.58-3.2V103.17c-2.9-1.14-5.66-2.25-8.29-3.31s-5.28-2.14-7.95-3.2q-6.17-2.4-8.69-2.4a3.45,3.45,0,0,0-2.46.91,7.23,7.23,0,0,0-1.6,2.34A13.2,13.2,0,0,0,3,100.6c-.19,1.11-.36,2.15-.52,3.15H1.3V79.39H2.56a12.71,12.71,0,0,0,1.6,5.09,11.73,11.73,0,0,0,1.71,2.46,25.26,25.26,0,0,0,3.78,2.63A83.19,83.19,0,0,0,18.45,94q5.37,2.4,12.24,5.37l14.12,6.12q7.26,3.14,14.63,6.23t13.78,5.83l2.51-1.14a18.47,18.47,0,0,0,2.18,3.71,20.82,20.82,0,0,0,2.63,2.92,22.7,22.7,0,0,0,2.63,2.11c.83.58,1.52,1,2,1.32v.91l-18,6.75q-8.52,3.19-16.41,6.12l-15.27,5.66q-7.37,2.75-14.57,5.48-3.55,1.26-5.89,2.35l-5.32,2.46a14.46,14.46,0,0,0-1.6,1,14.18,14.18,0,0,0-2.34,2.11,13,13,0,0,0-2.12,3.26,12,12,0,0,0-1,4.57H1.3Zm69.29-15c-1-.46-2.56-1.13-4.69-2s-4.73-2-7.77-3.26-6.5-2.73-10.35-4.29L35.26,104.2v28.47q5.15-1.93,10.29-3.94t9.89-3.89q4.74-1.89,8.69-3.43T70.59,118.84Z"/><path class="cls-1" d="M14,222.14A22.14,22.14,0,0,1,6.56,216,26.24,26.24,0,0,1,2,206.54a45.94,45.94,0,0,1-1.49-12,57.3,57.3,0,0,1,.69-9.6,38.39,38.39,0,0,1,1.65-6.64,23.31,23.31,0,0,1,1.78-3.94,5.2,5.2,0,0,0,.8-1.66c0-.23-.46-.72-1.38-1.49s-1.79-1.44-2.62-2v-1l22.75-.35v1.15a35.37,35.37,0,0,0-6,2.63A48.78,48.78,0,0,0,12.68,175a31.18,31.18,0,0,0-4.52,4,19.36,19.36,0,0,0-3,4.06,32.4,32.4,0,0,0-2.06,5.14,20,20,0,0,0-1,6.18q0,8.46,4.63,13.71t12.52,5.26a14.24,14.24,0,0,0,5.6-1A13.26,13.26,0,0,0,29,209.56a17.06,17.06,0,0,0,3-4.17,45.77,45.77,0,0,0,2.28-5.14q1-2.75,1.72-4.81c.46-1.37.89-2.65,1.31-3.83s.84-2.4,1.26-3.65,1-2.77,1.66-4.52a24.92,24.92,0,0,1,3.14-5.72,23.46,23.46,0,0,1,4.69-4.8,24,24,0,0,1,6-3.32A19,19,0,0,1,61,168.35a23.37,23.37,0,0,1,10.64,2.25,21.67,21.67,0,0,1,7.43,6.06,25.54,25.54,0,0,1,4.4,8.78,37.81,37.81,0,0,1,1.43,10.46,38.67,38.67,0,0,1-.86,8.81,36.14,36.14,0,0,1-1.88,6,21,21,0,0,1-1.89,3.54,8,8,0,0,0-.86,1.32c0,.23.46.7,1.38,1.43s1.82,1.39,2.74,2v1.26H62.36V219a46.64,46.64,0,0,0,7.49-3.55,34,34,0,0,0,6.63-5,24.24,24.24,0,0,0,4.74-6.52,17.87,17.87,0,0,0,1.83-8.11,21.21,21.21,0,0,0-1-6.69,15.41,15.41,0,0,0-3.08-5.49A14.32,14.32,0,0,0,73.85,180a17.19,17.19,0,0,0-6.92-1.31,13.13,13.13,0,0,0-9.72,3.65,25.91,25.91,0,0,0-5.83,9.46c-.61,1.52-1.14,2.95-1.6,4.28s-.9,2.64-1.32,3.93-.85,2.61-1.31,3.94-.95,2.72-1.49,4.16a26.49,26.49,0,0,1-8.29,12q-5.43,4.29-13.55,4.28A21.2,21.2,0,0,1,14,222.14Z"/><path class="cls-1" d="M62.13,311.5q2.05-.92,4.29-2.18t4.17-2.57c1.29-.88,2.49-1.73,3.6-2.57A17.26,17.26,0,0,0,76.65,302a12.08,12.08,0,0,0,3-5.21,32.28,32.28,0,0,0,.86-7.14c0-1.45,0-2.71,0-3.77s.06-2.14.06-3.21v-7.54q-2.87,0-7.77-.06T62.59,275H17.88q-3.31,0-6.35.17a8.35,8.35,0,0,0-4.28,1.09,8.53,8.53,0,0,0-3.43,4.86c-.61,2.1-1.07,4-1.38,5.66H1.3V249.64H2.44a34.08,34.08,0,0,0,1.15,5.72,11.79,11.79,0,0,0,3.77,5.37,3.79,3.79,0,0,0,1.89.86,28.36,28.36,0,0,0,3,.46c1.1.11,2.3.19,3.6.22s2.55.06,3.77.06,2.48,0,4.23.06l5.84.11q3.19.06,6.63.06H80.65V255c0-1,0-2-.06-3.14s0-2.38,0-3.83a25.79,25.79,0,0,0-1-7.15,13.72,13.72,0,0,0-3.2-5.2,16.76,16.76,0,0,0-2.4-2.11c-1.07-.81-2.23-1.64-3.49-2.52a47.68,47.68,0,0,0-4.06-2.52,25.7,25.7,0,0,0-4.23-1.88l.34-1,21.73,3.43c-.39,1.75-.69,3.37-.92,4.86a56,56,0,0,0-.46,6.46c-.07,2.89-.13,5.49-.17,7.77s-.06,4.5-.06,6.64v21.72q0,3.44.06,6.63c0,2.13.08,4.35.12,6.63s0,4.88,0,7.78a37.44,37.44,0,0,0,.63,6.23c.35,1.64.78,3.33,1.32,5.09l-22.3,3.66Z"/></g></g></svg>