<svg xmlns="http://www.w3.org/2000/svg" viewBox="0 0 207.31 246.09"><defs><style>.cls-1{fill:#d3d3d3;stroke:#222849;stroke-miterlimit:10;}</style></defs><title>logonaomi</title><g id="Layer_2" data-name="Layer 2"><g id="Layer_5" data-name="Layer 5"><polygon class="cls-1" points="30.72 130.97 40.78 126.7 61.68 124.85 50.72 121.02 60.27 114.42 39.63 118.17 28.8 116.71 27.18 120.99 3.79 127.34 28.02 127.27 30.72 130.97"/><polygon class="cls-1" points="28.8 113.11 38.87 107.07 57.31 105.93 47.51 100.06 55.41 91.81 37.33 95.58 26.02 92.42 24.66 99.11 6.12 105.63 25.72 107.01 28.8 113.11"/><polygon class="cls-1" points="34.16 91.26 44.2 84.24 61.95 83.39 52.42 76.46 59.78 67.25 42.44 71.13 30.9 67.02 29.7 75.05 12.59 81.82 30.88 83.83 34.16 91.26"/><polygon class="cls-1" points="137.55 51.49 135.07 64.55 148.33 59.35 161.99 66.84 159.31 53.02 170.33 44.26 155.08 41.07 148.38 28.5 141.78 40.03 126.28 40.82 137.55 51.49"/><polygon class="cls-1" points="166.53 127.78 176.58 132.05 179.29 128.36 203.52 128.42 180.13 122.07 178.5 117.8 167.68 119.25 147.03 115.5 156.59 122.1 145.63 125.94 166.53 127.78"/><polygon class="cls-1" points="181.29 93.5 169.98 96.66 151.9 92.89 159.8 101.14 150 107.01 168.44 108.16 178.51 114.19 181.59 108.09 201.19 106.72 182.65 100.2 181.29 93.5"/><polygon class="cls-1" points="147.53 68.34 154.89 77.54 145.36 84.48 163.11 85.33 173.15 92.34 176.43 84.91 194.72 82.91 177.61 76.13 176.41 68.1 164.87 72.21 147.53 68.34"/><path class="cls-1" d="M171.67,141.26l-9.34-2.42-12-5.94,4.89,4.53-6.63-.73,6.58,2.78a63.8,63.8,0,0,1-33.49,25.9,94.73,94.73,0,0,1,11.66-15.91l1-1.11-1-1.13A119.88,119.88,0,0,1,105.7,85.42L102.05,55,98.46,85.44c-3.32,31-20.62,53.53-27.91,61.77l-1,1.12,1,1.11a105.66,105.66,0,0,1,12.21,17.42c-14.71-3-26.07-10.91-36.32-25.19-.1-.16-.4-.65-.66-1.12l9.86-4.16-6.63.73,4.89-4.53-12,5.94L32.53,141l-.81,2.94-10.66,6,11.53-4.13,2.75,1.31,7.28-5c.06.11.13.22.2.33,11.64,16.72,24.64,25.47,42,28.28,6.64,12.59,12.09,27.74,13.81,43.13l3.41,28.11,3.37-28.09a127.48,127.48,0,0,1,13.84-44.21c16.05-4.32,29.51-14.26,39-28.8l2.62,1.11,7.94,5.48,2.75-1.3,11.53,4.12-10.66-6Zm-69.58,72.15,0,.33,0-.33c-2.89-25.79-16-51-28-65.08,8-9.28,24.48-31.85,27.77-62.51l.26-2.24.27,2.27A124.38,124.38,0,0,0,113,121.92a122.72,122.72,0,0,0,16.78,26.37C115.37,164.62,105,188.84,102.09,213.41Z"/><polygon class="cls-1" points="81.4 64.96 101.98 50.01 122.56 64.96 114.7 40.77 135.28 25.81 109.84 25.81 101.98 1.62 94.12 25.81 68.68 25.81 89.26 40.77 81.4 64.96"/><polygon class="cls-1" points="40.13 66.67 53.79 59.18 67.05 64.38 64.57 51.32 75.84 40.65 60.34 39.87 53.74 28.34 47.04 40.9 31.79 44.09 42.81 52.85 40.13 66.67"/></g></g></svg>